<?xml version="1.0" standalone="no"?>
<!DOCTYPE svg PUBLIC "-//W3C//DTD SVG 1.1//EN" "http://www.w3.org/Graphics/SVG/1.1/DTD/svg11.dtd" >
<svg xmlns="http://www.w3.org/2000/svg" xmlns:xlink="http://www.w3.org/1999/xlink" version="1.1">
    <metadata>
        Created by FontForge 20170731 at Tue Oct 29 20:56:18 2019
        By Aleksey,,,
        Copyright (c) 2012 by International TypeFounders, Inc., USA. Arabic glyphs: Tarek Atrissi Design, The Netherlands. All rights reserved.
    </metadata>
    <defs>
        <font id="TwixHighlightCompressedKz" horiz-adv-x="426" >
            <font-face
                font-family="Twix Highlight Compressed Kz"
                font-weight="400"
                font-stretch="normal"
                units-per-em="1000"
                panose-1="2 0 5 6 9 0 0 2 0 4"
                ascent="800"
                descent="-200"
                x-height="532"
                cap-height="668"
                bbox="-29 -270 903 892"
                underline-thickness="41"
                underline-position="-230"
                unicode-range="U+001D-FEE9"
            />
            <missing-glyph horiz-adv-x="452"
                           d="M40 688h372v-815h-372v815zM103 -64h245v689h-245v-689z" />
            <glyph glyph-name="uniFEE7" unicode="&#x646;" horiz-adv-x="252" arabic-form="initial"
                   d="M102 475q3 -4 8 -4q7 0 13 9q2 3 6 5l6 4q6 5 6 11q0 4 -4 8q-3 4 -7 4q-11 0 -22 -12q-4 -4 -7 -9q-2 -5 -2 -7q0 -5 3 -9zM98 126q11 14 11 26q0 10 -12 10q-6 -1 -8 -7l-2 -4l-2 -4q-2 -5 -5 -9t-7 -7l-3 -3l-2 -2q-5 -3 -5 -9q0 -10 11 -10q13 2 24 19zM-9 0v128h46
q17 0 30 12q12 13 12 30v289q0 29 20 49q21 20 49 20q29 0 49 -20t20 -49v-281q0 -79 -53 -129q-51 -49 -127 -49h-46zM99 658q21 20 49 20q29 0 49 -20t20 -49q0 -28 -20 -49q-20 -20 -49 -20q-28 0 -49 20q-20 21 -20 49q0 29 20 49zM102 625q3 -4 8 -4q7 0 13 9q2 3 6 5
l6 4q6 5 6 11q0 4 -4 8q-3 4 -7 4q-11 0 -22 -12q-4 -4 -7 -9q-2 -5 -2 -7q0 -5 3 -9z" />
            <glyph glyph-name="uniFEE8" unicode="&#x646;" horiz-adv-x="274" arabic-form="medial"
                   d="M91 477q3 -4 8 -4q7 0 13 9q2 3 6 5l6 4q6 5 6 11q0 4 -4 8q-3 4 -7 4q-11 0 -22 -12q-4 -4 -7 -9q-2 -5 -2 -7q0 -5 3 -9zM87 126q11 14 11 26q0 10 -12 10q-6 -1 -8 -7l-2 -4l-2 -4q-2 -5 -5 -9t-7 -7l-3 -3l-2 -2q-5 -3 -5 -9q0 -10 11 -10q13 2 24 19zM-9 0v128h35
q17 0 30 12q12 13 12 30v291q0 29 20 49q21 20 49 20q29 0 49 -20t20 -49v-291q0 -17 12 -30q13 -12 30 -12h35v-128h-35q-65 0 -112 35q-48 -35 -110 -35h-35zM88 658q21 20 49 20q29 0 49 -20t20 -49q0 -28 -20 -49q-20 -20 -49 -20q-28 0 -49 20q-20 21 -20 49
q0 29 20 49zM91 625q3 -4 8 -4q7 0 13 9q2 3 6 5l6 4q6 5 6 11q0 4 -4 8q-3 4 -7 4q-11 0 -22 -12q-4 -4 -7 -9q-2 -5 -2 -7q0 -5 3 -9z" />
            <glyph glyph-name="uniFEE9" unicode="&#x647;" horiz-adv-x="414" arabic-form="isolated"
                   d="M165 160q11 -34 42 -34t42 34q9 29 9 106t-9 106q-11 34 -42 34t-42 -34q-9 -29 -9 -106t9 -106zM266 118q12 15 12 25q0 11 -11 11q-6 0 -9 -7l-2 -3l-2 -4q-3 -5 -7 -9q-3 -3 -7 -6l-5 -3l-3 -3q-3 -3 -3 -8q0 -10 11 -10q12 0 26 17zM375 123q-18 -56 -64 -91
q-46 -34 -104 -34t-104 34q-46 35 -64 91q-14 43 -14 143t14 143q18 56 64 91q46 34 104 34t104 -34q46 -35 64 -91q14 -43 14 -143t-14 -143zM69 408q8 0 13 12q14 28 36 47q8 7 21 14l11 5l12 5q16 5 16 14q0 10 -10 10q-28 0 -63 -29q-18 -15 -31 -34q-15 -22 -16 -35
q0 -9 11 -9z" />
            <glyph glyph-name=".notdef" horiz-adv-x="452"
                   d="M40 688h372v-815h-372v815zM103 -64h245v689h-245v-689z" />
            <glyph glyph-name="glyph1" horiz-adv-x="0"
            />
            <glyph glyph-name="glyph1" horiz-adv-x="0"
            />
            <glyph glyph-name="glyph2" horiz-adv-x="220"
            />
            <glyph glyph-name="space" unicode=" " horiz-adv-x="220"
            />
            <glyph glyph-name="space" unicode="&#xa0;" horiz-adv-x="220"
            />
            <glyph glyph-name="exclam" unicode="!" horiz-adv-x="226"
                   d="M64 85q4 -2 9 -1q2 1 13 13l5 4l5 4q6 6 5 13q-2 10 -13 8q-7 -1 -17 -12q-12 -11 -12 -19q0 -7 5 -10zM62 125q21 21 51 21t52 -21q21 -22 21 -52t-21 -51q-22 -22 -52 -22t-51 22q-22 21 -22 51t22 52zM40 602q0 66 73 66t73 -66v-347q0 -65 -73 -65t-73 65v347z
M80 615l5 6q3 4 7 7l3 2l4 3q5 3 5 7q0 12 -12 12q-11 0 -22 -10q-12 -11 -12 -23q0 -5 2 -8q2 -4 7 -4q7 0 13 8z" />
            <glyph glyph-name="quotedbl" unicode="&#x22;" horiz-adv-x="201"
                   d="M52 649q15 51 66 51q29 0 48 -20q20 -19 20 -48q0 -8 -2 -18l-33 -109q-14 -51 -66 -51q-31 0 -53 26q-23 26 -14 56zM72 640q5 -3 9 -1q2 1 8 9l5 6l6 6q7 6 6 13q-2 10 -13 8q-6 -1 -16 -12t-10 -19q0 -7 5 -10z" />
            <glyph glyph-name="numbersign" unicode="#" horiz-adv-x="499"
                   d="M134 541l16 89q3 20 20 32t37 8t32 -20q11 -16 8 -36l-13 -73h66l16 89q3 20 20 32t37 8t32 -20q11 -16 8 -36l-13 -73h50q20 0 35 -15q14 -15 14 -35q-1 -20 -15 -34t-34 -15h-68l-15 -86h50q20 0 35 -15q14 -15 14 -35q-1 -20 -15 -34t-34 -15h-68l-15 -86
q-3 -20 -20 -32q-18 -12 -37 -8q-20 4 -32 20q-12 17 -8 38l12 68h-66l-15 -86q-3 -20 -20 -32q-18 -12 -37 -8q-20 4 -32 20q-12 17 -8 38l12 68h-34q-20 0 -34 15q-15 15 -15 35q1 21 15 35q15 14 36 14h50l15 86h-34q-20 0 -34 15q-15 15 -15 35q1 21 15 35q15 14 36 14
h50zM201 356h66l15 86h-66zM56 344q-9 4 -23 -4q-14 -7 -17 -16q-2 -10 7 -14q4 -1 10 2l5 2l4 2q4 2 8 3l6 1q7 1 9 6q5 9 -9 18zM89 528q-9 4 -23 -4q-14 -7 -17 -16q-2 -10 7 -14q4 -1 10 2l5 2l4 2q4 2 8 3l6 1q7 1 9 6q5 9 -9 18zM351 616l2 6q1 4 4 7l3 4l3 4q3 5 2 9
q-3 10 -13 10q-9 -2 -18 -14q-8 -13 -6 -23q5 -14 15 -11q6 1 8 8zM185 616l2 6q1 4 4 7l3 4l3 4q3 5 2 9q-3 10 -13 10q-9 -2 -18 -14q-8 -13 -6 -23q5 -14 15 -11q6 1 8 8z" />
            <glyph glyph-name="dollar" unicode="$" horiz-adv-x="436"
                   d="M258 723q19 -19 19 -45v-19q16 -5 28 -12q75 -40 75 -94q0 -32 -21 -51q-20 -18 -48 -18q-30 0 -52 24q-26 26 -42 26q-22 0 -38 -17q-14 -16 -14 -34q0 -33 38 -53q13 -7 35 -14l17 -6l17 -6q139 -53 139 -194q0 -70 -37 -125q-37 -56 -100 -77v-41q0 -26 -19 -45
t-45 -19t-45 19t-19 45v40q-60 20 -100 71q-36 46 -36 86q0 26 19 47q21 23 51 23q45 0 67 -48q25 -54 64 -54q25 0 45 18q20 20 20 48q0 46 -31 70q-18 14 -75 33q-142 48 -142 192q0 52 34 99q34 46 87 66v20q0 26 19 45t45 19t45 -19zM68 529q3 0 7 5l2 4l2 3l12 20
q7 12 15 21q20 22 52 35q16 6 16 20q0 3 -4 5q-3 2 -7 2q-32 0 -71 -40q-37 -38 -37 -59q0 -16 13 -16zM242 108q3 -3 6 -3q15 0 36 20q21 19 21 34q0 14 -12 14q-6 0 -12 -10l-3 -5l-4 -5q-5 -8 -10 -13l-8 -6l-9 -7q-10 -7 -8 -14q1 -3 3 -5zM177 713q-11 -11 -12 -18
q-2 -11 8 -13q7 -1 13 5l4 6l4 5q12 11 13 13q1 5 -1 9q-3 5 -10 5q-8 0 -19 -12zM43 207q-10 -10 -10 -19q0 -8 8 -8q9 0 19 10l4 3l4 4q4 3 4 9q0 12 -12 10q-8 -1 -17 -9z" />
            <glyph glyph-name="percent" unicode="%" horiz-adv-x="654"
                   d="M416 640q8 18 28 25q19 7 37 -1q19 -9 26 -28q6 -19 -2 -37l-265 -571q-8 -18 -28 -25q-19 -7 -37 1q-19 9 -26 28t2 38zM446 617l3 5l6 6l4 3l4 3q4 4 4 8q0 11 -10 13q-9 2 -20 -9q-12 -10 -12 -20q0 -15 11 -15q6 0 10 6zM76 319q-31 26 -43 70q-8 32 -8 93q0 62 8 92
q12 44 43 71q30 25 69 25t69 -25q31 -27 43 -71q8 -30 8 -92q0 -61 -8 -93q-12 -44 -43 -70q-30 -25 -69 -25t-69 25zM116 554q-6 -19 -6 -72t6 -72q7 -24 29 -24t30 24q5 19 5 72t-5 72q-8 23 -30 23t-29 -23zM440 23q-31 26 -43 70q-8 32 -8 93q0 62 8 92q12 44 43 71
q30 25 69 25t69 -25q31 -27 43 -71q8 -30 8 -92q0 -61 -8 -93q-12 -44 -43 -70q-30 -25 -69 -25t-69 25zM480 258q-6 -19 -6 -72t6 -72q7 -24 29 -24t30 24q5 19 5 72t-5 72q-8 23 -30 23t-29 -23z" />
            <glyph glyph-name="ampersand" unicode="&#x26;" horiz-adv-x="559"
                   d="M392 52q-80 -55 -153 -55q-87 0 -148 49q-66 54 -66 139q0 61 30 106q24 37 83 82l-2 3q-50 63 -50 125q0 69 49 119t120 50q75 0 126 -51q48 -49 48 -114q0 -80 -89 -155l70 -86l21 31q19 26 46 26q29 0 52 -19q25 -21 25 -54q0 -14 -8 -30l-9 -14l-9 -14
q-11 -16 -28 -36l26 -31q17 -22 17 -45q0 -33 -21 -55q-22 -23 -53 -23q-36 0 -52 21zM307 159l-82 104q-49 -35 -49 -70q0 -24 16 -40q17 -18 46 -18q30 0 69 24zM232 482l20 -25l12 9q7 5 12 10q12 12 12 26q0 33 -32 33q-12 0 -22 -9q-11 -9 -11 -22q0 -11 9 -22z
M128 538l2 6l2 6q6 19 21 37q13 17 35 28q16 7 16 16q0 4 -2 7q-3 4 -7 4t-12 -3q-6 -2 -9 -4q-21 -13 -39 -35q-8 -10 -15 -23q-6 -10 -10 -22l-2 -7q-1 -5 -1 -8q1 -9 11 -9q7 0 10 7zM75 253q21 36 58 68l5 5q2 4 2 8q0 10 -8 10q-6 0 -14 -5q-6 -5 -15 -14l-15 -15
q-35 -39 -35 -60q0 -10 11 -10q4 0 11 13zM301 453q7 7 8 12q1 6 -2 10q-4 3 -8 3q-3 0 -7 -4l-3 -4l-3 -3q-11 -11 -11 -12q0 -11 11 -11q6 0 15 9z" />
            <glyph glyph-name="quotesingle" unicode="'" horiz-adv-x="381"
                   d="M232 649q15 51 66 51q29 0 48 -20q20 -19 20 -48q0 -8 -2 -18l-33 -109q-14 -51 -66 -51q-31 0 -53 26q-23 26 -14 56zM252 640q5 -3 9 -1q2 1 8 9l5 6l6 6q7 6 6 13q-2 10 -13 8q-6 -1 -16 -12t-10 -19q0 -7 5 -10zM52 649q15 51 66 51q29 0 48 -20q20 -19 20 -48
q0 -8 -2 -18l-33 -109q-14 -51 -66 -51q-31 0 -53 26q-23 26 -14 56zM72 640q5 -3 9 -1q2 1 8 9l5 6l6 6q7 6 6 13q-2 10 -13 8q-6 -1 -16 -12t-10 -19q0 -7 5 -10z" />
            <glyph glyph-name="parenleft" unicode="(" horiz-adv-x="246"
                   d="M135 660q4 0 16 14l5 5l5 4q5 5 5 11q0 10 -11 10q-8 0 -20 -14q-11 -13 -11 -20q0 -10 11 -10zM96 -39q-13 35 -22 63q-12 40 -21 79q-23 99 -23 198q0 216 76 366q27 53 65 53q29 0 49 -18q21 -19 21 -49q0 -10 -12 -41l-6 -15l-7 -17q-8 -21 -14 -39
q-40 -115 -40 -240q0 -69 12 -135q10 -52 28 -104q6 -19 14 -40l7 -17l6 -15q12 -32 12 -42q0 -28 -18 -47q-20 -21 -49 -21q-49 0 -78 81z" />
            <glyph glyph-name="parenright" unicode=")" horiz-adv-x="246"
                   d="M33 661q3 0 8 4l4 5l4 5l5 5l6 4q5 4 5 10q0 10 -11 10q-8 0 -20 -13t-12 -20q0 -10 11 -10zM24 -99q-19 19 -19 47q0 10 12 42l6 15l7 17q8 21 15 40q39 117 39 239q0 71 -12 137q-10 52 -27 103q-7 18 -15 39l-7 17l-6 15q-12 31 -12 41q0 30 21 49q20 18 49 18
q38 0 65 -53q76 -150 76 -366q0 -99 -23 -198q-9 -39 -21 -79q-9 -28 -22 -63q-29 -81 -78 -81q-29 0 -48 21z" />
            <glyph glyph-name="asterisk" unicode="*" horiz-adv-x="354"
                   d="M125 564v55q0 21 15 36t36 15t36 -15t15 -36v-55l40 15q20 7 40 -2q20 -10 27 -29q7 -20 -2 -39t-29 -27l-45 -16l36 -49q12 -17 9 -38q-3 -22 -20 -34t-38 -9q-21 4 -33 20l-36 49l-36 -49q-12 -16 -33 -20q-21 -3 -38 9t-20 33q-3 22 9 39l35 49l-44 16q-20 8 -29 27
t-2 39q7 19 27 29q20 9 40 2zM153 649q-11 -9 -9 -15q1 -3 3 -5q3 -2 6 -2t7 3l3 3l4 3q12 7 12 12q0 3 -2 6q-3 3 -8 3q-6 0 -16 -8zM34 539q2 -4 6 -4q2 0 11 9l4 3l5 4q5 3 5 6q0 5 -4 8q-4 2 -8 1q-6 -1 -14 -9t-8 -12q0 -3 3 -6z" />
            <glyph glyph-name="plus" unicode="+" horiz-adv-x="420"
                   d="M255 489q19 -19 19 -45v-62h62q26 0 45 -19t19 -45t-19 -45t-45 -19h-62v-62q0 -26 -19 -45t-45 -19t-45 19t-19 45v62h-62q-26 0 -45 19t-19 45t19 45t45 19h62v62q0 26 19 45t45 19t45 -19zM174 479q-11 -11 -12 -18q-2 -11 8 -13q7 -1 13 5l4 6l4 5q12 11 13 13
q1 5 -1 9q-3 5 -10 5q-8 0 -19 -12zM44 327q4 -2 9 -1q2 1 13 13q1 2 5 4l6 3q6 5 5 12q-2 10 -13 8q-7 -1 -18 -11q-12 -10 -12 -18q0 -7 5 -10z" />
            <glyph glyph-name="comma" unicode="," horiz-adv-x="201"
                   d="M42 95q15 51 66 51q29 0 48 -20q20 -19 20 -48q0 -8 -2 -18l-33 -109q-14 -51 -66 -51q-31 0 -53 26q-23 26 -14 56zM62 86q5 -3 9 -1q2 1 9 9l5 6l6 6q7 6 6 13q-2 10 -13 8q-6 -1 -16 -12q-11 -11 -11 -19q0 -7 5 -10z" />
            <glyph glyph-name="hyphen" unicode="-" horiz-adv-x="328"
                   d="M37 380q21 22 52 22h150q31 0 52 -22q22 -21 22 -52t-22 -52q-21 -22 -52 -22h-150q-31 0 -52 22q-22 21 -22 52t22 52zM39 341q4 -2 9 -1q2 1 13 13l5 4l5 4q6 6 5 13q-2 10 -13 8q-7 -1 -17 -12q-12 -11 -12 -19q0 -7 5 -10z" />
            <glyph glyph-name="hyphen" unicode="&#xad;" horiz-adv-x="328"
                   d="M37 380q21 22 52 22h150q31 0 52 -22q22 -21 22 -52t-22 -52q-21 -22 -52 -22h-150q-31 0 -52 22q-22 21 -22 52t22 52zM39 341q4 -2 9 -1q2 1 13 13l5 4l5 4q6 6 5 13q-2 10 -13 8q-7 -1 -17 -12q-12 -11 -12 -19q0 -7 5 -10z" />
            <glyph glyph-name="period" unicode="." horiz-adv-x="196"
                   d="M49 85q4 -2 9 -1q2 1 13 13l5 4l5 4q6 6 5 13q-2 10 -13 8q-7 -1 -17 -12q-12 -11 -12 -19q0 -7 5 -10zM47 125q21 21 51 21t52 -21q21 -22 21 -52t-21 -51q-22 -22 -52 -22t-51 22q-22 21 -22 51t22 52z" />
            <glyph glyph-name="slash" unicode="/" horiz-adv-x="325"
                   d="M26 9q-19 17 -21 44q0 14 6 32l182 551q14 42 61 42q33 0 53 -27q20 -28 9 -61l-182 -553q-15 -46 -63 -46q-26 0 -45 18zM230 623l4 6l6 6l4 3l5 3q6 4 6 8q0 22 -23 10q-24 -12 -24 -28q0 -15 11 -15q6 0 11 7z" />
            <glyph glyph-name="zero" unicode="0" horiz-adv-x="492"
                   d="M447 166q-21 -79 -76 -124q-54 -44 -125 -44t-125 44q-55 45 -76 124q-15 58 -15 168t15 168q21 79 76 125q54 43 125 43t125 -43q55 -46 76 -125q15 -58 15 -168t-15 -168zM95 527l3 4l1 3q19 37 45 58q10 9 21 15l10 6l9 4l6 3l6 3q7 5 7 12q0 5 -2 9q-3 4 -8 4
q-12 0 -33 -11q-21 -12 -34 -24q-19 -18 -33 -39q-19 -26 -19 -42q0 -3 4 -6q5 -3 10 -3q3 0 7 4zM316 123q23 20 23 35q0 10 -12 10q-5 0 -9 -3l-3 -4l-2 -3q-13 -20 -32 -29l-3 -2l-3 -2q-4 -3 -4 -8q0 -13 12 -13t33 19zM181 185q16 -50 65 -50t65 50q12 38 12 149
t-12 149q-16 50 -65 50t-65 -50q-12 -38 -12 -149t12 -149z" />
            <glyph glyph-name="one" unicode="1" horiz-adv-x="291"
                   d="M38 547l5 5l6 6q1 1 5 3l6 4q8 5 8 10q0 13 -11 13q-8 0 -24 -12q-15 -13 -15 -23q0 -12 11 -12q3 0 9 6zM251 73q0 -30 -21 -51q-22 -22 -52 -22t-51 22q-22 21 -22 51v391l-7 -3l-8 -3q-10 -4 -22 -4q-28 0 -50 20q-23 21 -23 53q0 40 32 60l113 70q7 4 19 7q11 4 18 4
q32 0 54 -23q20 -22 20 -50v-522z" />
            <glyph glyph-name="two" unicode="2" horiz-adv-x="421"
                   d="M203 140h133q29 0 50 -20q20 -21 20 -50t-20 -50q-21 -20 -50 -20h-258q-29 0 -50 20q-20 21 -20 50q0 21 14 43l213 339q21 34 10 57q-13 28 -40 28q-22 0 -49 -39q-13 -19 -24 -27q-16 -12 -38 -12q-27 0 -48 20q-23 22 -23 52q0 41 47 86q55 53 131 53q83 0 138 -54
q53 -52 53 -125q0 -22 -6 -45q-9 -30 -28 -60zM68 546q9 23 31 43q21 19 41 28q16 6 16 20q0 6 -5 8q-4 2 -9 1q-10 -2 -26 -11q-18 -10 -34 -25q-38 -36 -38 -61q0 -14 10 -14q9 0 14 11zM50 95l2 5l3 3q2 4 2 8q0 3 -2 5q-3 3 -8 3q-10 0 -16 -13q-6 -12 -6 -16q0 -9 8 -9
q11 0 17 14z" />
            <glyph glyph-name="three" unicode="3" horiz-adv-x="433"
                   d="M195 409l10 4l11 4q12 6 20 12q21 17 21 44q0 25 -12 41q-14 18 -36 18q-28 0 -51 -36q-23 -37 -60 -37q-26 0 -48 20q-22 21 -22 48q0 46 49 92q54 51 129 51q81 0 136 -55q51 -52 51 -123q0 -62 -33 -110q-16 -23 -33 -35q20 -14 41 -40q40 -54 40 -119q0 -75 -55 -131
q-58 -59 -144 -59q-93 0 -151 61q-48 50 -48 106q0 27 21 48q20 19 47 22q45 5 52 -21q24 -79 73 -79q26 0 46 17q21 19 21 49q0 32 -19 51q-13 13 -45 27q-51 23 -51 68q0 47 40 62zM53 182q8 8 8 16q0 10 -10 10q-8 0 -16 -8q-7 -9 -7 -18q0 -7 10 -7q8 0 15 7zM183 356
q4 0 9 6l4 4l3 4l4 3l6 3q6 4 6 10q0 5 -2 8q-3 4 -10 4q-14 0 -25 -15q-3 -4 -5 -9t-2 -8q0 -10 12 -10zM74 598q-8 -9 -14 -18q-15 -22 -15 -41q0 -9 7 -10q12 -2 20 17q17 44 64 67q25 11 25 21q0 11 -10 11q-28 0 -63 -33z" />
            <glyph glyph-name="four" unicode="4" horiz-adv-x="465"
                   d="M245 133h-174q-30 0 -51 22q-20 22 -20 51q0 21 12 40l241 389q20 33 61 33q32 0 53 -23q20 -22 20 -50v-322h13q29 0 50 -20q20 -21 20 -50t-20 -50q-21 -20 -50 -20h-13v-61q0 -30 -21 -51t-50 -21t-50 21t-21 51v61zM245 273v113l-70 -113h70zM20 231q0 -4 2 -6
q2 -4 6 -4q7 0 13 8q6 7 6 15q0 4 -3 6q-3 3 -6 3q-9 0 -14 -9q-4 -6 -4 -13zM272 604q5 0 10 5l4 5l4 5l5 4l6 4q7 5 7 11q0 14 -12 14q-10 0 -23 -12t-13 -25q0 -11 12 -11z" />
            <glyph glyph-name="five" unicode="5" horiz-adv-x="433"
                   d="M310 668q29 0 50 -20q20 -21 20 -50t-20 -50q-21 -20 -50 -20h-114l-6 -97q17 2 26 2q76 0 133 -54q64 -61 64 -161q0 -92 -62 -157q-61 -63 -142 -63q-85 0 -144 55q-55 52 -55 120q0 28 23 47q22 19 55 19q45 0 53 -36q6 -28 18 -43q18 -22 50 -22q25 0 45 23
q21 23 21 55q0 40 -22 65q-23 25 -62 25q-14 0 -45 -5l-11 -3l-11 -1q-10 -2 -16 -2q-30 0 -49 19q-21 21 -21 60v14l17 216q2 29 23 47q19 17 46 17h186zM245 112q13 0 31 16q19 17 19 31q0 11 -10 11q-2 0 -4 -1q-3 -1 -4 -4q-4 -7 -19 -20l-7 -5l-8 -5q-8 -6 -8 -11
q0 -12 10 -12zM84 605q5 0 10 5l4 5l4 5l5 4l6 4q7 5 7 11q0 14 -12 14q-10 0 -23 -12t-13 -25q0 -11 12 -11zM39 210q-9 -8 -9 -15q0 -9 9 -9q5 0 16 9q10 8 10 13q0 10 -11 10q-6 0 -15 -8z" />
            <glyph glyph-name="six" unicode="6" horiz-adv-x="450"
                   d="M76 62q-56 62 -56 160q0 121 55 239q35 76 97 142q64 67 103 67q32 0 52 -21q19 -21 19 -52q0 -27 -42 -65l-18 -16l-19 -17q-21 -21 -33 -40q-9 -14 -18 -32q13 3 24 3q80 0 133 -59q55 -60 56 -157q1 -89 -60 -153q-61 -63 -145 -63q-91 0 -148 64zM172 157
q20 -25 52 -25q31 0 51 24t20 60t-20 60t-51 24q-32 0 -52 -25q-19 -24 -19 -59t19 -59zM241 614l6 5l8 5q22 14 22 19q0 13 -11 13q-8 0 -26 -11q-20 -13 -20 -22q0 -5 3 -9t7 -4q5 0 11 4zM270 111q13 0 28 15q17 17 17 29q0 10 -12 10q-5 0 -18 -17q-4 -5 -10 -10l-4 -3
l-4 -3q-7 -6 -7 -13q0 -8 10 -8z" />
            <glyph glyph-name="seven" unicode="7" horiz-adv-x="389"
                   d="M217 528h-147q-29 0 -50 20q-20 21 -20 50t20 50q21 20 50 20h249q41 0 60 -34q16 -29 4 -68l-160 -508q-10 -31 -32 -46q-18 -12 -41 -12q-37 0 -59 30q-22 29 -11 65zM94 99l-1 -3q-1 -5 -1 -8q0 -10 8 -10t11 7q4 10 4 18q0 3 -3 6q-2 3 -6 3q-3 0 -7 -3q-2 -3 -4 -7z
M42 615l6 6q3 4 7 7l3 2l4 3q5 3 5 7q0 12 -12 12q-10 0 -22 -10q-13 -12 -13 -23q0 -5 2 -8q2 -4 7 -4q7 0 13 8z" />
            <glyph glyph-name="eight" unicode="8" horiz-adv-x="438"
                   d="M89 616q54 54 130 54t130 -54q54 -55 54 -132q0 -85 -63 -140q76 -58 76 -152q0 -80 -58 -137q-57 -57 -139 -57t-139 57q-58 57 -58 137q0 94 75 153q-62 55 -62 139q0 77 54 132zM174 156q18 -22 45 -22t45 22q18 21 18 51t-18 52q-18 21 -45 21t-45 -21
q-18 -22 -18 -52t18 -51zM177 425q17 -19 42 -19t42 19q16 19 16 47t-16 47q-17 20 -42 20t-42 -20q-16 -19 -16 -47t16 -47zM84 543l2 3l2 3q29 53 86 76q9 4 9 11q0 5 -2 9q-3 4 -8 4q-12 0 -33 -11q-20 -11 -33 -23q-16 -15 -28 -33q-15 -20 -16 -32q-2 -16 14 -12
q3 1 7 5zM281 121q22 18 22 33q0 9 -9 9q-7 0 -13 -8q-8 -11 -13 -15q-7 -6 -19 -12l-3 -2l-3 -2q-4 -3 -4 -8q0 -11 10 -11q12 0 32 16zM280 394q18 16 18 28q0 9 -12 9q-5 0 -8 -4l-5 -6l-5 -6q-7 -7 -16 -12l-3 -2l-3 -2q-4 -3 -4 -8q0 -11 10 -11t28 14z" />
            <glyph glyph-name="nine" unicode="9" horiz-adv-x="444"
                   d="M77 607q57 63 143 63q95 0 152 -78q52 -71 52 -172q0 -175 -126 -334q-69 -88 -121 -88q-29 0 -49 21q-19 20 -19 49q0 28 40 68l18 17l17 17q20 22 31 41q5 8 9 18l6 16q-16 -3 -33 -3q-78 0 -127 60q-50 60 -50 152q0 90 57 153zM169 396q20 -25 51 -25t51 25
q20 24 20 59t-20 59q-20 25 -51 25t-51 -25q-20 -24 -20 -59t20 -59zM69 525l4 6l2 6q24 59 78 83q6 3 12 7q6 5 6 9q0 10 -10 10q-12 0 -35 -15q-20 -13 -35 -28q-43 -45 -43 -75q0 -9 11 -9q6 0 10 6zM265 344q9 0 27 17q21 19 21 34q0 3 -3 7q-3 3 -7 3q-10 0 -14 -8
q-8 -15 -28 -28q-10 -7 -9 -17q2 -8 13 -8zM151 86q5 8 5 17q0 8 -9 8q-5 0 -13 -9q-7 -8 -7 -15q0 -10 10 -10q8 0 14 9z" />
            <glyph glyph-name="colon" unicode=":" horiz-adv-x="196"
                   d="M47 125q21 21 51 21t52 -21q21 -22 21 -52t-21 -51q-22 -22 -52 -22t-51 22q-22 21 -22 51t22 52zM49 85q4 -2 9 -1q2 1 13 13l5 4l5 4q6 6 5 13q-2 10 -13 8q-7 -1 -17 -12q-12 -11 -12 -19q0 -7 5 -10zM49 339q4 -2 9 -1q2 1 13 13l5 4l5 4q6 6 5 13q-2 10 -13 8
q-7 -1 -17 -12q-12 -11 -12 -19q0 -7 5 -10zM47 379q21 21 51 21t52 -21q21 -22 21 -52t-21 -51q-22 -22 -52 -22t-51 22q-22 21 -22 51t22 52z" />
            <glyph glyph-name="semicolon" unicode=";" horiz-adv-x="201"
                   d="M63 339q4 -2 9 -1q2 1 13 13l5 4l5 4q6 6 5 13q-2 10 -13 8q-7 -1 -17 -12q-12 -11 -12 -19q0 -7 5 -10zM61 379q21 21 51 21t52 -21q21 -22 21 -52t-21 -51q-22 -22 -52 -22t-51 22q-22 21 -22 51t22 52zM42 95q15 51 66 51q29 0 48 -20q20 -19 20 -48q0 -8 -2 -18
l-33 -109q-14 -51 -66 -51q-31 0 -53 26q-23 26 -14 56zM62 86q5 -3 9 -1q2 1 9 9l5 6l6 6q7 6 6 13q-2 10 -13 8q-6 -1 -16 -12q-11 -11 -11 -19q0 -7 5 -10z" />
            <glyph glyph-name="less" unicode="&#x3c;" horiz-adv-x="409"
                   d="M57 372l226 130q23 13 48 6q26 -7 39 -29q13 -23 6 -49t-29 -39l-134 -77l134 -77q22 -13 29 -39t-6 -49q-13 -22 -39 -29q-25 -7 -48 6l-226 130q-37 20 -37 58q0 37 37 58zM45 324q4 -2 9 -1q2 1 13 13q1 2 5 4l6 3q6 5 5 12q-2 10 -13 8q-7 -1 -18 -11
q-12 -10 -12 -18q0 -7 5 -10z" />
            <glyph glyph-name="equal" unicode="=" horiz-adv-x="390"
                   d="M39 443q19 19 45 19h222q26 0 45 -19t19 -45t-19 -45t-45 -19h-222q-26 0 -45 19t-19 45t19 45zM44 407q4 -2 9 -1q2 1 13 13l5 4l5 4q6 6 5 13q-2 10 -13 8q-7 -1 -17 -12q-12 -11 -12 -19q0 -7 5 -10zM39 283q19 19 45 19h222q26 0 45 -19t19 -45t-19 -45t-45 -19h-222
q-26 0 -45 19t-19 45t19 45zM44 247q4 -2 9 -1q2 1 13 13l5 4l5 4q6 6 5 13q-2 10 -13 8q-7 -1 -17 -12q-12 -11 -12 -19q0 -7 5 -10z" />
            <glyph glyph-name="greater" unicode="&#x3e;" horiz-adv-x="409"
                   d="M352 256l-226 -130q-23 -13 -48 -6q-26 7 -39 29q-13 23 -6 49t29 39l134 77l-134 77q-22 13 -29 39t6 49q13 22 39 29q25 7 48 -6l226 -130q37 -21 37 -58q0 -38 -37 -58zM54 455q4 -2 9 -1q2 1 13 13q1 2 5 4l6 3q6 5 5 12q-2 10 -13 8q-7 -1 -18 -11q-12 -10 -12 -18
q0 -7 5 -10z" />
            <glyph glyph-name="question" unicode="?" horiz-adv-x="384"
                   d="M179 192q-27 0 -47 20q-21 23 -21 59q0 104 68 159l16 11l15 12q17 14 17 32q0 20 -14 34q-13 13 -30 13q-16 0 -26 -8l-9 -9l-8 -9q-24 -27 -57 -27q-24 0 -45 19q-23 20 -23 48q0 42 49 82q52 42 118 42q76 0 132 -52q55 -51 55 -120q0 -61 -29 -102q-11 -15 -31 -34
l-18 -16l-19 -18q-21 -20 -21 -64q0 -72 -72 -72zM214 423q3 -4 8 -4q8 0 18 9q10 8 9 17q-1 7 -6 9q-5 1 -9 -1q-1 -1 -5 -4l-4 -4l-4 -3q-10 -10 -10 -13t3 -6zM122 644l-6 -2q-8 -3 -16 -7q-24 -13 -41 -31q-15 -16 -21 -27q-2 -4 -2 -7l-1 -2v-1q0 -10 10 -10q5 0 13 10
q27 37 73 56q12 5 9 14q-1 5 -6 7q-4 2 -9 1q-1 0 -3 -1zM135 85q4 -2 9 -1q2 1 13 13l5 4l5 4q6 6 5 13q-2 10 -13 8q-7 -1 -17 -12q-12 -11 -12 -19q0 -7 5 -10zM133 125q21 21 51 21t52 -21q21 -22 21 -52t-21 -51q-22 -22 -52 -22t-51 22q-22 21 -22 51t22 52z" />
            <glyph glyph-name="at" unicode="@" horiz-adv-x="846"
                   d="M460 391q2 12 -6 22q-10 9 -25 9q-39 0 -54 -88q-14 -88 26 -88q37 0 41 31zM316 427q2 -2 5 -2q7 0 13 9q18 26 31 35q15 12 32 17q13 5 14 13q0 8 -7 8q-21 0 -50 -20q-14 -10 -27 -27q-11 -17 -13 -28q-1 -3 2 -5zM439 229q7 6 8 10q1 3 -1 7t-4 4t-6 -3l-3 -2l-3 -2
q-12 -7 -12 -9q-1 -3 2 -6q2 -4 6 -4q5 0 13 5zM560 318l-1 -7l-1 -8l-2 -17q-1 -21 5 -36q14 -40 75 -40q49 0 77 44q25 39 25 96q0 123 -82 205q-84 83 -214 83q-131 0 -220 -87q-88 -87 -88 -214q0 -130 93 -220q93 -89 226 -89q94 0 185 52q10 6 18 6q27 0 27 -27
q0 -15 -13 -23q-40 -25 -78 -40q-73 -30 -160 -30q-168 0 -280 105q-112 104 -112 260q0 158 113 264q113 105 281 105q165 0 269 -95q103 -96 103 -248q0 -97 -52 -159q-52 -61 -135 -61q-65 0 -107 30q-21 14 -29 29q-39 -53 -107 -53q-75 0 -100 63q-18 47 -8 128
q26 190 160 190q37 0 63 -20q9 8 20 13q14 6 26 6q23 0 36 -16q14 -17 10 -40z" />
            <glyph glyph-name="A" unicode="A" horiz-adv-x="447"
                   d="M141 605q18 67 82 67t82 -67l144 -517q3 -9 3 -17q0 -30 -21 -50q-21 -21 -51 -21q-58 0 -70 56l-17 74h-139l-18 -74q-14 -56 -70 -56q-30 0 -50 21q-21 20 -21 50q0 8 3 17zM185 258h77l-39 160zM16 103q-1 -4 2 -7q3 -5 9 -5q7 0 9 5l6 19q1 4 -2 7q-4 3 -9 3
q-3 0 -6 -1t-4 -3zM170 616q3 -5 10 -5q4 0 9 5l5 5l6 5l16 16q0 14 -11 14q-9 0 -23 -11t-14 -19q0 -6 2 -10z" />
            <glyph glyph-name="B" unicode="B" horiz-adv-x="461"
                   d="M113 0q-73 0 -73 65v537q0 66 73 66h117q70 0 123 -51q56 -53 56 -131q0 -53 -28 -98q-15 -22 -29 -34q22 -12 45 -39q44 -52 44 -121q0 -84 -57 -139q-58 -55 -147 -55h-124zM192 275q-6 0 -6 -5v-127q0 -6 6 -6h46q25 0 40 18q16 17 16 44q0 31 -20 54q-20 22 -48 22
h-34zM186 419q0 -6 6 -6h30q23 0 37 17q12 15 12 36q0 65 -54 65h-25q-6 0 -6 -6v-106zM299 125q20 17 20 29q0 4 -3 7q-4 4 -8 4q-6 0 -14 -11l-4 -5l-4 -5q-6 -5 -13 -9l-4 -2l-3 -2q-5 -4 -5 -9q0 -4 4 -8q3 -4 6 -4q9 0 28 15zM274 393q16 12 16 24q0 4 -3 7q-4 4 -8 4
q-5 0 -9 -6l-3 -3l-3 -3q-5 -4 -12 -8l-4 -2l-3 -2q-5 -4 -5 -9q0 -4 4 -8q3 -4 6 -4q9 0 24 10zM80 615l5 6q3 4 7 7l3 2l4 3q5 3 5 7q0 12 -12 12q-11 0 -22 -10q-12 -11 -12 -23q0 -5 2 -8q2 -4 7 -4q7 0 13 8z" />
            <glyph glyph-name="C" unicode="C" horiz-adv-x="459"
                   d="M68 109q-38 80 -38 225q0 147 40 228q53 108 180 108q80 0 134 -54q48 -48 48 -100q0 -29 -21 -50q-21 -20 -49 -20q-42 0 -68 50q-20 37 -49 37q-49 0 -64 -60q-10 -38 -10 -139q0 -106 10 -143q16 -57 67 -57q46 0 52 42q8 62 69 62q32 0 52 -19t20 -50q0 -67 -50 -116
q-56 -55 -144 -55q-126 0 -179 111zM336 215q-13 -9 -13 -20q0 -4 3 -8q4 -4 8 -3q1 0 17 12l5 3l5 3q5 3 5 9q0 12 -10 12q-9 0 -20 -8zM95 527l3 4l1 3q19 37 45 59q10 8 22 15l10 6l9 4l6 3l6 3q7 5 7 12q0 12 -10 12q-12 0 -33 -11t-35 -24q-18 -16 -33 -39
q-17 -26 -17 -42q0 -3 3 -6q4 -3 9 -3q3 0 7 4z" />
            <glyph glyph-name="D" unicode="D" horiz-adv-x="485"
                   d="M40 602q0 66 73 66h137q109 0 164 -111q44 -89 44 -223q0 -48 -7 -95q-9 -62 -29 -110q-54 -129 -172 -129h-137q-73 0 -73 65v537zM196 528q-9 0 -10 -4v-380q1 -4 10 -4h37q48 0 69 76q7 28 11 64q2 27 2 54q0 31 -2 57q-4 37 -11 64q-21 73 -69 73h-37zM80 615l5 6
q3 4 7 7l3 2l4 3q5 3 5 7q0 12 -12 12q-11 0 -22 -10q-12 -11 -12 -23q0 -5 2 -8q2 -4 7 -4q7 0 13 8zM299 129q21 19 21 34q0 10 -11 10q-5 0 -9 -3l-3 -3l-2 -3q-7 -10 -12 -15q-7 -9 -16 -14l-3 -2l-4 -2q-4 -3 -4 -8q0 -12 12 -12t31 18z" />
            <glyph glyph-name="E" unicode="E" horiz-adv-x="383"
                   d="M40 603q0 65 73 65h181q29 0 50 -20q20 -21 20 -50t-20 -50q-21 -20 -50 -20h-108v-111h97q29 0 50 -20q20 -21 20 -50t-20 -50q-21 -20 -50 -20h-97v-137h122q29 0 50 -20q20 -21 20 -50t-20 -50q-21 -20 -50 -20h-195q-73 0 -73 65v538zM80 615l5 6q3 4 7 7l3 2l4 3
q5 3 5 7q0 12 -12 12q-11 0 -22 -10q-12 -11 -12 -23q0 -5 2 -8q2 -4 7 -4q7 0 13 8z" />
            <glyph glyph-name="F" unicode="F" horiz-adv-x="378"
                   d="M40 603q0 65 73 65h195q29 0 50 -20q20 -21 20 -50t-20 -50q-21 -20 -50 -20h-122v-111h97q29 0 50 -20q20 -21 20 -50t-20 -50q-21 -20 -50 -20h-97v-211q0 -65 -73 -65t-73 65v537zM80 615l5 6q3 4 7 7l3 2l4 3q5 3 5 7q0 12 -12 12q-11 0 -22 -10q-12 -11 -12 -23
q0 -5 2 -8q2 -4 7 -4q7 0 13 8z" />
            <glyph glyph-name="G" unicode="G" horiz-adv-x="472"
                   d="M298 144v127q-77 10 -77 73q0 33 20 53t50 20h78q30 0 49 -19q19 -20 19 -52v-246q0 -54 -71 -82q-28 -10 -63 -16q-29 -4 -56 -4q-126 0 -179 111q-38 80 -38 225t43 228q55 108 183 108q62 0 99 -21q36 -22 36 -58q0 -28 -19 -49q-18 -22 -43 -22q-8 0 -16 2l-6 3l-7 3
q-20 7 -41 7q-88 0 -88 -201q0 -106 10 -143q16 -57 67 -57q29 0 50 10zM248 387q-10 -12 -8 -23q2 -10 10 -7l14 15l4 4l5 4q4 4 3 10q-1 7 -9 7q-9 0 -19 -10zM98 527l2 4l1 3q19 37 43 59q10 8 21 15q7 5 18 10l6 3l7 3q7 5 7 11q0 12 -10 12q-11 0 -32 -12
q-19 -11 -34 -24q-17 -16 -32 -38q-16 -26 -16 -42q0 -3 3 -6q4 -3 9 -3q3 0 7 5z" />
            <glyph glyph-name="H" unicode="H" horiz-adv-x="484"
                   d="M298 277h-112v-212q0 -65 -73 -65t-73 65v537q0 66 73 66t73 -66v-185h112v185q0 66 73 66t73 -66v-537q0 -65 -73 -65t-73 65v212zM337 615l5 6q3 4 7 7l3 2l4 3q5 3 5 7q0 12 -12 12q-11 0 -22 -10q-12 -11 -12 -23q0 -5 2 -8q2 -4 7 -4q7 0 13 8zM80 615l5 6q3 4 7 7
l3 2l4 3q5 3 5 7q0 12 -12 12q-11 0 -22 -10q-12 -11 -12 -23q0 -5 2 -8q2 -4 7 -4q7 0 13 8z" />
            <glyph glyph-name="I" unicode="I" horiz-adv-x="226"
                   d="M40 602q0 66 73 66t73 -66v-537q0 -65 -73 -65t-73 65v537zM80 615l5 6q3 4 7 7l3 2l4 3q5 3 5 7q0 12 -12 12q-11 0 -22 -10q-12 -11 -12 -23q0 -5 2 -8q2 -4 7 -4q7 0 13 8z" />
            <glyph glyph-name="J" unicode="J" horiz-adv-x="414"
                   d="M230 602q0 66 73 66t73 -66v-419q0 -75 -53 -130t-128 -55q-81 0 -138 56q-52 51 -52 112q0 29 17 50q19 23 50 23q34 0 44 -25l5 -12l4 -13q5 -14 10 -22q15 -22 47 -22q19 0 33 12q15 12 15 32v413zM270 615l5 6q3 4 7 7l3 2l4 3q5 3 5 7q0 12 -12 12q-11 0 -22 -10
q-12 -11 -12 -23q0 -5 2 -8q2 -4 7 -4q7 0 13 8zM38 215q-8 -9 -8 -20q0 -3 2 -6q3 -4 6 -4q4 0 8 5l3 4q2 2 5 3q10 3 10 13q0 12 -11 12q-8 0 -15 -7zM236 158l-5 -6q-4 -5 -7 -8q-4 -3 -8 -5l-3 -2l-3 -2q-5 -3 -5 -9q0 -12 12 -12q11 0 25 13q16 14 16 26q0 5 -2 8
q-2 4 -7 4q-7 0 -13 -7z" />
            <glyph glyph-name="K" unicode="K" horiz-adv-x="457"
                   d="M40 602q0 66 73 66t73 -66v-142l109 177q19 31 58 31q28 0 54 -20q26 -22 26 -49q0 -12 -8 -26l-125 -203l143 -266q19 -35 -3 -69q-22 -35 -64 -35q-44 0 -62 35l-101 193l-27 -43v-120q0 -65 -73 -65t-73 65v537zM80 615l5 6q3 4 7 7l3 2l4 3q5 3 5 7q0 12 -12 12
q-11 0 -22 -10q-12 -11 -12 -23q0 -5 2 -8q2 -4 7 -4q7 0 13 8zM329 618l5 6q3 3 7 6l3 2l4 3q5 4 5 8q0 11 -12 11q-11 0 -21 -9q-12 -9 -12 -21q0 -5 2 -8q2 -4 7 -4q7 0 12 6z" />
            <glyph glyph-name="L" unicode="L" horiz-adv-x="374"
                   d="M40 602q0 66 73 66t73 -66v-462h118q29 0 50 -20q20 -21 20 -50t-20 -50q-21 -20 -50 -20h-191q-73 0 -73 65v537zM80 615l5 6q3 4 7 7l3 2l4 3q5 3 5 7q0 12 -12 12q-11 0 -22 -10q-12 -11 -12 -23q0 -5 2 -8q2 -4 7 -4q7 0 13 8z" />
            <glyph glyph-name="M" unicode="M" horiz-adv-x="646"
                   d="M469 629q20 39 64 39q73 0 73 -66v-537q0 -65 -73 -65t-73 65v257l-74 -148q-20 -38 -63 -38q-45 0 -63 38l-74 148v-257q0 -65 -73 -65t-73 65v537q0 66 73 66q44 0 64 -39l146 -282zM80 615l5 6q3 4 7 7l3 2l4 3q5 3 5 7q0 12 -12 12q-11 0 -22 -10q-12 -11 -12 -23
q0 -5 2 -8q2 -4 7 -4q7 0 13 8zM505 615l5 6q3 4 7 7l3 2l4 3q5 3 5 7q0 12 -12 12q-11 0 -22 -10q-12 -11 -12 -23q0 -5 2 -8q2 -4 7 -4q7 0 13 8z" />
            <glyph glyph-name="N" unicode="N" horiz-adv-x="504"
                   d="M186 312v-247q0 -65 -73 -65t-73 65v537q0 66 73 66q24 0 41 -12q14 -10 23 -26l141 -276v248q0 66 73 66t73 -66v-537q0 -65 -73 -65q-45 0 -67 42zM80 615l5 6q3 4 7 7l3 2l4 3q5 3 5 7q0 12 -12 12q-11 0 -22 -10q-12 -11 -12 -23q0 -5 2 -8q2 -4 7 -4q7 0 13 8z
M358 615l5 6q3 4 7 7l3 2l4 3q5 3 5 7q0 12 -12 12q-11 0 -22 -10q-12 -11 -12 -23q0 -5 2 -8q2 -4 7 -4q7 0 13 8z" />
            <glyph glyph-name="O" unicode="O" horiz-adv-x="492"
                   d="M447 166q-21 -79 -76 -124q-54 -44 -125 -44t-125 44q-55 45 -76 124q-15 58 -15 168t15 168q21 79 76 125q54 43 125 43t125 -43q55 -46 76 -125q15 -58 15 -168t-15 -168zM95 527l3 4l1 3q19 37 45 58q10 9 21 15l10 6l9 4l6 3l6 3q7 5 7 12q0 5 -2 9q-3 4 -8 4
q-12 0 -33 -11q-21 -12 -34 -24q-19 -18 -33 -39q-19 -26 -19 -42q0 -3 4 -6q5 -3 10 -3q3 0 7 4zM316 123q23 20 23 35q0 10 -12 10q-5 0 -9 -3l-3 -4l-2 -3q-13 -20 -32 -29l-3 -2l-3 -2q-4 -3 -4 -8q0 -13 12 -13t33 19zM181 185q16 -50 65 -50t65 50q12 38 12 149
t-12 149q-16 50 -65 50t-65 -50q-12 -38 -12 -149t12 -149z" />
            <glyph glyph-name="P" unicode="P" horiz-adv-x="432"
                   d="M40 602q0 66 73 66h120q78 0 129 -56q52 -57 52 -146q0 -79 -45 -134q-49 -59 -128 -59h-55v-208q0 -65 -73 -65t-73 65v537zM226 410q23 0 38 18q13 17 13 39q0 26 -13 44q-14 20 -41 20h-31q-6 0 -6 -6v-109q0 -6 6 -6h34zM283 395q15 13 15 25q0 4 -3 7q-4 4 -8 4
q-5 0 -10 -7l-2 -4l-4 -4q-4 -4 -10 -8l-4 -2l-3 -2q-5 -4 -5 -9q0 -4 4 -8q3 -4 6 -4q9 0 24 12zM80 615l5 6q3 4 7 7l3 2l4 3q5 3 5 7q0 12 -12 12q-11 0 -22 -10q-12 -11 -12 -23q0 -5 2 -8q2 -4 7 -4q7 0 13 8z" />
            <glyph glyph-name="Q" unicode="Q" horiz-adv-x="492"
                   d="M447 166q-11 -43 -36 -81l16 -22q14 -17 14 -38q0 -25 -18 -42q-17 -18 -42 -18q-30 0 -51 28l-13 17q-33 -12 -71 -12q-71 0 -125 44q-55 45 -76 124q-15 58 -15 168t15 168q21 79 76 125q54 43 125 43t125 -43q55 -46 76 -125q15 -58 15 -168t-15 -168zM178 197
q11 -49 45 -59q-11 14 -11 36q0 25 18 42q17 18 42 18q27 0 45 -21q6 37 6 121q0 111 -12 149q-16 50 -65 50t-65 -50q-12 -38 -12 -149q0 -98 9 -137zM95 527l3 4l1 3q19 37 45 58q10 9 21 15l10 6l9 4l6 3l6 3q7 5 7 12q0 5 -2 9q-3 4 -8 4q-12 0 -33 -11q-21 -12 -34 -24
q-19 -18 -33 -39q-19 -26 -19 -42q0 -3 4 -6q5 -3 10 -3q3 0 7 4z" />
            <glyph glyph-name="R" unicode="R" horiz-adv-x="454"
                   d="M398 355q-24 -37 -65 -62l102 -189q19 -35 -3 -69q-22 -35 -64 -35q-44 0 -62 35l-120 230v-200q0 -65 -73 -65t-73 65v537q0 66 73 66h135q71 0 125 -56q56 -59 56 -144q0 -65 -31 -113zM186 405q0 -6 6 -6h43q26 0 42 19q15 17 15 45q0 29 -17 49q-16 19 -40 19h-43
q-6 0 -6 -6v-120zM273 374q6 1 14 5q10 5 16 12q13 15 15 26q2 15 -10 15q-5 0 -10 -8q-4 -7 -7 -11q-4 -6 -9 -10q-3 -3 -7 -5l-5 -2l-3 -2q-7 -3 -7 -10q0 -12 13 -10zM80 615l5 6q3 4 7 7l3 2l4 3q5 3 5 7q0 12 -12 12q-11 0 -22 -10q-12 -11 -12 -23q0 -5 2 -8
q2 -4 7 -4q7 0 13 8z" />
            <glyph glyph-name="S" unicode="S" horiz-adv-x="436"
                   d="M356 61q-58 -63 -149 -63q-84 0 -145 61q-52 53 -52 105q0 26 19 47q21 23 51 23q45 0 67 -48q25 -54 64 -54q25 0 45 18q20 20 20 48q0 46 -31 70q-18 14 -75 33q-142 48 -142 192q0 69 55 123q56 54 132 54q48 0 90 -23q75 -40 75 -94q0 -32 -21 -51q-20 -18 -48 -18
q-30 0 -52 24q-26 26 -42 26q-22 0 -38 -17q-14 -16 -14 -34q0 -33 38 -53q13 -7 35 -14l17 -6l17 -6q139 -53 139 -194q0 -88 -55 -149zM242 108q3 -3 6 -3q15 0 36 20q21 19 21 34q0 14 -12 14q-6 0 -12 -10l-3 -5l-4 -5q-5 -8 -10 -13l-8 -6l-9 -7q-10 -7 -8 -14
q1 -3 3 -5zM68 529q3 0 7 5l2 4l2 3l12 20q7 12 15 21q20 22 52 35q16 6 16 20q0 3 -4 5q-3 2 -7 2q-32 0 -71 -40q-37 -38 -37 -59q0 -16 13 -16zM43 207q-10 -10 -10 -19q0 -8 8 -8q9 0 19 10l4 3l4 4q4 3 4 9q0 12 -12 10q-8 -1 -17 -9z" />
            <glyph glyph-name="T" unicode="T" horiz-adv-x="402"
                   d="M273 528v-463q0 -65 -73 -65t-73 65v463h-57q-29 0 -50 20q-20 21 -20 50t20 50q21 20 50 20h262q29 0 50 -20q20 -21 20 -50t-20 -50q-21 -20 -50 -20h-59zM42 615l6 6q3 4 7 7l3 2l4 3q5 3 5 7q0 12 -12 12q-10 0 -22 -10q-13 -12 -13 -23q0 -5 2 -8q2 -4 7 -4
q7 0 13 8z" />
            <glyph glyph-name="U" unicode="U" horiz-adv-x="482"
                   d="M78 615l5 6q3 4 7 7l3 2l4 3q5 3 5 7q0 12 -12 12q-11 0 -22 -10q-12 -11 -12 -23q0 -5 2 -8q2 -4 7 -4q7 0 13 8zM444 201q0 -84 -59 -143q-60 -60 -144 -60t-143 60q-60 59 -60 143v401q0 66 73 66t73 -66v-405q0 -23 17 -40t40 -17t40 17t17 40v405q0 66 73 66t73 -66
v-401zM338 615l5 6q3 4 7 7l3 2l4 3q5 3 5 7q0 12 -12 12q-11 0 -22 -10q-12 -11 -12 -23q0 -5 2 -8q2 -4 7 -4q7 0 13 8zM305 125q18 15 18 24q0 13 -12 13q-6 0 -12 -6l-5 -7l-6 -6l-8 -5l-7 -5q-9 -5 -9 -12q0 -11 12 -11q11 0 29 15z" />
            <glyph glyph-name="V" unicode="V" horiz-adv-x="446"
                   d="M149 66l-149 501l-2 6l-1 7q-2 8 -2 16q0 28 20 50q22 22 53 22q24 0 44 -15q20 -14 25 -35l86 -319l86 319q5 21 25 35q20 15 44 15q31 0 53 -22q20 -22 20 -50q0 -8 -2 -16l-1 -7l-2 -6l-149 -501q-20 -66 -74 -66t-74 66zM39 614l5 6q3 4 7 7l3 2l4 3q5 3 5 7
q0 12 -12 12q-11 0 -22 -10q-12 -11 -12 -23q0 -5 2 -8q2 -4 7 -4q7 0 13 8zM349 614l5 6q3 4 7 7l3 2l4 3q5 3 5 7q0 12 -12 12q-11 0 -22 -10q-12 -11 -12 -23q0 -5 2 -8q2 -4 7 -4q7 0 13 8z" />
            <glyph glyph-name="W" unicode="W" horiz-adv-x="658"
                   d="M518 54q-15 -54 -67 -54q-51 0 -68 52l-54 161l-54 -161q-16 -52 -68 -52t-67 54l-140 515l-2 6l-1 7q-2 7 -2 13q0 29 22 51q23 22 54 22q54 0 67 -52l83 -331l54 163q14 41 54 41t54 -41l54 -163l83 331q13 52 67 52q31 0 54 -22q22 -22 22 -51q0 -6 -2 -13l-1 -7
l-2 -6zM39 612l5 6q3 4 7 7l3 2l4 3q5 3 5 7q0 12 -12 12q-11 0 -22 -10q-12 -11 -12 -23q0 -5 2 -8q2 -4 7 -4q7 0 13 8zM560 615l5 6q3 4 7 7l3 2l4 3q5 3 5 7q0 12 -12 12q-11 0 -22 -10q-12 -11 -12 -23q0 -5 2 -8q2 -4 7 -4q7 0 13 8zM312 441l4 6q3 3 7 6l3 2l4 2
q5 4 5 7q0 12 -12 12q-11 0 -21 -9q-11 -9 -11 -21q0 -5 2 -8q2 -4 7 -4q7 0 12 7z" />
            <glyph glyph-name="X" unicode="X" horiz-adv-x="471"
                   d="M235 488l73 141q4 7 9 12q6 8 13 13q18 14 43 14q31 0 52 -22q21 -21 21 -52q0 -19 -7 -32l-108 -209l126 -244q9 -16 9 -37q0 -29 -21 -50q-21 -22 -53 -22q-27 0 -48 19q-7 7 -13 15l-4 6l-2 3l-1 2l-89 173l-88 -173l-1 -2l-2 -3l-4 -6q-6 -8 -13 -15q-21 -19 -48 -19
q-32 0 -53 22q-21 21 -21 50q0 21 9 37l126 244l-108 209q-7 13 -7 32q0 31 21 52q21 22 52 22q25 0 43 -14q7 -5 13 -13q5 -5 9 -12zM345 615l5 6q3 4 7 7l3 2l4 3q5 3 5 7q0 12 -12 12q-11 0 -22 -10q-12 -11 -12 -23q0 -5 2 -8q2 -4 7 -4q7 0 13 8zM71 615l5 6q3 4 7 7
l3 2l4 3q5 3 5 7q0 12 -12 12q-11 0 -22 -10q-12 -11 -12 -23q0 -5 2 -8q2 -4 7 -4q7 0 13 8z" />
            <glyph glyph-name="Y" unicode="Y"
                   d="M140 244l-136 317l-3 7l-3 8q-3 11 -3 18q0 32 21 53t53 21q52 0 66 -40l78 -211l78 211q14 40 66 40q32 0 53 -21t21 -53q0 -7 -3 -18l-3 -8l-3 -7l-136 -317v-179q0 -65 -73 -65t-73 65v179zM38 614l5 6q3 4 7 7l3 2l4 3q5 3 5 7q0 12 -12 12q-11 0 -22 -10
q-12 -11 -12 -23q0 -5 2 -8q2 -4 7 -4q7 0 13 8zM325 614l4 6q3 4 7 7l3 2l4 3q5 3 5 7q0 12 -12 12q-10 0 -21 -10q-11 -11 -11 -23q0 -5 2 -8q2 -4 7 -4q7 0 12 8z" />
            <glyph glyph-name="Z" unicode="Z" horiz-adv-x="405"
                   d="M88 0q-30 0 -54 23q-24 22 -24 50q0 15 6 28l183 427h-102q-29 0 -50 20q-20 21 -20 50t20 50q21 20 50 20h214q27 0 49 -21q22 -22 22 -49q0 -16 -6 -29l-185 -429h139q29 0 50 -20q20 -21 20 -50t-20 -50q-21 -20 -50 -20h-242zM69 615l6 6q3 4 7 7l3 2l4 3q5 3 5 7
q0 12 -12 12q-10 0 -22 -10q-13 -12 -13 -23q0 -5 2 -8q2 -4 7 -4q7 0 13 8zM52 98l2 5l3 4q2 4 2 8q0 3 -2 5q-3 3 -8 3q-11 0 -16 -15q-5 -11 -5 -15q0 -9 7 -9q11 0 17 14z" />
            <glyph glyph-name="bracketleft" unicode="[" horiz-adv-x="290"
                   d="M40 624q0 27 20 47q20 19 50 19h112q26 0 45 -18q18 -19 18 -45t-18 -45q-19 -18 -45 -18h-48v-528h48q26 0 45 -18q18 -19 18 -45t-18 -45q-19 -18 -45 -18h-112q-30 0 -50 20q-20 19 -20 46v648zM82 637l5 6q3 4 7 7l3 2l4 3q5 3 5 7q0 12 -12 12q-11 0 -22 -10
q-12 -11 -12 -23q0 -5 2 -8q2 -4 7 -4q7 0 13 8z" />
            <glyph glyph-name="backslash" unicode="\" horiz-adv-x="325"
                   d="M46 613l1 5l2 6q1 2 4 5l3 4l4 4q6 8 -2 18q-9 10 -19 2l-2 -2l-4 -3q-4 -4 -7 -9q-9 -14 -6 -30q1 -7 8 -10q8 -4 14 2q3 3 4 8zM134 635l182 -553q11 -33 -9 -61q-20 -27 -53 -27q-47 0 -61 42l-182 551q-6 18 -6 32q0 26 20 45q20 17 46 17q48 0 63 -46z" />
            <glyph glyph-name="bracketright" unicode="]" horiz-adv-x="290"
                   d="M44 637l6 7q3 4 7 7l3 2l4 3q5 3 5 7q0 12 -12 12q-11 0 -23 -11t-12 -23q0 -5 2 -8q2 -4 7 -4q7 0 13 8zM44 -17l6 7q3 4 7 7l3 2l4 3q5 3 5 7q0 12 -12 12q-11 0 -23 -11t-12 -23q0 -5 2 -8q2 -4 7 -4q7 0 13 8zM250 -24q0 -27 -20 -46q-20 -20 -50 -20h-112
q-26 0 -45 18q-18 19 -18 45t18 45q19 18 45 18h48v528h-48q-26 0 -45 18q-18 19 -18 45t18 45q19 18 45 18h112q30 0 50 -19q20 -20 20 -47v-648z" />
            <glyph glyph-name="asciicircum" unicode="^" horiz-adv-x="362"
                   d="M120 431q-17 -16 -41 -16q-23 0 -39 17t-16 41q1 23 18 39l98 95q16 16 40 16t40 -16l98 -95q17 -16 18 -39q0 -24 -16 -41t-39 -17q-24 0 -41 16l-60 57zM49 473q5 -5 11 -3q3 1 8 9l4 6l5 5l4 3l5 4q6 5 6 11q0 12 -13 12q-8 0 -21 -12q-13 -13 -14 -23q-1 -8 5 -12z
" />
            <glyph glyph-name="underscore" unicode="_" horiz-adv-x="380"
                   d="M0 -270v95h380v-95h-380z" />
            <glyph glyph-name="grave" unicode="`" horiz-adv-x="183"
                   d="M154 622q11 -16 7 -36q-3 -20 -20 -32q-16 -11 -37 -7q-20 3 -31 20l-44 63q-12 17 -8 37t21 31q16 12 37 8q20 -3 31 -20zM37 657q3 -3 7 -3q5 0 8 6l2 5l3 4l3 3l3 3q3 3 3 7q0 10 -10 10q-7 0 -15 -10q-8 -9 -8 -17q0 -5 4 -8z" />
            <glyph glyph-name="a" unicode="a" horiz-adv-x="395"
                   d="M363 67q0 -28 -20 -47q-19 -20 -47 -20q-31 0 -50 22q-44 -23 -84 -23q-58 0 -100 40q-47 44 -47 115q0 124 112 164l103 37v7l-1 7q0 10 -3 18q-8 20 -30 20q-14 0 -37 -14t-39 -14q-28 0 -46 18t-18 44q0 39 31 61q45 32 113 32q66 0 112 -46q51 -51 51 -136v-285z
M229 227l-62 -22q-29 -10 -29 -41q0 -17 12 -30q12 -15 32 -15q19 0 33 16q14 15 14 34v58zM71 229q20 35 57 50l6 3l7 3q7 5 7 11q0 11 -11 11q-22 0 -57 -31q-37 -33 -37 -53q0 -5 4 -9q3 -3 6 -3q8 0 18 18zM212 100q3 -2 7 -2q9 0 19 9q9 8 9 17q0 5 -3 8t-6 3t-14 -11
l-6 -5l-6 -5q-4 -4 -4 -8t4 -6zM114 500q-9 0 -18 -7q-10 -7 -10 -16q0 -5 4 -7q3 -2 7 -2q5 0 10 5q3 3 6 5l6 4q5 3 5 9q0 9 -10 9z" />
            <glyph glyph-name="b" unicode="b"
                   d="M385 113q-18 -55 -63 -86q-44 -29 -104 -29q-89 0 -141 60q-42 49 -42 108v443q0 29 20 49q21 20 49 20q29 0 49 -20t20 -49v-86q30 11 57 11q55 0 96 -31q42 -31 59 -84q16 -49 16 -153t-16 -153zM173 165q0 -16 13 -27q13 -12 32 -12q31 0 42 34q9 29 9 106t-9 106
q-11 34 -42 34q-19 0 -32 -12q-13 -11 -13 -27v-202zM58 625q3 -4 8 -4q7 0 13 9q2 3 6 5l6 4q6 5 6 11q0 4 -4 8q-3 4 -7 4q-11 0 -22 -12q-4 -4 -7 -9q-2 -5 -2 -7q0 -5 3 -9zM266 104q14 13 16 22q2 11 -9 14q-6 2 -10 -4l-2 -3l-3 -3q-4 -4 -9 -8q-3 -2 -8 -5l-5 -1
l-3 -2q-4 -2 -5 -8q-1 -4 2 -7q2 -3 5 -4q13 -6 31 9z" />
            <glyph glyph-name="c" unicode="c" horiz-adv-x="384"
                   d="M42 123q-10 29 -14 73q-3 30 -3 70q0 37 3 69q4 42 14 74q16 54 60 89q46 36 106 36q65 0 111 -40q41 -36 41 -73q0 -25 -18 -45q-19 -21 -48 -21q-31 0 -55 31q-13 18 -34 18q-26 0 -36 -29q-11 -29 -11 -105q0 -142 52 -142q21 0 38 28q20 34 56 34q30 0 50 -20
q18 -18 18 -42q0 -45 -45 -86q-50 -44 -115 -44q-127 0 -170 125zM292 153q11 10 11 15q0 9 -12 9q-7 0 -16 -6q-9 -7 -9 -15q0 -12 12 -12q3 0 14 9zM75 414q8 0 13 12q10 20 36 43q8 7 21 14l11 5l12 5q16 5 16 14q0 10 -10 10q-28 0 -63 -29q-18 -15 -31 -32
q-15 -20 -16 -33q0 -9 11 -9z" />
            <glyph glyph-name="d" unicode="d"
                   d="M253 367q0 16 -13 27q-13 12 -32 12q-31 0 -42 -34q-9 -29 -9 -106t9 -106q11 -34 42 -34q19 0 32 12q13 11 13 27v202zM41 419q17 53 59 84q41 31 96 31q27 0 57 -11v86q0 29 20 49q21 20 49 20q29 0 49 -20t20 -49v-443q0 -59 -42 -108q-52 -60 -141 -60q-60 0 -104 29
q-45 31 -63 86q-16 49 -16 153t16 153zM276 625q3 -4 8 -4q7 0 13 9q2 3 6 5l6 4q6 5 6 11q0 4 -4 8q-3 4 -7 4q-11 0 -22 -12q-4 -4 -7 -9q-2 -5 -2 -7q0 -5 3 -9zM72 418q8 0 13 12q13 26 39 44q19 13 44 21q16 5 16 14q0 10 -10 10q-29 0 -60 -23q-19 -13 -35 -34
q-17 -21 -18 -35q0 -9 11 -9zM232 102q3 -4 8 -4q6 0 14 4q9 5 15 11q10 11 10 20q0 12 -11 12q-4 0 -7 -5l-2 -2l-2 -3q-3 -4 -7 -7l-16 -11q-4 -3 -4 -8q0 -4 2 -7z" />
            <glyph glyph-name="e" unicode="e" horiz-adv-x="383"
                   d="M158 180l1 -3v-3q3 -48 39 -48q20 0 64 50q14 15 35 15q32 0 52 -20q19 -18 19 -45q0 -45 -44 -84q-49 -44 -117 -44q-81 0 -134 62q-48 58 -48 206q0 85 12 136q14 62 56 97q41 35 100 35q75 0 124 -51q45 -48 45 -114q0 -96 -86 -135zM156 311l64 33q11 6 11 21
q0 16 -9 28q-10 13 -27 13q-34 0 -37 -48q-2 -28 -2 -47zM70 413q8 0 13 12q27 51 65 67q16 5 16 14q0 10 -10 10t-27 -9q-19 -10 -32 -24q-35 -35 -36 -61q0 -9 11 -9zM249 323q10 7 11 17q0 11 -9 11q-3 0 -17 -12l-6 -5l-6 -4q-3 -3 -3 -6q0 -9 11 -9q10 0 19 8zM289 153
q11 10 11 15q0 9 -12 9q-7 0 -16 -6q-9 -7 -9 -15q0 -12 12 -12q3 0 14 9z" />
            <glyph glyph-name="f" unicode="f" horiz-adv-x="309"
                   d="M171 465h54q27 0 47 -19q19 -20 19 -47t-19 -46q-20 -20 -47 -20h-54v-264q0 -28 -20 -49q-20 -20 -49 -20q-28 0 -49 20q-20 21 -20 49v437q0 68 50 118q53 54 134 54q82 0 82 -62q0 -30 -19 -49q-16 -17 -37 -18h-24q-14 -1 -23 -4q-25 -9 -25 -42v-38zM75 557q4 0 7 4
l3 4l1 3q18 39 67 60q5 2 9 6q5 5 5 10q0 10 -10 10q-7 0 -23 -8q-19 -10 -32 -22q-31 -28 -40 -53q-5 -14 13 -14z" />
            <glyph glyph-name="g" unicode="g"
                   d="M391 20q0 -71 -51 -114q-54 -45 -145 -45q-84 0 -121 17q-39 18 -39 60q0 29 19 48t44 19q8 0 22 -2l24 -4q34 -6 45 -6q64 0 64 30v46q-30 -11 -57 -11q-55 0 -96 31q-42 31 -59 84q-16 49 -16 123q0 10 1 24q1 16 3 33q4 41 12 66q18 55 63 86q44 29 104 29
q41 0 68 -19q21 17 46 17q29 0 49 -20t20 -49v-443zM253 367q0 16 -13 27q-13 12 -32 12q-51 0 -51 -110t51 -110q19 0 32 12q13 11 13 27v142zM68 410q8 0 13 12q13 27 33 44q13 12 39 22q16 5 16 14q0 10 -10 10q-26 0 -59 -27q-41 -32 -43 -66q0 -9 11 -9zM252 166
q5 4 8 9q2 4 2 8q0 10 -6 10q-3 0 -7 -4l-3 -3l-3 -2q-14 -9 -14 -11q0 -12 11 -12q6 0 12 5z" />
            <glyph glyph-name="h" unicode="h" horiz-adv-x="428"
                   d="M173 516q29 18 65 18q66 0 112 -50q45 -51 45 -126v-289q0 -28 -20 -49q-20 -20 -49 -20q-28 0 -49 20q-20 21 -20 49v293q0 17 -12 30q-13 12 -30 12t-30 -12q-12 -13 -12 -30v-293q0 -28 -20 -49q-20 -20 -49 -20q-28 0 -49 20q-20 21 -20 49v540q0 29 20 49
q21 20 49 20q29 0 49 -20t20 -49v-93zM58 625q3 -4 8 -4q7 0 13 9q2 3 6 5l6 4q6 5 6 11q0 4 -4 8q-3 4 -7 4q-11 0 -22 -12q-4 -4 -7 -9q-2 -5 -2 -7q0 -5 3 -9z" />
            <glyph glyph-name="i" unicode="i" horiz-adv-x="208"
                   d="M58 479q3 -4 8 -4q7 0 13 9q2 3 6 5l6 4q6 5 6 11q0 4 -4 8q-3 4 -7 4q-11 0 -22 -12q-4 -4 -7 -9q-2 -5 -2 -7q0 -5 3 -9zM173 69q0 -28 -20 -49q-20 -20 -49 -20q-28 0 -49 20q-20 21 -20 49v394q0 29 20 49q21 20 49 20q29 0 49 -20t20 -49v-394zM55 658q21 20 49 20
q29 0 49 -20t20 -49q0 -28 -20 -49q-20 -20 -49 -20q-28 0 -49 20q-20 21 -20 49q0 29 20 49zM58 625q3 -4 8 -4q7 0 13 9q2 3 6 5l6 4q6 5 6 11q0 4 -4 8q-3 4 -7 4q-11 0 -22 -12q-4 -4 -7 -9q-2 -5 -2 -7q0 -5 3 -9z" />
            <glyph glyph-name="j" unicode="j" horiz-adv-x="208"
                   d="M173 35q0 -63 -35 -118q-40 -62 -101 -62q-29 0 -48 20q-18 19 -18 44q0 21 4 32q6 17 21 20q39 8 39 62v430q0 29 20 49q21 20 49 20q29 0 49 -20t20 -49v-428zM55 658q21 20 49 20q29 0 49 -20t20 -49q0 -28 -20 -49q-20 -20 -49 -20q-28 0 -49 20q-20 21 -20 49
q0 29 20 49zM58 479q3 -4 8 -4q7 0 13 9q2 3 6 5l6 4q6 5 6 11q0 4 -4 8q-3 4 -7 4q-11 0 -22 -12q-4 -4 -7 -9q-2 -5 -2 -7q0 -5 3 -9zM58 625q3 -4 8 -4q7 0 13 9q2 3 6 5l6 4q6 5 6 11q0 4 -4 8q-3 4 -7 4q-11 0 -22 -12q-4 -4 -7 -9q-2 -5 -2 -7q0 -5 3 -9z" />
            <glyph glyph-name="k" unicode="k" horiz-adv-x="410"
                   d="M173 379l103 127q18 23 44 26t48 -15t25 -44q2 -26 -16 -48l-95 -117l118 -205q14 -25 6 -52q-7 -28 -33 -43q-25 -13 -53 -6q-27 8 -41 32l-90 160l-16 -21v-104q0 -28 -20 -49q-20 -20 -49 -20q-28 0 -49 20q-20 21 -20 49v540q0 29 20 49q21 20 49 20q29 0 49 -20
t20 -49v-230zM58 625q3 -4 8 -4q7 0 13 9q2 3 6 5l6 4q6 5 6 11q0 4 -4 8q-3 4 -7 4q-11 0 -22 -12q-4 -4 -7 -9q-2 -5 -2 -7q0 -5 3 -9zM284 480q4 -4 9 -4q7 0 13 9q2 3 6 5l6 4q6 5 6 11q0 4 -4 8q-3 3 -7 3q-10 0 -19 -9q-10 -10 -12 -18q-1 -4 2 -9z" />
            <glyph glyph-name="l" unicode="l" horiz-adv-x="208"
                   d="M58 625q3 -4 8 -4q7 0 13 9q2 3 6 5l6 4q6 5 6 11q0 4 -4 8q-3 4 -7 4q-11 0 -22 -12q-4 -4 -7 -9q-2 -5 -2 -7q0 -5 3 -9zM173 69q0 -28 -20 -49q-20 -20 -49 -20q-28 0 -49 20q-20 21 -20 49v540q0 29 20 49q21 20 49 20q29 0 49 -20t20 -49v-540z" />
            <glyph glyph-name="m" unicode="m" horiz-adv-x="622"
                   d="M452 362q0 42 -36 42t-36 -42v-293q0 -28 -20 -49q-20 -20 -49 -20q-28 0 -49 20q-20 21 -20 49v293q0 42 -36 42t-36 -42v-293q0 -28 -20 -49q-20 -20 -49 -20q-28 0 -49 20q-20 21 -20 49v285q0 79 50 130q49 50 124 50q70 0 105 -38q35 38 105 38q75 0 124 -50
q50 -51 50 -130v-285q0 -28 -20 -49q-20 -20 -49 -20q-28 0 -49 20q-20 21 -20 49v293zM71 415q9 0 14 12q20 44 73 65q16 5 16 14q0 10 -10 10q-27 0 -64 -32q-39 -32 -40 -60q0 -9 11 -9zM364 515q-10 -3 -18 -7q-23 -12 -23 -23q0 -9 10 -9q4 0 16 6l10 6l12 5
q16 5 16 14q0 4 -3 7q-4 4 -8 4t-12 -3z" />
            <glyph glyph-name="n" unicode="n" horiz-adv-x="424"
                   d="M254 362q0 17 -12 30q-13 12 -30 12t-30 -12q-12 -13 -12 -30v-293q0 -28 -20 -49q-20 -20 -49 -20q-28 0 -49 20q-20 21 -20 49v285q0 79 53 130q51 50 127 50t127 -50q53 -51 53 -130v-285q0 -28 -20 -49q-20 -20 -49 -20q-28 0 -49 20q-20 21 -20 49v293zM72 414
q8 0 13 12q10 21 33 42q8 7 21 13q8 4 23 10q16 5 16 14q0 10 -10 10q-28 0 -63 -29q-43 -37 -44 -63q0 -9 11 -9z" />
            <glyph glyph-name="o" unicode="o" horiz-adv-x="414"
                   d="M165 160q11 -34 42 -34t42 34q9 29 9 106t-9 106q-11 34 -42 34t-42 -34q-9 -29 -9 -106t9 -106zM266 118q12 15 12 25q0 11 -11 11q-6 0 -9 -7l-2 -3l-2 -4q-3 -5 -7 -9q-3 -3 -7 -6l-5 -3l-3 -3q-3 -3 -3 -8q0 -10 11 -10q12 0 26 17zM375 123q-18 -56 -64 -91
q-46 -34 -104 -34t-104 34q-46 35 -64 91q-14 43 -14 143t14 143q18 56 64 91q46 34 104 34t104 -34q46 -35 64 -91q14 -43 14 -143t-14 -143zM69 408q8 0 13 12q14 28 36 47q8 7 21 14l11 5l12 5q16 5 16 14q0 10 -10 10q-28 0 -63 -29q-18 -15 -31 -34q-15 -22 -16 -35
q0 -9 11 -9z" />
            <glyph glyph-name="p" unicode="p"
                   d="M385 113q-17 -53 -59 -84q-41 -31 -96 -31q-27 0 -57 11v-92q0 -28 -20 -49q-20 -20 -49 -20q-28 0 -49 20q-20 21 -20 49v449q0 59 42 108q52 60 141 60q60 0 104 -29q45 -31 63 -86q16 -49 16 -153t-16 -153zM173 165q0 -16 13 -27q13 -12 32 -12q31 0 42 34
q9 29 9 106t-9 106q-11 34 -42 34q-19 0 -32 -12q-13 -11 -13 -27v-202zM275 114q14 16 14 26q2 11 -11 13q-6 1 -9 -7l-2 -3l-2 -5q-3 -5 -7 -9q-3 -3 -8 -6l-5 -3l-4 -3q-4 -3 -3 -10q2 -8 10 -8q12 -2 27 15zM73 410q8 0 13 12q13 25 34 44q15 14 41 24q16 5 16 14
q0 10 -10 10q-25 0 -60 -29q-44 -38 -45 -66q0 -9 11 -9z" />
            <glyph glyph-name="q" unicode="q"
                   d="M253 367q0 16 -13 27q-13 12 -32 12q-31 0 -42 -34q-9 -29 -9 -106t9 -106q11 -34 42 -34q19 0 32 12q13 11 13 27v202zM41 419q18 55 63 86q44 29 104 29q89 0 141 -60q42 -49 42 -108v-449q0 -28 -20 -49q-20 -20 -49 -20q-28 0 -49 20q-20 21 -20 49v92
q-30 -11 -57 -11q-55 0 -96 31q-42 31 -59 84q-16 49 -16 153t16 153zM68 410q8 0 13 12q13 27 33 44q13 12 39 22q16 5 16 14q0 10 -10 10q-26 0 -59 -27q-41 -32 -43 -66q0 -9 11 -9zM252 106q5 4 8 9q2 5 1 11q-1 7 -5 7q-3 0 -7 -4l-3 -3l-3 -2q-14 -9 -14 -11
q0 -12 11 -12q6 0 12 5z" />
            <glyph glyph-name="r" unicode="r" horiz-adv-x="309"
                   d="M170 69q0 -28 -20 -49q-20 -20 -49 -20q-28 0 -49 20q-20 21 -20 49v302q0 61 54 111q56 51 132 51q91 0 91 -67q0 -29 -20 -50t-46 -21h-33q-19 0 -31 -13q-9 -11 -9 -23v-290zM59 415l1 -4q2 -5 7 -5q8 0 14 12q13 25 33 42q21 18 47 28l5 2l4 2q5 3 5 9q0 10 -9 10
q-24 0 -60 -29q-47 -40 -47 -63v-4z" />
            <glyph glyph-name="s" unicode="s" horiz-adv-x="358"
                   d="M48 41q-48 42 -48 91q0 22 20 41q22 20 53 20q26 0 47 -32q24 -35 48 -35q16 0 30 12q14 13 14 30q0 23 -12 35q-12 11 -51 26l-23 9l-23 10q-26 12 -43 26q-43 36 -43 102q0 62 45 109q49 49 120 49q54 0 98 -28q42 -28 42 -60q0 -31 -19 -52q-18 -20 -43 -20t-46 17
l-7 5l-8 5q-10 5 -21 5q-14 0 -24 -11q-9 -10 -9 -24q0 -16 15 -25q10 -6 47 -18q133 -45 133 -153q0 -78 -47 -127q-49 -50 -132 -50q-64 0 -113 43zM54 154q12 8 12 15q0 10 -10 10q-7 0 -18 -6q-13 -8 -13 -15q0 -10 11 -10q7 0 18 6zM221 115q13 11 13 19q0 4 -3 8t-7 4
q-5 0 -9 -5l-3 -4l-4 -5l-7 -6l-5 -3q-6 -4 -6 -7q0 -4 4 -7q4 -4 8 -4q7 0 19 10zM48 441q-1 -5 0 -9q1 -10 10 -10q11 0 16 16q3 9 10 17q5 7 13 13t19 12l20 9l5 2l4 3q5 3 5 9q0 4 -3 7q-3 4 -8 4q-21 0 -54 -26q-21 -16 -34 -40q-2 -3 -3 -7z" />
            <glyph glyph-name="t" unicode="t" horiz-adv-x="311"
                   d="M171 532h64q27 0 47 -19q19 -20 19 -47t-19 -46q-20 -20 -47 -20h-64v-230q0 -4 2 -10q3 -7 7 -13q12 -16 31 -16h24q30 0 48 -23q14 -19 14 -40q0 -70 -85 -70q-77 0 -128 52q-51 53 -51 133v416q0 29 20 49q21 20 49 20q29 0 49 -20t20 -49v-67zM56 615q3 -4 8 -4
q7 0 13 9q2 3 6 5l6 4q6 5 6 11q0 4 -4 8q-3 4 -7 4q-11 0 -22 -12q-4 -4 -7 -9q-2 -5 -2 -7q0 -5 3 -9z" />
            <glyph glyph-name="u" unicode="u" horiz-adv-x="424"
                   d="M254 463q0 29 20 49q21 20 49 20q29 0 49 -20t20 -49v-285q0 -79 -53 -130q-51 -50 -127 -50t-127 50q-53 51 -53 130v285q0 29 20 49q21 20 49 20q29 0 49 -20t20 -49v-293q0 -17 12 -30q13 -12 30 -12t30 12q12 13 12 30v293zM55 479q3 -4 8 -4q7 0 13 9q2 3 6 5l6 4
q6 5 6 11q0 4 -4 8q-3 4 -7 4q-11 0 -22 -12q-4 -4 -7 -9q-2 -5 -2 -7q0 -5 3 -9zM277 479q3 -4 8 -4q7 0 13 9q2 3 6 5l6 4q6 5 6 11q0 4 -4 8q-3 4 -7 4q-11 0 -22 -12q-4 -4 -7 -9q-2 -5 -2 -7q0 -5 3 -9zM273 126q11 14 11 26q0 10 -12 10q-6 -1 -8 -7l-2 -4l-2 -4
q-2 -5 -5 -9t-7 -7l-3 -3l-2 -2q-5 -3 -5 -9q0 -10 11 -10q13 2 24 19z" />
            <glyph glyph-name="v" unicode="v" horiz-adv-x="406"
                   d="M138 53l-130 400q-9 27 10 53q20 27 60 27q50 0 63 -46l62 -209l62 209q13 46 63 46q40 0 60 -27q19 -26 10 -53l-130 -400q-17 -53 -65 -53t-65 53zM45 484l3 4l3 4q2 2 5 4l6 2q7 3 7 9q0 12 -11 12q-8 0 -20 -9q-13 -10 -13 -18q0 -13 10 -13q6 0 10 5zM299 484l3 5
l3 4q2 2 5 4l6 3q7 3 7 9q0 12 -11 12q-8 0 -20 -10q-12 -11 -12 -19q0 -13 10 -13q6 0 9 5z" />
            <glyph glyph-name="w" unicode="w" horiz-adv-x="578"
                   d="M44 484l3 4l3 4q2 2 5 4l6 3q7 3 7 9q0 12 -11 12q-8 0 -20 -10q-13 -10 -13 -18q0 -13 10 -13q6 0 10 5zM254 53q-15 -53 -65 -53q-48 0 -63 52l-115 381q-6 18 -6 30q0 70 74 70q19 0 36 -11q18 -13 23 -33l61 -234l28 97q14 51 62 51t62 -51l28 -97l61 234q5 20 23 33
q17 11 36 11q74 0 74 -70q0 -12 -6 -30l-115 -381q-15 -52 -63 -52q-50 0 -65 53l-35 123zM476 485l3 4l3 4q2 2 5 4l6 3q7 3 7 9q0 12 -11 12q-8 0 -20 -10q-13 -10 -13 -18q0 -13 10 -13q6 0 10 5zM266 355l3 4l3 4q2 2 5 4l6 3q7 3 7 9q0 12 -11 12q-8 0 -20 -10
q-13 -10 -13 -18q0 -13 10 -13q6 0 10 5z" />
            <glyph glyph-name="x" unicode="x" horiz-adv-x="401"
                   d="M199 170l-69 -140q-14 -30 -57 -30q-29 0 -48 20q-20 21 -20 52q0 4 1 10q2 7 4 11l102 183l-91 157q-9 17 -9 31q0 27 21 48t50 21q37 0 55 -33l61 -111l60 112q18 32 57 32q28 0 48 -20q21 -21 21 -53q0 -13 -8 -27l-89 -157l102 -183q6 -12 6 -26q0 -28 -20 -47
q-21 -20 -50 -20q-39 0 -56 32zM52 482l3 4l3 5l4 3l5 3q6 3 5 9q-2 12 -13 10q-8 -2 -18 -12t-9 -18q2 -13 12 -10q4 1 8 6zM287 484l4 4l3 4l4 4l5 3q5 3 4 9q-2 12 -13 10q-7 -1 -18 -11q-10 -11 -9 -19q2 -13 12 -10q4 1 8 6zM30 107q-7 -7 -9 -18q-1 -4 1 -7q1 -5 6 -5
q4 0 9 4q3 3 6 7q6 12 6 15q0 10 -8 10q-5 0 -11 -6z" />
            <glyph glyph-name="y" unicode="y" horiz-adv-x="413"
                   d="M127 157l-116 283l-2 5l-2 6q-2 8 -2 14q0 28 21 48q22 20 51 20q45 0 60 -40l63 -165l83 178q14 27 52 27q29 0 50 -18q23 -20 23 -49q0 -6 -2 -14q-2 -7 -5 -12l-231 -527q-17 -41 -58 -41q-31 0 -52 19q-21 20 -21 50q0 15 5 27zM32 475q9 -3 18 9q3 4 7 8l3 2l2 3
q5 4 5 9q0 10 -10 10q-11 0 -22 -11t-11 -19t8 -11zM308 481l4 5l4 5q12 12 12 15q0 5 -2 9q-3 4 -8 4q-11 0 -21 -13q-9 -12 -9 -20q0 -11 13 -11q3 0 7 6z" />
            <glyph glyph-name="z" unicode="z" horiz-adv-x="333"
                   d="M38 512q21 20 49 20h167q32 0 50 -30t4 -59l-140 -305h86q29 0 49 -20t20 -49q0 -28 -20 -49q-20 -20 -49 -20h-181q-39 0 -61 31q-21 31 -5 67l136 296h-56q-28 0 -49 20q-20 21 -20 49q0 29 20 49zM40 483q2 -3 5 -5q7 -4 15 6q3 3 7 6l6 4q7 5 7 11q0 11 -10 11
q-8 0 -19 -8q-13 -10 -13 -21q0 -2 2 -4zM42 91q4 9 4 18q0 8 -7 8q-10 0 -15 -10q-2 -3 -3 -7l-1 -3v-1q0 -14 11 -14q6 0 11 9z" />
            <glyph glyph-name="braceleft" unicode="{" horiz-adv-x="312"
                   d="M202 58q0 -23 21 -23q4 0 9 1h8q26 0 44 -19q18 -18 18 -43q0 -64 -99 -64q-55 0 -96 46q-39 44 -39 102v164h-10q-26 0 -45 18q-18 19 -18 45t18 45q19 18 45 18h10v194q0 58 39 103q41 45 96 45q99 0 99 -64q0 -25 -18 -43q-18 -19 -44 -19l-8 1h-9q-21 0 -21 -23v-198
q0 -26 -23 -44q-8 -7 -17 -11q-3 -2 -6 -3t-4 -1h1l2 -1q3 -1 6 -3q9 -4 17 -10q24 -19 24 -45v-168zM114 591q10 19 21 32q15 18 37 26q12 5 12 12q0 10 -12 10q-9 0 -25 -11q-13 -9 -27 -23q-8 -8 -18 -24t-10 -22q0 -8 10 -9q8 0 12 9zM34 295l6 7q3 4 7 7l3 2l4 3
q5 3 5 7q0 12 -12 12q-11 0 -23 -11t-12 -23q0 -5 2 -8q2 -4 7 -4q7 0 13 8z" />
            <glyph glyph-name="bar" unicode="|" horiz-adv-x="230"
                   d="M60 724h110v-802h-110v802z" />
            <glyph glyph-name="braceright" unicode="}" horiz-adv-x="312"
                   d="M110 226q0 26 23 44q7 6 17 11q3 1 6 3h2l1 1h-1l-2 1l-2 1l-3 2q-10 4 -17 10q-24 19 -24 45v198q0 23 -21 23h-9l-8 -1q-26 0 -44 19q-18 18 -18 43q0 64 99 64q55 0 96 -45q39 -45 39 -103v-194h10q26 0 45 -18q18 -19 18 -45t-18 -45q-19 -18 -45 -18h-10v-164
q0 -58 -39 -102q-41 -46 -96 -46q-99 0 -99 64q0 25 18 43q18 19 44 19h8q5 -1 9 -1q21 0 21 23v168zM48 -18l6 7q3 4 7 7l3 2l4 3q5 3 5 7q0 12 -12 12q-11 0 -23 -11t-12 -23q0 -5 2 -8q2 -4 7 -4q7 0 13 8zM47 632l6 7q3 4 7 7l3 2l4 3q5 3 5 7q0 12 -12 12
q-11 0 -23 -11t-12 -23q0 -5 2 -8q2 -4 7 -4q7 0 13 8z" />
            <glyph glyph-name="asciitilde" unicode="~" horiz-adv-x="384"
                   d="M66 480l2 5l1 5q8 19 26 33l2 3l3 2q2 2 3 6q1 5 -2 10q-4 6 -8 6q-11 0 -30 -25q-19 -24 -19 -40q0 -10 12 -10q6 0 10 5zM302 533q8 0 14 9q2 4 4 7q1 4 1 5q0 9 -7 10q-6 1 -13 -8t-7 -17q0 -6 8 -6zM168 567q13 -6 33 -19q40 -28 54 -28q13 0 26 29t37 29
q18 0 30 -15q11 -14 11 -36q0 -44 -28 -78q-31 -39 -78 -39q-28 0 -68 29l-14 11l-14 9q-15 9 -26 9q-16 0 -31 -27q-14 -27 -35 -27q-16 0 -27 12q-13 15 -13 42q0 15 5 32q7 20 18 36q30 40 84 40q17 0 36 -9z" />
            <glyph glyph-name="exclamdown" unicode="&#xa1;" horiz-adv-x="226"
                   d="M64 474q4 -2 9 -1q2 1 13 13l5 4l5 4q6 6 5 13q-2 10 -13 8q-7 -1 -17 -12q-12 -11 -12 -19q0 -7 5 -10zM62 513q21 21 51 21t52 -21q21 -22 21 -52t-21 -51q-22 -22 -52 -22t-51 22q-22 21 -22 51t22 52zM40 279q0 65 73 65t73 -65v-347q0 -66 -73 -66t-73 66v347z
M80 291l5 6q3 4 7 7l3 2l4 3q5 3 5 7q0 12 -12 12q-11 0 -22 -10q-12 -11 -12 -23q0 -5 2 -8q2 -4 7 -4q7 0 13 8z" />
            <glyph glyph-name="sterling" unicode="&#xa3;" horiz-adv-x="368"
                   d="M11 400q20 21 50 23q-6 50 -6 82q0 65 49 115t116 50q38 0 60 -22q21 -19 21 -49q0 -29 -21 -50q-19 -19 -41 -19h-5l-4 1h-10q-34 -1 -30 -40l8 -68h60q31 0 52 -22q22 -21 22 -52t-22 -52q-21 -22 -52 -22h-66q-3 -45 -6 -84q-3 -34 -6 -51h118q29 0 50 -20
q20 -21 20 -50t-20 -50q-21 -20 -50 -20h-196q-29 0 -51 21q-21 21 -21 46q0 5 11 67q5 30 8 59q5 39 7 82q-28 3 -47 24t-19 50q0 30 21 51zM90 547q10 0 15 11q21 45 70 66q16 7 14 17t-18 8q-10 -1 -31 -16q-25 -17 -40 -37q-19 -24 -19 -39q0 -10 9 -10zM14 362
q4 -2 9 -1q2 1 13 13l5 4l5 4q6 6 5 13q-2 10 -13 8q-7 -1 -17 -12q-12 -11 -12 -19q0 -7 5 -10z" />
            <glyph glyph-name="currency" unicode="&#xa4;" horiz-adv-x="411"
                   d="M55 254q-21 38 -21 83t21 82l-29 31q-16 16 -15 39q1 22 17 38q17 16 40 15t38 -17l29 -32q37 15 70 15q34 0 69 -15l30 32q15 16 38 17t40 -15q16 -16 17 -38q1 -23 -15 -39l-29 -31q21 -40 21 -82q0 -43 -21 -83l29 -32q16 -16 15 -39q0 -23 -17 -38q-17 -16 -40 -15
t-38 18l-30 32q-33 -14 -69 -14q-37 0 -70 14l-30 -32q-15 -17 -38 -18t-40 15q-17 15 -17 38q-1 23 15 39zM165 297q16 -17 40 -17t41 17q16 16 16 40t-16 41q-17 16 -41 16t-40 -16q-17 -17 -17 -41t17 -40zM30 501q2 -5 8 -5q4 0 8 4l3 3l3 3q11 9 11 14q0 7 -10 7
q-14 0 -23 -17q-3 -4 0 -9z" />
            <glyph glyph-name="yen" unicode="&#xa5;"
                   d="M22 350q21 22 52 22h11l-81 189l-3 7l-3 8q-3 11 -3 18q0 32 21 53t53 21q52 0 66 -40l78 -211l78 211q14 40 66 40q32 0 53 -21t21 -53q0 -7 -3 -18l-3 -8l-3 -7l-81 -189h11q31 0 52 -22q22 -21 22 -52t-22 -52q-21 -22 -52 -22h-66v-159q0 -65 -73 -65t-73 65v159h-66
q-31 0 -52 22q-22 21 -22 52t22 52zM38 614l5 6q3 4 7 7l3 2l4 3q5 3 5 7q0 12 -12 12q-11 0 -22 -10q-12 -11 -12 -23q0 -5 2 -8q2 -4 7 -4q7 0 13 8zM325 614l4 6q3 4 7 7l3 2l4 3q5 3 5 7q0 12 -12 12q-10 0 -21 -10q-11 -11 -11 -23q0 -5 2 -8q2 -4 7 -4q7 0 12 8z
M24 311q4 -2 9 -1q2 1 13 13l5 4l5 4q6 6 5 13q-2 10 -13 8q-7 -1 -17 -12q-12 -11 -12 -19q0 -7 5 -10z" />
            <glyph glyph-name="brokenbar" unicode="&#xa6;" horiz-adv-x="230"
                   d="M60 724h110v-334h-110v334zM60 256h110v-334h-110v334z" />
            <glyph glyph-name="section" unicode="&#xa7;" horiz-adv-x="382"
                   d="M33 378q11 25 30 45q-29 32 -29 89q0 62 45 109q49 49 120 49q54 0 98 -28q42 -28 42 -60q0 -31 -19 -52q-18 -20 -43 -20t-46 17l-7 5l-8 5q-10 5 -21 5q-14 0 -24 -11q-9 -10 -9 -24q0 -16 15 -25q10 -6 47 -18q133 -45 133 -153q0 -66 -45 -116q28 -36 28 -87
q0 -78 -47 -127q-49 -50 -132 -50q-64 0 -113 43q-48 42 -48 91q0 22 20 41q22 20 53 20q26 0 47 -32q24 -35 48 -35q16 0 30 12q14 13 14 30q0 23 -12 35q-12 11 -51 26l-23 9l-23 10q-25 12 -42 26q-42 36 -42 102q0 38 14 69zM213 258q16 19 16 46q0 22 -11 34
q-10 10 -45 24l-10 4q-18 -28 -18 -54q0 -31 55 -49zM65 577q-1 -5 0 -9q1 -10 10 -10q11 0 16 16q3 9 10 17q5 7 13 13q14 10 39 22l5 2l4 2q5 3 5 9q0 4 -3 7q-3 4 -8 4q-21 0 -54 -26q-21 -16 -34 -40q-2 -3 -3 -7zM221 48q13 11 13 19q0 4 -3 8t-7 4q-5 0 -9 -5l-3 -4
l-4 -5l-7 -6l-5 -3q-6 -4 -6 -7q0 -4 4 -7q4 -4 8 -4q7 0 19 10zM54 87q12 8 12 15q0 10 -10 10q-7 0 -18 -6q-13 -8 -13 -15q0 -10 11 -10q7 0 18 6zM58 357q6 0 10 6l2 5l3 6q1 2 4 5l5 6q6 7 2 13q-2 3 -6 5q-5 2 -9 0q-6 -2 -14 -16q-9 -14 -8 -21q1 -9 11 -9z" />
            <glyph glyph-name="dieresis" unicode="&#xa8;" horiz-adv-x="322"
                   d="M38 652q19 18 44 18q26 0 44 -18t18 -44q0 -25 -18 -44q-18 -18 -44 -18q-25 0 -44 18q-18 19 -18 44q0 26 18 44zM196 652q19 18 44 18q26 0 44 -18t18 -44q0 -25 -18 -44q-18 -18 -44 -18q-25 0 -44 18q-18 19 -18 44q0 26 18 44zM43 618q4 -4 9 -2q2 1 6 6l4 4l4 4
l4 3l4 3q5 5 5 9q0 10 -11 10q-7 0 -17 -9q-11 -10 -12 -18q-1 -6 4 -10zM201 618q4 -4 9 -2q2 1 6 6l4 4l4 4l4 3l4 3q5 5 5 9q0 10 -11 10q-7 0 -17 -9q-11 -10 -12 -18q-1 -6 4 -10z" />
            <glyph glyph-name="copyright" unicode="&#xa9;" horiz-adv-x="748"
                   d="M170 130q84 -85 204 -85t205 85q84 84 84 204t-84 205q-85 84 -205 84t-204 -84q-85 -85 -85 -205t85 -204zM134 574q100 99 240 99t240 -99q99 -100 99 -240t-99 -240q-100 -99 -240 -99t-240 99q-99 100 -99 240t99 240zM271 197q-23 49 -23 135q0 87 24 135
q32 65 108 65q48 0 81 -32q29 -28 29 -60q0 -17 -13 -29t-30 -12q-25 0 -40 29q-13 22 -30 22q-29 0 -38 -36q-6 -22 -6 -82q0 -64 6 -86q10 -34 40 -34q11 0 20 6q10 7 11 19q6 38 42 38q19 0 31 -12t12 -30q0 -40 -30 -69q-34 -33 -86 -33q-76 0 -108 66z" />
            <glyph glyph-name="ordfeminine" unicode="&#xaa;" horiz-adv-x="318"
                   d="M293 297q0 -22 -16 -38q-15 -16 -37 -16q-26 0 -40 18q-35 -19 -67 -19q-47 0 -81 32q-37 35 -37 92q0 98 90 131l82 30v12q-1 8 -3 14q-7 16 -24 16q-11 0 -30 -11q-9 -6 -14 -8q-9 -4 -17 -4q-22 0 -37 15q-14 14 -14 35q0 32 25 49q35 25 90 25q53 0 89 -37
q41 -40 41 -108v-228zM186 425l-49 -18q-24 -9 -24 -33q0 -14 9 -24q11 -12 27 -12q15 0 26 13q11 12 11 27v47zM60 425q15 29 45 40l5 2l5 3q6 4 6 9q0 9 -8 9q-17 0 -46 -25q-30 -28 -30 -43q0 -3 3 -6t5 -3q7 0 15 14zM172 323q3 -2 6 -2q7 0 15 7t8 14q0 9 -8 9
q-2 0 -11 -9l-5 -4l-4 -4q-4 -2 -4 -6q0 -3 3 -5zM94 643q-7 0 -14 -6q-8 -6 -8 -12q0 -4 3 -6q2 -2 6 -2q2 0 8 4q2 3 5 4l4 3q4 3 4 8q0 7 -8 7z" />
            <glyph glyph-name="guillemotleft" unicode="&#xab;" horiz-adv-x="353"
                   d="M80 365q5 0 9 4l4 4l5 5l4 3l5 3q5 3 5 7q0 11 -9 11q-8 0 -20 -10q-12 -11 -12 -18q0 -9 9 -9zM171 72q3 -9 3 -17q0 -22 -19 -39q-19 -16 -43 -16q-16 0 -31 10q-15 11 -20 25l-52 153l-1 4l-1 5q-2 6 -2 9t2 9l1 5l1 4l52 153q5 14 20 25q15 10 31 10q24 0 43 -16
q19 -17 19 -39q0 -8 -3 -17l-45 -134zM244 365q5 0 9 4l4 4l5 5l4 3l5 3q5 3 5 7q0 11 -9 11q-8 0 -20 -10q-12 -11 -12 -18q0 -9 9 -9zM335 72q3 -9 3 -17q0 -22 -19 -39q-19 -16 -43 -16q-16 0 -31 10q-15 11 -20 25l-52 153l-1 4l-1 5q-2 6 -2 9t2 9l1 5l1 4l52 153
q5 14 20 25q15 10 31 10q24 0 43 -16q19 -17 19 -39q0 -8 -3 -17l-45 -134z" />
            <glyph glyph-name="logicalnot" unicode="&#xac;" horiz-adv-x="453"
                   d="M312 79q-18 18 -18 45v140h-220q-26 0 -45 19t-19 45t19 45t45 19h280q26 0 45 -19t19 -45v-204q0 -27 -18 -45q-17 -17 -44 -17t-44 17zM34 337q4 -2 9 -1q2 1 13 13l5 4l5 4q6 6 5 13q-2 10 -13 8q-7 -1 -17 -12q-12 -11 -12 -19q0 -7 5 -10z" />
            <glyph glyph-name="registered" unicode="&#xae;" horiz-adv-x="568"
                   d="M105 591q74 74 179 74t180 -74q74 -75 74 -180t-74 -179q-75 -75 -180 -75t-179 75q-75 74 -75 179t75 180zM136 263q62 -61 148 -61t148 61q61 62 61 148t-61 148q-62 61 -148 61t-148 -61q-61 -62 -61 -148t61 -148zM271 294q0 -28 -31 -28q-32 0 -32 28v231
q0 28 32 28h58q30 0 53 -24q24 -26 24 -62q0 -28 -13 -48q-10 -16 -28 -27l44 -81q8 -15 -1 -30t-28 -15q-18 0 -26 15l-52 99v-86zM271 440q0 -2 3 -2h18q25 0 25 27q0 29 -25 29h-18q-3 0 -3 -2v-52z" />
            <glyph glyph-name="macron" unicode="&#xaf;" horiz-adv-x="308"
                   d="M69 550q-20 0 -35 14q-14 15 -14 35t14 35q15 14 35 14h170q20 0 35 -14q14 -15 14 -35t-14 -35q-15 -14 -35 -14h-170zM38 599q4 -4 9 -2q2 1 6 6l4 4l4 4l4 3l4 3q5 5 5 9q0 10 -11 10q-8 0 -18 -9t-11 -18q-1 -6 4 -10z" />
            <glyph glyph-name="degree" unicode="&#xb0;" horiz-adv-x="330"
                   d="M205 453q11 0 22 11q9 8 11 17t-5 13q-2 2 -5 1q-4 0 -5 -3q-4 -8 -12 -16q-4 -4 -9 -7l-4 -3l-3 -2q-3 -3 -1 -6q1 -2 5 -4q2 -1 6 -1zM69 581q16 29 37 37l4 2l5 3q6 4 6 8q0 12 -10 12q-16 0 -41 -25q-27 -27 -27 -44q0 -2 3 -5q4 -3 6 -3q8 0 17 15zM59 626
q44 44 106 44t106 -44t44 -106t-44 -106t-106 -44t-106 44t-44 106t44 106zM130 485q14 -15 35 -15t36 15q14 14 14 35t-14 36q-15 14 -36 14t-35 -14q-15 -15 -15 -36t15 -35z" />
            <glyph glyph-name="plusminus" unicode="&#xb1;" horiz-adv-x="420"
                   d="M255 509q19 -19 19 -45v-62h62q26 0 45 -19t19 -45t-19 -45t-45 -19h-62v-62q0 -26 -19 -45t-45 -19t-45 19t-19 45v62h-62q-26 0 -45 19t-19 45t19 45t45 19h62v62q0 26 19 45t45 19t45 -19zM39 109q19 19 45 19h252q26 0 45 -19t19 -45t-19 -45t-45 -19h-252
q-26 0 -45 19t-19 45t19 45zM174 499q-11 -11 -12 -18q-2 -11 8 -13q7 -1 13 5l4 6l4 5q12 11 13 13q1 5 -1 9q-3 5 -10 5q-8 0 -19 -12zM44 73q4 -2 9 -1q2 1 13 13q1 2 5 4l6 3q6 5 5 12q-2 10 -13 8q-7 -1 -18 -11q-12 -10 -12 -18q0 -7 5 -10zM44 347q4 -2 9 -1
q2 1 13 13q1 2 5 4l6 3q6 5 5 12q-2 10 -13 8q-7 -1 -18 -11q-12 -10 -12 -18q0 -7 5 -10z" />
            <glyph glyph-name="uni00B2" unicode="&#xb2;" horiz-adv-x="233"
                   d="M123 388h57q18 0 30 -13q13 -14 13 -34q0 -19 -13 -33q-13 -13 -30 -13h-137q-18 0 -30 13q-13 14 -13 33q0 16 9 28l113 180q6 10 6 17q0 13 -17 13q-11 0 -20 -14l-7 -10q-4 -5 -8 -8q-11 -9 -24 -9q-16 0 -29 14q-14 14 -14 34q0 25 26 52q30 32 74 32q47 0 78 -32
q29 -30 29 -73q0 -29 -19 -61z" />
            <glyph glyph-name="uni00B3" unicode="&#xb3;" horiz-adv-x="233"
                   d="M102 530l10 4l9 6q10 6 10 15q0 22 -19 22q-8 0 -14 -4q-4 -3 -7 -9q-15 -26 -38 -26q-16 0 -29 13q-14 14 -14 33q0 28 27 55q31 31 73 31q46 0 77 -32q28 -30 28 -72q0 -40 -29 -77q6 -6 11 -12q7 -9 12 -18q14 -25 14 -55q0 -43 -31 -76q-32 -34 -80 -34q-52 0 -85 36
q-27 30 -27 62q0 19 12 33q12 12 29 14q27 3 34 -18q11 -35 33 -35q12 0 20 6q10 7 10 20q0 19 -31 31q-30 16 -30 46q0 31 25 41z" />
            <glyph glyph-name="acute" unicode="&#xb4;" horiz-adv-x="183"
                   d="M73 686q14 21 40 21q16 0 28 -9q22 -14 22 -40q0 -14 -9 -28l-44 -63q-13 -21 -41 -21q-16 0 -27 8q-21 15 -21 41q0 16 8 27zM89 662q5 0 9 4l4 4l3 3l4 2l4 3q4 3 4 8q0 9 -9 9q-8 0 -18 -7q-9 -8 -9 -15q0 -11 8 -11z" />
            <glyph glyph-name="mu" unicode="&#xb5;" horiz-adv-x="427"
                   d="M35 463q0 29 20 49q21 20 49 20q29 0 49 -20t20 -49v-293q0 -17 12 -30q13 -12 30 -12t30 12q12 13 12 30v293q0 29 20 49q21 20 49 20q29 0 49 -20t20 -49v-394q0 -28 -20 -49q-20 -20 -49 -20q-14 0 -27 6q-8 3 -19 11q-28 -19 -63 -19q-28 0 -44 7v-56q0 -28 -20 -49
q-20 -20 -49 -20q-28 0 -49 20q-20 21 -20 49v514zM276 126q11 14 11 26q0 10 -12 10q-6 -1 -8 -7l-2 -4l-2 -4q-2 -5 -5 -9t-7 -7l-3 -3l-2 -2q-5 -3 -5 -9q0 -10 11 -10q13 2 24 19zM280 479q3 -4 8 -4q7 0 13 9q2 3 6 5l6 4q6 5 6 11q0 4 -4 8q-3 4 -7 4q-11 0 -22 -12
q-4 -4 -7 -9q-2 -5 -2 -7q0 -5 3 -9zM58 479q3 -4 8 -4q7 0 13 9q2 3 6 5l6 4q6 5 6 11q0 4 -4 8q-3 4 -7 4q-11 0 -22 -12q-4 -4 -7 -9q-2 -5 -2 -7q0 -5 3 -9z" />
            <glyph glyph-name="mu" unicode="&#x3bc;" horiz-adv-x="427"
                   d="M35 463q0 29 20 49q21 20 49 20q29 0 49 -20t20 -49v-293q0 -17 12 -30q13 -12 30 -12t30 12q12 13 12 30v293q0 29 20 49q21 20 49 20q29 0 49 -20t20 -49v-394q0 -28 -20 -49q-20 -20 -49 -20q-14 0 -27 6q-8 3 -19 11q-28 -19 -63 -19q-28 0 -44 7v-56q0 -28 -20 -49
q-20 -20 -49 -20q-28 0 -49 20q-20 21 -20 49v514zM276 126q11 14 11 26q0 10 -12 10q-6 -1 -8 -7l-2 -4l-2 -4q-2 -5 -5 -9t-7 -7l-3 -3l-2 -2q-5 -3 -5 -9q0 -10 11 -10q13 2 24 19zM280 479q3 -4 8 -4q7 0 13 9q2 3 6 5l6 4q6 5 6 11q0 4 -4 8q-3 4 -7 4q-11 0 -22 -12
q-4 -4 -7 -9q-2 -5 -2 -7q0 -5 3 -9zM58 479q3 -4 8 -4q7 0 13 9q2 3 6 5l6 4q6 5 6 11q0 4 -4 8q-3 4 -7 4q-11 0 -22 -12q-4 -4 -7 -9q-2 -5 -2 -7q0 -5 3 -9z" />
            <glyph glyph-name="paragraph" unicode="&#xb6;" horiz-adv-x="477"
                   d="M444 668q14 0 23 -10q10 -9 10 -23q0 -13 -10 -23q-9 -10 -23 -10h-51v-765q0 -13 -10 -23q-9 -10 -23 -10q-13 0 -23 10t-10 23v765h-79v-765q0 -13 -10 -23q-9 -10 -23 -10q-13 0 -23 10t-10 23v507q-67 0 -114 48q-48 47 -48 114t48 114q47 48 114 48h262z" />
            <glyph glyph-name="periodcentered" unicode="&#xb7;" horiz-adv-x="226"
                   d="M64 344q4 -2 9 -1q2 1 13 13l5 4l5 4q6 6 5 13q-2 10 -13 8q-7 -1 -17 -12q-12 -11 -12 -19q0 -7 5 -10zM62 384q21 21 51 21t52 -21q21 -22 21 -52t-21 -51q-22 -22 -52 -22t-51 22q-22 21 -22 51t22 52z" />
            <glyph glyph-name="cedilla" unicode="&#xb8;" horiz-adv-x="176"
                   d="M60 45q7 18 26 26q20 9 38 1q26 -10 30 -34q3 -16 -2 -29l-37 -92q-13 -31 -47 -31q-36 0 -46 37q-4 16 2 29z" />
            <glyph glyph-name="uni00B9" unicode="&#xb9;" horiz-adv-x="157"
                   d="M132 343q0 -20 -13 -34t-31 -14t-31 14q-14 14 -14 34v195h-3l-4 -1q-5 -1 -7 -1q-17 0 -30 13q-14 14 -14 35q0 28 20 40l60 37q4 2 11 5q7 2 11 2q20 0 33 -15q12 -14 12 -33v-277z" />
            <glyph glyph-name="ordmasculine" unicode="&#xba;" horiz-adv-x="335"
                   d="M134 371q8 -27 34 -27q25 0 33 27q7 23 7 85t-7 85q-8 27 -33 27q-26 0 -34 -27q-7 -22 -7 -85t7 -85zM216 337q9 14 9 20q0 9 -8 9q-4 0 -8 -6l-3 -5q-2 -4 -5 -7l-12 -10q-3 -1 -3 -6q0 -8 9 -8q10 0 21 13zM302 341q-14 -45 -51 -72q-37 -28 -83 -28q-47 0 -84 28
q-37 27 -51 72q-11 37 -11 115q0 79 11 114q14 45 51 73q37 27 84 27q46 0 83 -27q37 -28 51 -73q11 -32 11 -114t-11 -115zM58 568q6 0 11 10q10 20 28 38q7 5 17 11q7 3 19 8q12 3 12 11t-8 8q-20 0 -50 -23q-14 -12 -25 -27q-12 -17 -13 -28q0 -8 9 -8z" />
            <glyph glyph-name="guillemotright" unicode="&#xbb;" horiz-adv-x="353"
                   d="M63 206l-45 134q-3 9 -3 17q0 22 19 39q19 16 43 16q16 0 32 -10q14 -11 19 -25l52 -153l1 -4l1 -5q2 -6 2 -9t-2 -9l-1 -5l-1 -4l-52 -153q-5 -14 -19 -25q-16 -10 -32 -10q-24 0 -43 16q-19 17 -19 39q0 8 3 17zM205 365q7 0 20 11l4 3l5 3q5 3 5 7q0 11 -9 11
q-8 0 -21 -9q-13 -10 -13 -17q0 -9 9 -9zM227 206l-45 134q-3 9 -3 17q0 22 19 39q19 16 43 16q16 0 32 -10q14 -11 19 -25l52 -153l1 -4l1 -5q2 -6 2 -9t-2 -9l-1 -5l-1 -4l-52 -153q-5 -14 -19 -25q-16 -10 -32 -10q-24 0 -43 16q-19 17 -19 39q0 8 3 17zM41 365
q7 0 20 11l4 3l5 3q5 3 5 7q0 11 -9 11q-8 0 -21 -9q-13 -10 -13 -17q0 -9 9 -9z" />
            <glyph glyph-name="onequarter" unicode="&#xbc;" horiz-adv-x="486"
                   d="M314 640q8 18 28 25q19 7 37 -1q19 -9 26 -28q6 -19 -2 -37l-265 -571q-8 -18 -28 -25q-19 -7 -37 1q-19 9 -26 28t2 38zM344 617l3 5l6 6l4 3l4 3q4 4 4 8q0 11 -10 13q-9 2 -20 -9q-12 -10 -12 -20q0 -15 11 -15q6 0 10 6zM132 343q0 -20 -13 -34t-31 -14t-31 14
q-14 14 -14 34v195h-3l-4 -1q-5 -1 -7 -1q-17 0 -30 13q-14 14 -14 35q0 28 20 40l60 37q4 2 11 5q7 2 11 2q20 0 33 -15q12 -14 12 -33v-277zM444 154q17 0 30 -12q12 -13 12 -30t-12 -30q-13 -12 -30 -12v-22q0 -20 -13 -34t-30 -14q-18 0 -30 14q-13 14 -13 34v22h-87
q-19 0 -31 15q-12 14 -12 34q0 6 1 12q2 7 6 14l127 206q15 22 38 22q19 0 32 -15q12 -14 12 -33v-171zM358 154v62l-38 -62h38z" />
            <glyph glyph-name="onehalf" unicode="&#xbd;" horiz-adv-x="527"
                   d="M314 640q8 18 28 25q19 7 37 -1q19 -9 26 -28q6 -19 -2 -37l-265 -571q-8 -18 -28 -25q-19 -7 -37 1q-19 9 -26 28t2 38zM344 617l3 5l6 6l4 3l4 3q4 4 4 8q0 11 -10 13q-9 2 -20 -9q-12 -10 -12 -20q0 -15 11 -15q6 0 10 6zM132 343q0 -20 -13 -34t-31 -14t-31 14
q-14 14 -14 34v195h-3l-4 -1q-5 -1 -7 -1q-17 0 -30 13q-14 14 -14 35q0 28 20 40l60 37q4 2 11 5q7 2 11 2q20 0 33 -15q12 -14 12 -33v-277zM417 93h57q18 0 30 -13q13 -14 13 -34q0 -19 -13 -33q-13 -13 -30 -13h-137q-18 0 -30 13q-13 14 -13 33q0 16 9 28l113 180
q6 10 6 17q0 13 -17 13q-11 0 -20 -14l-7 -10q-4 -5 -8 -8q-11 -9 -24 -9q-16 0 -29 14q-14 14 -14 34q0 25 26 52q30 32 74 32q47 0 78 -32q29 -30 29 -73q0 -29 -19 -61z" />
            <glyph glyph-name="threequarters" unicode="&#xbe;" horiz-adv-x="588"
                   d="M416 640q8 18 28 25q19 7 37 -1q19 -9 26 -28q6 -19 -2 -37l-265 -571q-8 -18 -28 -25q-19 -7 -37 1q-19 9 -26 28t2 38zM446 617l3 5l6 6l4 3l4 3q4 4 4 8q0 11 -10 13q-9 2 -20 -9q-12 -10 -12 -20q0 -15 11 -15q6 0 10 6zM546 154q17 0 30 -12q12 -13 12 -30t-12 -30
q-13 -12 -30 -12v-22q0 -20 -13 -34t-30 -14q-18 0 -30 14q-13 14 -13 34v22h-87q-19 0 -31 15q-12 14 -12 34q0 6 1 12q2 7 6 14l127 206q15 22 38 22q19 0 32 -15q12 -14 12 -33v-171zM460 154v62l-38 -62h38zM135 530l10 4l9 6q10 6 10 15q0 22 -19 22q-8 0 -14 -4
q-4 -3 -7 -9q-15 -26 -38 -26q-16 0 -29 13q-14 14 -14 33q0 28 27 55q31 31 73 31q46 0 77 -32q28 -30 28 -72q0 -40 -29 -77q6 -6 11 -12q7 -9 12 -18q14 -25 14 -55q0 -43 -31 -76q-32 -34 -80 -34q-52 0 -85 36q-27 30 -27 62q0 19 12 33q12 12 29 14q27 3 34 -18
q11 -35 33 -35q12 0 20 6q10 7 10 20q0 19 -31 31q-30 16 -30 46q0 31 25 41z" />
            <glyph glyph-name="questiondown" unicode="&#xbf;" horiz-adv-x="384"
                   d="M205 342q27 0 47 -20q21 -23 21 -59q0 -104 -68 -159l-16 -11l-15 -12q-17 -14 -17 -32q0 -20 14 -34q13 -13 30 -13q16 0 26 9q4 3 9 8l8 9q24 27 57 27q24 0 45 -19q23 -20 23 -48q0 -42 -49 -82q-52 -42 -118 -42q-76 0 -132 52q-55 51 -55 120q0 61 29 102
q11 15 31 34l18 16l19 18q21 20 21 64q0 72 72 72zM231 -17q3 -4 8 -4q9 0 18 9q10 8 10 17q-1 5 -4 7q-2 2 -6 2q-5 0 -7 -2q-1 0 -5 -4l-3 -4l-4 -3q-10 -10 -10 -12q0 -3 3 -6zM93 167l-2 -1q-2 -2 -5 -4l-14 -14q-20 -21 -29 -43q-6 -16 -9 -27q-1 -4 -1 -8v-5
q0 -10 10 -10q5 0 8 6l3 5l2 4q12 42 52 79q6 5 6 11q0 11 -11 11q-4 0 -9 -3zM152 478q3 -2 8 -2q4 0 15 13l5 4l5 4q6 5 6 12q0 3 -3 6q-4 3 -8 3q-8 0 -20 -11q-12 -12 -12 -20q0 -6 4 -9zM252 410q-22 -22 -52 -22t-51 22q-22 21 -22 51t22 52q21 21 51 21t52 -21
q21 -22 21 -52t-21 -51z" />
            <glyph glyph-name="Adieresis" unicode="&#xc4;" horiz-adv-x="447"
                   d="M141 605q18 67 82 67t82 -67l144 -517q3 -9 3 -17q0 -30 -21 -50q-21 -21 -51 -21q-58 0 -70 56l-17 74h-139l-18 -74q-14 -56 -70 -56q-30 0 -50 21q-21 20 -21 50q0 8 3 17zM185 258h77l-39 160zM16 103q-1 -4 2 -7q3 -5 9 -5q7 0 9 5l6 19q1 4 -2 7q-4 3 -9 3
q-3 0 -6 -1t-4 -3zM170 616q3 -5 10 -5q4 0 9 5l5 5l6 5l16 16q0 14 -11 14q-9 0 -23 -11t-14 -19q0 -6 2 -10zM100 788q19 18 44 18q26 0 44 -18t18 -44q0 -25 -18 -44q-18 -18 -44 -18q-25 0 -44 18q-18 19 -18 44q0 26 18 44zM258 788q19 18 44 18q26 0 44 -18t18 -44
q0 -25 -18 -44q-18 -18 -44 -18q-25 0 -44 18q-18 19 -18 44q0 26 18 44zM105 754q4 -4 9 -2q2 1 6 6l4 4l4 4l4 3l4 3q5 5 5 9q0 10 -11 10q-7 0 -17 -9q-11 -10 -12 -18q-1 -6 4 -10zM263 754q4 -4 9 -2q2 1 6 6l4 4l4 4l4 3l4 3q5 5 5 9q0 10 -11 10q-7 0 -17 -9
q-11 -10 -12 -18q-1 -6 4 -10z" />
            <glyph glyph-name="Aring" unicode="&#xc5;" horiz-adv-x="447"
                   d="M141 605q18 67 82 67t82 -67l144 -517q3 -9 3 -17q0 -30 -21 -50q-21 -21 -51 -21q-58 0 -70 56l-17 74h-139l-18 -74q-14 -56 -70 -56q-30 0 -50 21q-21 20 -21 50q0 8 3 17zM185 258h77l-39 160zM16 103q-1 -4 2 -7q3 -5 9 -5q7 0 9 5l6 19q1 4 -2 7q-4 3 -9 3
q-3 0 -6 -1t-4 -3zM170 616q3 -5 10 -5q4 0 9 5l5 5l6 5l16 16q0 14 -11 14q-9 0 -23 -11t-14 -19q0 -6 2 -10zM151 845q-11 -13 -11 -21q0 -3 3 -6q3 -4 8 -4q6 0 14 12l5 6l5 5q6 6 6 10q0 5 -4 9q-3 2 -7 2q-7 0 -19 -13zM195 759q12 -12 28 -12q17 0 28 12q12 12 12 28
q0 17 -12 28q-11 12 -28 12q-16 0 -28 -12q-12 -11 -12 -28q0 -16 12 -28zM149 861q31 31 74 31q44 0 74 -31q31 -30 31 -74q0 -43 -31 -74q-30 -31 -74 -31q-43 0 -74 31t-31 74q0 44 31 74z" />
            <glyph glyph-name="AE" unicode="&#xc6;" horiz-adv-x="665"
                   d="M322 130h-140l-37 -76q-27 -54 -83 -54q-37 0 -56 26q-20 27 -2 62l267 513q36 67 99 67h206q29 0 50 -20q20 -21 20 -50t-20 -50q-21 -20 -50 -20h-108v-111h97q29 0 50 -20q20 -21 20 -50t-20 -50q-21 -20 -50 -20h-97v-137h122q29 0 50 -20q20 -21 20 -50t-20 -50
q-21 -20 -50 -20h-195q-73 0 -73 65v65zM244 258h78v160zM307 614q1 -5 8 -5q4 0 11 5l6 5l7 6l8 5l6 4q7 5 7 12t-8 7q-11 0 -27 -10q-16 -11 -18 -19q-2 -6 0 -10zM26 103q-2 -4 0 -8q2 -5 8 -6q8 -2 15 12l4 8q2 4 0 9q-2 3 -6 5l-3 1h-3q-4 -1 -6 -4z" />
            <glyph glyph-name="Edieresis" unicode="&#xcb;" horiz-adv-x="383"
                   d="M40 603q0 65 73 65h181q29 0 50 -20q20 -21 20 -50t-20 -50q-21 -20 -50 -20h-108v-111h97q29 0 50 -20q20 -21 20 -50t-20 -50q-21 -20 -50 -20h-97v-137h122q29 0 50 -20q20 -21 20 -50t-20 -50q-21 -20 -50 -20h-195q-73 0 -73 65v538zM80 615l5 6q3 4 7 7l3 2l4 3
q5 3 5 7q0 12 -12 12q-11 0 -22 -10q-12 -11 -12 -23q0 -5 2 -8q2 -4 7 -4q7 0 13 8zM80 788q19 18 44 18q26 0 44 -18t18 -44q0 -25 -18 -44q-18 -18 -44 -18q-25 0 -44 18q-18 19 -18 44q0 26 18 44zM238 788q19 18 44 18q26 0 44 -18t18 -44q0 -25 -18 -44
q-18 -18 -44 -18q-25 0 -44 18q-18 19 -18 44q0 26 18 44zM85 754q4 -4 9 -2q2 1 6 6l4 4l4 4l4 3l4 3q5 5 5 9q0 10 -11 10q-7 0 -17 -9q-11 -10 -12 -18q-1 -6 4 -10zM243 754q4 -4 9 -2q2 1 6 6l4 4l4 4l4 3l4 3q5 5 5 9q0 10 -11 10q-7 0 -17 -9q-11 -10 -12 -18
q-1 -6 4 -10z" />
            <glyph glyph-name="multiply" unicode="&#xd7;" horiz-adv-x="355"
                   d="M334 441q3 -26 -13 -47l-62 -81l63 -83q16 -21 13 -48q-4 -26 -24 -42q-21 -16 -48 -13q-26 4 -42 24l-44 56l-43 -56q-16 -20 -42 -24q-27 -3 -48 13q-20 16 -23 42q-4 27 12 48l64 83l-63 81q-16 21 -13 47t24 43q21 16 48 13q26 -3 42 -24l42 -55l43 55q16 21 42 24
q27 3 48 -13q21 -17 24 -43zM230 446q4 -4 9 -2q2 1 6 6l4 4l4 4l4 3l6 3q6 5 6 9q0 10 -11 10q-8 0 -19 -9q-12 -9 -13 -18q-1 -6 4 -10zM44 445q4 -4 9 -2q2 1 6 6l4 4l4 4l4 3l4 3q5 5 5 9q0 10 -11 10q-7 0 -17 -9q-11 -10 -12 -18q-1 -6 4 -10z" />
            <glyph glyph-name="edieresis" unicode="&#xeb;" horiz-adv-x="383"
                   d="M158 180l1 -3v-3q3 -48 39 -48q20 0 64 50q14 15 35 15q32 0 52 -20q19 -18 19 -45q0 -45 -44 -84q-49 -44 -117 -44q-81 0 -134 62q-48 58 -48 206q0 85 12 136q14 62 56 97q41 35 100 35q75 0 124 -51q45 -48 45 -114q0 -96 -86 -135zM156 311l64 33q11 6 11 21
q0 16 -9 28q-10 13 -27 13q-34 0 -37 -48q-2 -28 -2 -47zM70 413q8 0 13 12q27 51 65 67q16 5 16 14q0 10 -10 10t-27 -9q-19 -10 -32 -24q-35 -35 -36 -61q0 -9 11 -9zM249 323q10 7 11 17q0 11 -9 11q-3 0 -17 -12l-6 -5l-6 -4q-3 -3 -3 -6q0 -9 11 -9q10 0 19 8zM289 153
q11 10 11 15q0 9 -12 9q-7 0 -16 -6q-9 -7 -9 -15q0 -12 12 -12q3 0 14 9zM68 652q19 18 44 18q26 0 44 -18t18 -44q0 -25 -18 -44q-18 -18 -44 -18q-25 0 -44 18q-18 19 -18 44q0 26 18 44zM226 652q19 18 44 18q26 0 44 -18t18 -44q0 -25 -18 -44q-18 -18 -44 -18
q-25 0 -44 18q-18 19 -18 44q0 26 18 44zM73 618q4 -4 9 -2q2 1 6 6l4 4l4 4l4 3l4 3q5 5 5 9q0 10 -11 10q-7 0 -17 -9q-11 -10 -12 -18q-1 -6 4 -10zM231 618q4 -4 9 -2q2 1 6 6l4 4l4 4l4 3l4 3q5 5 5 9q0 10 -11 10q-7 0 -17 -9q-11 -10 -12 -18q-1 -6 4 -10z" />
            <glyph glyph-name="divide" unicode="&#xf7;" horiz-adv-x="390"
                   d="M160 456q4 -3 8 -1q2 1 6 5l3 4l4 3l4 3l4 3q4 4 4 8q0 9 -10 9q-6 0 -15 -8q-10 -9 -11 -16q-1 -6 3 -10zM39 363q19 19 45 19h222q26 0 45 -19t19 -45t-19 -45t-45 -19h-222q-26 0 -45 19t-19 45t19 45zM44 327q4 -2 9 -1q2 1 13 13l5 4l5 4q6 6 5 13q-2 10 -13 8
q-7 -1 -17 -12q-12 -11 -12 -19q0 -7 5 -10zM156 487q17 16 39 16q23 0 39 -16t16 -39q0 -22 -16 -39q-16 -16 -39 -16q-22 0 -39 16q-16 17 -16 39q0 23 16 39zM160 197q4 -3 8 -1q2 1 6 5l3 4l4 3l4 3l4 3q4 4 4 8q0 9 -10 9q-6 0 -15 -8q-10 -9 -11 -16q-1 -6 3 -10z
M156 228q17 16 39 16q23 0 39 -16t16 -39q0 -22 -16 -39q-16 -16 -39 -16q-22 0 -39 16q-16 17 -16 39q0 23 16 39z" />
            <glyph glyph-name="dotlessi" unicode="&#x131;" horiz-adv-x="208"
                   d="M58 479q3 -4 8 -4q7 0 13 9q2 3 6 5l6 4q6 5 6 11q0 4 -4 8q-3 4 -7 4q-11 0 -22 -12q-4 -4 -7 -9q-2 -5 -2 -7q0 -5 3 -9zM173 69q0 -28 -20 -49q-20 -20 -49 -20q-28 0 -49 20q-20 21 -20 49v394q0 29 20 49q21 20 49 20q29 0 49 -20t20 -49v-394z" />
            <glyph glyph-name="oe" unicode="&#x153;" horiz-adv-x="616"
                   d="M319 493q44 41 107 41q75 0 124 -51q45 -48 45 -114q0 -96 -86 -135l-118 -54l1 -3v-3q3 -48 39 -48q20 0 64 50q14 15 35 15q32 0 52 -20q19 -18 19 -45q0 -45 -44 -84q-49 -44 -117 -44q-70 0 -117 44q-49 -44 -116 -44q-58 0 -104 34q-46 35 -64 91q-14 43 -14 143
t14 143q18 56 64 91q46 34 104 34q65 0 112 -41zM389 312l64 32q11 6 11 21q0 16 -9 28q-10 13 -27 13q-34 0 -37 -48q-2 -28 -2 -46zM69 408q8 0 13 12q14 28 36 47q8 7 21 14l11 5l12 5q16 5 16 14q0 10 -10 10q-28 0 -63 -29q-18 -15 -31 -34q-15 -22 -16 -35q0 -9 11 -9
zM482 323q10 7 11 17q0 11 -9 11q-3 0 -17 -12l-6 -5l-6 -4q-3 -3 -3 -6q0 -9 11 -9q10 0 19 8zM522 153q11 10 11 15q0 9 -12 9q-7 0 -16 -6q-9 -7 -9 -15q0 -12 12 -12q3 0 14 9zM165 160q11 -34 42 -34t42 34q9 29 9 106t-9 106q-11 34 -42 34t-42 -34q-9 -29 -9 -106
t9 -106zM266 118q12 15 12 25q0 11 -11 11q-6 0 -9 -7l-2 -3l-2 -4q-3 -5 -7 -9q-3 -3 -7 -6l-5 -3l-3 -3q-3 -3 -3 -8q0 -10 11 -10q12 0 26 17zM303 413q8 0 13 12q27 51 65 67q16 5 16 14q0 10 -10 10t-27 -9q-19 -10 -32 -24q-35 -35 -36 -61q0 -9 11 -9z" />
            <glyph glyph-name="uni018F" unicode="&#x18f;" horiz-adv-x="490"
                   d="M321 406q-13 129 -85 129q-21 0 -41 -7l-7 -3l-6 -3q-8 -2 -16 -2q-25 0 -43 22q-19 21 -19 49q0 36 36 58q37 21 99 21q128 0 184 -108q42 -83 42 -228q0 -146 -44 -228q-58 -108 -194 -108q-202 0 -202 286q0 49 28 84q31 38 81 38h187zM162 266q2 -70 17 -99
q16 -34 53 -34q75 0 89 133h-159zM70 365q-10 -10 -10 -21q0 -4 2 -7q2 -4 5 -4l2 1h1l11 10q7 6 10 10q5 6 5 10q0 10 -9 10q-8 0 -17 -9zM126 619q-7 -11 -7 -20q0 -8 7 -8q4 0 15 13t11 17q0 10 -10 10q-9 0 -16 -12z" />
            <glyph glyph-name="florin" unicode="&#x192;" horiz-adv-x="309"
                   d="M171 465h54q27 0 47 -19q19 -20 19 -47t-19 -46q-20 -20 -47 -20h-54v-364q0 -28 -20 -49q-20 -20 -49 -20q-28 0 -49 20q-20 21 -20 49v537q0 68 50 118q53 54 134 54q82 0 82 -62q0 -30 -19 -49q-16 -17 -37 -18h-24q-14 -1 -23 -4q-25 -9 -25 -42v-38zM75 557q4 0 7 4
l3 4l1 3q18 39 67 60q5 2 9 6q5 5 5 10q0 10 -10 10q-7 0 -23 -8q-19 -10 -32 -22q-31 -28 -40 -53q-5 -14 13 -14z" />
            <glyph glyph-name="uni0259" unicode="&#x259;" horiz-adv-x="416"
                   d="M190 408q-10 0 -19 -2q-6 -1 -13 -4q-15 -6 -24 -6q-19 0 -34 21q-15 20 -15 44q0 30 29 51q31 22 79 22q109 0 159 -86q39 -68 39 -182q0 -113 -38 -181q-48 -87 -154 -87q-88 0 -136 54q-48 55 -48 159q0 55 54 91q46 31 95 31q40 0 90 -5q-10 80 -64 80zM203 223h-17
l-10 -2q-13 -2 -21 -6q-9 -5 -9 -14q0 -38 15 -59q12 -19 32 -19q26 0 42 23q15 20 15 45q0 12 -5 18q-10 14 -42 14zM83 287h-2l-4 -2q-7 -3 -13 -7q-18 -12 -18 -31q0 -8 8 -8q6 0 22 16q17 16 17 23q0 9 -10 9zM110 493q-7 -7 -7 -16t7 -9q9 0 17 9q7 7 7 13q0 5 -4 8
q-4 2 -8 2q-6 0 -12 -7z" />
            <glyph glyph-name="circumflex" unicode="&#x2c6;" horiz-adv-x="300"
                   d="M99 559q-14 -13 -34 -13q-19 0 -33 14q-13 14 -13 34q1 19 15 33l82 79q13 13 33 13t33 -13l82 -79q14 -14 15 -33q0 -20 -13 -34q-14 -14 -33 -14q-20 0 -34 13l-50 48zM40 594q4 -4 9 -2q2 1 6 7l4 5l4 4l4 3l4 3q5 5 5 9q0 10 -11 10q-7 0 -17 -10q-11 -10 -12 -19
q-1 -6 4 -10z" />
            <glyph glyph-name="caron" unicode="&#x2c7;" horiz-adv-x="300"
                   d="M149 657l50 48q14 13 34 13q19 0 33 -14q13 -14 13 -34q-1 -19 -15 -33l-82 -79q-13 -13 -33 -13t-33 13l-82 79q-14 14 -15 33q0 20 13 34q14 14 33 14q20 0 34 -13zM42 665q5 0 9 6l4 5l4 5l4 3l4 3q5 5 5 9q0 10 -11 10q-10 0 -19 -10q-10 -9 -10 -19q0 -12 10 -12z
" />
            <glyph glyph-name="uni02C9" unicode="&#x2c9;" horiz-adv-x="308"
                   d="M69 550q-20 0 -35 14q-14 15 -14 35t14 35q15 14 35 14h170q20 0 35 -14q14 -15 14 -35t-14 -35q-15 -14 -35 -14h-170zM38 599q4 -4 9 -2q2 1 6 6l4 4l4 4l4 3l4 3q5 5 5 9q0 10 -11 10q-8 0 -18 -9t-11 -18q-1 -6 4 -10z" />
            <glyph glyph-name="breve" unicode="&#x2d8;" horiz-adv-x="300"
                   d="M41 654q5 0 9 6l4 6l4 5l4 3l5 3q6 5 6 9q0 10 -11 10q-10 0 -21 -9q-11 -10 -10 -21q2 -12 10 -12zM63 572q-43 32 -43 89q0 44 48 44q32 0 33 -31q2 -40 49 -40t49 39q1 31 33 31q48 0 48 -43q0 -57 -43 -89q-36 -26 -87 -26t-87 26z" />
            <glyph glyph-name="dotaccent" unicode="&#x2d9;" horiz-adv-x="164"
                   d="M38 652q19 18 44 18q26 0 44 -18t18 -44q0 -25 -18 -44q-18 -18 -44 -18q-25 0 -44 18q-18 19 -18 44q0 26 18 44zM43 618q4 -4 9 -2q2 1 6 6l4 4l4 4l4 3l4 3q5 5 5 9q0 10 -11 10q-7 0 -17 -9q-11 -10 -12 -18q-1 -6 4 -10z" />
            <glyph glyph-name="ring" unicode="&#x2da;" horiz-adv-x="250"
                   d="M53 709q-11 -13 -11 -21q0 -3 3 -6q3 -4 8 -4q6 0 14 12l5 6l5 5q6 6 6 10q0 5 -4 9q-3 2 -7 2q-7 0 -19 -13zM97 623q12 -12 28 -12q17 0 28 12q12 12 12 28q0 17 -12 28q-11 12 -28 12q-16 0 -28 -12q-12 -11 -12 -28q0 -16 12 -28zM51 725q31 31 74 31q44 0 74 -31
q31 -30 31 -74q0 -43 -31 -74q-30 -31 -74 -31q-43 0 -74 31t-31 74q0 44 31 74z" />
            <glyph glyph-name="ogonek" unicode="&#x2db;" horiz-adv-x="176"
                   d="M151 -48q6 -13 2 -29q-10 -37 -46 -37q-34 0 -47 31l-37 92q-5 13 -2 29q3 15 17 27q14 11 31 11q35 0 46 -31z" />
            <glyph glyph-name="tilde" unicode="&#x2dc;" horiz-adv-x="318"
                   d="M54 600l2 4l1 4q7 16 21 28l2 2l2 2q2 2 3 5q1 4 -2 8q-2 5 -6 5q-10 0 -25 -20q-16 -21 -16 -34q0 -8 10 -8q5 0 8 4zM251 644q7 0 12 8q2 3 3 6t1 4q0 7 -6 8q-5 1 -11 -7q-6 -7 -6 -14q0 -5 7 -5zM167 657l12 -9l12 -8q12 -7 21 -7q10 0 21 25q11 24 31 24
q34 0 34 -43q0 -36 -23 -65q-26 -32 -65 -32q-14 0 -30 8q-11 5 -26 16q-33 24 -46 24t-25 -22q-12 -23 -30 -23q-13 0 -22 10q-11 12 -11 35q0 13 4 27q6 16 15 29q25 34 70 34q24 0 58 -23z" />
            <glyph glyph-name="hungarumlaut" unicode="&#x2dd;" horiz-adv-x="333"
                   d="M72 686q11 17 31 20q21 4 37 -8q17 -11 21 -31t-8 -37l-44 -63q-11 -17 -31 -20q-21 -4 -37 7q-17 12 -20 32q-4 20 7 36zM222 686q11 17 31 20q21 4 37 -8q17 -11 21 -31t-8 -37l-44 -63q-11 -17 -31 -20q-21 -4 -37 7q-17 12 -20 32q-4 20 7 36zM83 662q5 0 9 4l4 4
l3 3l4 2l4 3q4 3 4 8q0 9 -9 9q-8 0 -18 -7q-9 -8 -9 -15q0 -11 8 -11zM243 662q5 0 9 4l4 4l3 3l4 2l4 3q4 3 4 8q0 9 -9 9q-8 0 -18 -7q-9 -8 -9 -15q0 -11 8 -11z" />
            <glyph glyph-name="tonos" unicode="&#x384;" horiz-adv-x="132"
                   d="M47 647q14 21 40 21q16 0 28 -9q22 -14 22 -40q0 -14 -9 -28l-44 -63q-13 -21 -41 -21q-16 0 -27 8q-21 15 -21 41q0 16 8 27zM63 623q5 0 9 4l4 4l3 3l4 2l4 3q4 3 4 8q0 9 -9 9q-8 0 -18 -7q-9 -8 -9 -15q0 -11 8 -11z" />
            <glyph glyph-name="dieresistonos" unicode="&#x385;" horiz-adv-x="452"
                   d="M212 686q14 21 40 21q16 0 28 -9q22 -14 22 -40q0 -14 -9 -28l-44 -63q-13 -21 -41 -21q-16 0 -27 8q-21 15 -21 41q0 16 8 27zM228 662q5 0 9 4l4 4l3 3l4 2l4 3q4 3 4 8q0 9 -9 9q-8 0 -18 -7q-9 -8 -9 -15q0 -11 8 -11zM38 652q19 18 44 18q26 0 44 -18t18 -44
q0 -25 -18 -44q-18 -18 -44 -18q-25 0 -44 18q-18 19 -18 44q0 26 18 44zM326 652q19 18 44 18q26 0 44 -18t18 -44q0 -25 -18 -44q-18 -18 -44 -18q-25 0 -44 18q-18 19 -18 44q0 26 18 44zM43 618q4 -4 9 -2q2 1 6 6l4 4l4 4l4 3l4 3q5 5 5 9q0 10 -11 10q-7 0 -17 -9
q-11 -10 -12 -18q-1 -6 4 -10zM331 618q4 -4 9 -2q2 1 6 6l4 4l4 4l4 3l4 3q5 5 5 9q0 10 -11 10q-7 0 -17 -9q-11 -10 -12 -18q-1 -6 4 -10z" />
            <glyph glyph-name="uni0401" unicode="&#x401;" horiz-adv-x="383"
                   d="M40 603q0 65 73 65h181q29 0 50 -20q20 -21 20 -50t-20 -50q-21 -20 -50 -20h-108v-111h97q29 0 50 -20q20 -21 20 -50t-20 -50q-21 -20 -50 -20h-97v-137h122q29 0 50 -20q20 -21 20 -50t-20 -50q-21 -20 -50 -20h-195q-73 0 -73 65v538zM80 615l5 6q3 4 7 7l3 2l4 3
q5 3 5 7q0 12 -12 12q-11 0 -22 -10q-12 -11 -12 -23q0 -5 2 -8q2 -4 7 -4q7 0 13 8zM80 788q19 18 44 18q26 0 44 -18t18 -44q0 -25 -18 -44q-18 -18 -44 -18q-25 0 -44 18q-18 19 -18 44q0 26 18 44zM238 788q19 18 44 18q26 0 44 -18t18 -44q0 -25 -18 -44
q-18 -18 -44 -18q-25 0 -44 18q-18 19 -18 44q0 26 18 44zM85 754q4 -4 9 -2q2 1 6 6l4 4l4 4l4 3l4 3q5 5 5 9q0 10 -11 10q-7 0 -17 -9q-11 -10 -12 -18q-1 -6 4 -10zM243 754q4 -4 9 -2q2 1 6 6l4 4l4 4l4 3l4 3q5 5 5 9q0 10 -11 10q-7 0 -17 -9q-11 -10 -12 -18
q-1 -6 4 -10z" />
            <glyph glyph-name="uni0405" unicode="&#x405;" horiz-adv-x="436"
                   d="M356 61q-58 -63 -149 -63q-84 0 -145 61q-52 53 -52 105q0 26 19 47q21 23 51 23q45 0 67 -48q25 -54 64 -54q25 0 45 18q20 20 20 48q0 46 -31 70q-18 14 -75 33q-142 48 -142 192q0 69 55 123q56 54 132 54q48 0 90 -23q75 -40 75 -94q0 -32 -21 -51q-20 -18 -48 -18
q-30 0 -52 24q-26 26 -42 26q-22 0 -38 -17q-14 -16 -14 -34q0 -33 38 -53q13 -7 35 -14l17 -6l17 -6q139 -53 139 -194q0 -88 -55 -149zM242 108q3 -3 6 -3q15 0 36 20q21 19 21 34q0 14 -12 14q-6 0 -12 -10l-3 -5l-4 -5q-5 -8 -10 -13l-8 -6l-9 -7q-10 -7 -8 -14
q1 -3 3 -5zM68 529q3 0 7 5l2 4l2 3l12 20q7 12 15 21q20 22 52 35q16 6 16 20q0 3 -4 5q-3 2 -7 2q-32 0 -71 -40q-37 -38 -37 -59q0 -16 13 -16zM43 207q-10 -10 -10 -19q0 -8 8 -8q9 0 19 10l4 3l4 4q4 3 4 9q0 12 -12 10q-8 -1 -17 -9z" />
            <glyph glyph-name="uni0406" unicode="&#x406;" horiz-adv-x="226"
                   d="M40 602q0 66 73 66t73 -66v-537q0 -65 -73 -65t-73 65v537zM80 615l5 6q3 4 7 7l3 2l4 3q5 3 5 7q0 12 -12 12q-11 0 -22 -10q-12 -11 -12 -23q0 -5 2 -8q2 -4 7 -4q7 0 13 8z" />
            <glyph glyph-name="uni0408" unicode="&#x408;" horiz-adv-x="414"
                   d="M230 602q0 66 73 66t73 -66v-419q0 -75 -53 -130t-128 -55q-81 0 -138 56q-52 51 -52 112q0 29 17 50q19 23 50 23q34 0 44 -25l5 -12l4 -13q5 -14 10 -22q15 -22 47 -22q19 0 33 12q15 12 15 32v413zM270 615l5 6q3 4 7 7l3 2l4 3q5 3 5 7q0 12 -12 12q-11 0 -22 -10
q-12 -11 -12 -23q0 -5 2 -8q2 -4 7 -4q7 0 13 8zM38 215q-8 -9 -8 -20q0 -3 2 -6q3 -4 6 -4q4 0 8 5l3 4q2 2 5 3q10 3 10 13q0 12 -11 12q-8 0 -15 -7zM236 158l-5 -6q-4 -5 -7 -8q-4 -3 -8 -5l-3 -2l-3 -2q-5 -3 -5 -9q0 -12 12 -12q11 0 25 13q16 14 16 26q0 5 -2 8
q-2 4 -7 4q-7 0 -13 -7z" />
            <glyph glyph-name="uni0410" unicode="&#x410;" horiz-adv-x="447"
                   d="M141 605q18 67 82 67t82 -67l144 -517q3 -9 3 -17q0 -30 -21 -50q-21 -21 -51 -21q-58 0 -70 56l-17 74h-139l-18 -74q-14 -56 -70 -56q-30 0 -50 21q-21 20 -21 50q0 8 3 17zM185 258h77l-39 160zM16 103q-1 -4 2 -7q3 -5 9 -5q7 0 9 5l6 19q1 4 -2 7q-4 3 -9 3
q-3 0 -6 -1t-4 -3zM170 616q3 -5 10 -5q4 0 9 5l5 5l6 5l16 16q0 14 -11 14q-9 0 -23 -11t-14 -19q0 -6 2 -10z" />
            <glyph glyph-name="uni0411" unicode="&#x411;" horiz-adv-x="461"
                   d="M192 275q-6 0 -6 -4v-128q0 -6 6 -6h46q25 0 40 18q16 17 16 44q0 32 -19 54q-20 22 -49 22h-34zM299 125q20 17 20 29q0 4 -3 7q-4 4 -8 4q-6 0 -14 -11l-4 -5l-4 -5q-6 -5 -13 -9l-4 -2l-3 -2q-5 -4 -5 -9q0 -4 4 -8q3 -4 6 -4q9 0 28 15zM80 615l5 6q3 4 7 7l3 2l4 3
q5 3 5 7q0 12 -12 12q-11 0 -22 -10q-12 -11 -12 -23q0 -5 2 -8q2 -4 7 -4q7 0 13 8zM192 528q-6 0 -6 -4v-107q0 -5 6 -5h45q28 0 57 -8q38 -10 67 -31q80 -57 80 -179q0 -84 -57 -139q-58 -55 -147 -55h-124q-73 0 -73 65v537q0 66 73 66h198q29 0 50 -20q20 -21 20 -50
t-20 -50q-21 -20 -50 -20h-119z" />
            <glyph glyph-name="uni0412" unicode="&#x412;" horiz-adv-x="461"
                   d="M113 0q-73 0 -73 65v537q0 66 73 66h117q70 0 123 -51q56 -53 56 -131q0 -53 -28 -98q-15 -22 -29 -34q22 -12 45 -39q44 -52 44 -121q0 -84 -57 -139q-58 -55 -147 -55h-124zM192 275q-6 0 -6 -5v-127q0 -6 6 -6h46q25 0 40 18q16 17 16 44q0 31 -20 54q-20 22 -48 22
h-34zM186 419q0 -6 6 -6h30q23 0 37 17q12 15 12 36q0 65 -54 65h-25q-6 0 -6 -6v-106zM299 125q20 17 20 29q0 4 -3 7q-4 4 -8 4q-6 0 -14 -11l-4 -5l-4 -5q-6 -5 -13 -9l-4 -2l-3 -2q-5 -4 -5 -9q0 -4 4 -8q3 -4 6 -4q9 0 28 15zM274 393q16 12 16 24q0 4 -3 7q-4 4 -8 4
q-5 0 -9 -6l-3 -3l-3 -3q-5 -4 -12 -8l-4 -2l-3 -2q-5 -4 -5 -9q0 -4 4 -8q3 -4 6 -4q9 0 24 10zM80 615l5 6q3 4 7 7l3 2l4 3q5 3 5 7q0 12 -12 12q-11 0 -22 -10q-12 -11 -12 -23q0 -5 2 -8q2 -4 7 -4q7 0 13 8z" />
            <glyph glyph-name="uni0413" unicode="&#x413;" horiz-adv-x="374"
                   d="M80 615l5 6q3 4 7 7l3 2l4 3q5 3 5 7q0 12 -12 12q-11 0 -22 -10q-12 -11 -12 -23q0 -5 2 -8q2 -4 7 -4q7 0 13 8zM40 603q0 65 73 65h191q29 0 50 -20q20 -21 20 -50t-20 -50q-21 -20 -50 -20h-118v-462q0 -66 -73 -66t-73 66v537z" />
            <glyph glyph-name="uni0414" unicode="&#x414;" horiz-adv-x="530"
                   d="M329 140v388h-102v-221q0 -108 -20 -167h122zM96 161q-4 4 -10 3q-5 0 -8 -6l-1 -4l-1 -3q-2 -4 -6 -8q-3 -3 -7 -6l-2 -2l-3 -2q-4 -3 -3 -10q0 -13 12 -11q10 1 22 15t11 26q-1 5 -4 8zM121 615l5 6q3 4 7 7l3 2l4 3q5 3 5 7q0 12 -12 12q-11 0 -22 -10
q-12 -11 -12 -23q0 -5 2 -8q2 -4 7 -4q7 0 13 8zM475 140h13q52 0 52 -49v-132q0 -50 -64 -50t-64 50v41h-294v-41q0 -50 -64 -50t-64 50v133q0 48 41 48h4l7 1q4 0 8 2q9 5 15 20q16 38 16 144v296q0 65 73 65h248q73 0 73 -65v-463z" />
            <glyph glyph-name="uni0415" unicode="&#x415;" horiz-adv-x="383"
                   d="M40 603q0 65 73 65h181q29 0 50 -20q20 -21 20 -50t-20 -50q-21 -20 -50 -20h-108v-111h97q29 0 50 -20q20 -21 20 -50t-20 -50q-21 -20 -50 -20h-97v-137h122q29 0 50 -20q20 -21 20 -50t-20 -50q-21 -20 -50 -20h-195q-73 0 -73 65v538zM80 615l5 6q3 4 7 7l3 2l4 3
q5 3 5 7q0 12 -12 12q-11 0 -22 -10q-12 -11 -12 -23q0 -5 2 -8q2 -4 7 -4q7 0 13 8z" />
            <glyph glyph-name="uni0416" unicode="&#x416;" horiz-adv-x="670"
                   d="M408 456l99 177q20 35 60 35q31 0 55 -20q25 -21 25 -48q0 -11 -6 -22l-110 -195l128 -284q6 -13 6 -27q0 -29 -21 -50q-22 -22 -53 -22q-48 0 -65 39l-85 192l-33 -52v-114q0 -65 -73 -65t-73 65v114l-34 52l-84 -192q-17 -39 -65 -39q-31 0 -53 22q-21 21 -21 50
q0 14 6 27l128 284l-110 195q-6 11 -6 22q0 27 25 48q24 20 55 20q40 0 60 -35l99 -177v146q0 66 73 66t73 -66v-146zM302 615l5 6q3 4 7 7l3 2l4 3q5 3 5 7q0 12 -12 12q-11 0 -22 -10q-12 -11 -12 -23q0 -5 2 -8q2 -4 7 -4q7 0 13 8zM542 616l5 6q3 4 6 7l3 2l4 4q5 4 5 8
q-1 10 -13 10q-11 -1 -21 -10q-11 -11 -10 -22q0 -4 2 -8q3 -4 8 -4q7 1 11 7zM81 626l3 2l4 3q5 4 5 8q-1 10 -13 10q-11 -1 -20 -8q-11 -9 -11 -20q0 -4 2 -7q3 -4 8 -4q1 0 22 16z" />
            <glyph glyph-name="uni0417" unicode="&#x417;" horiz-adv-x="396"
                   d="M147 401q40 2 59 27q7 9 10 20q3 9 3 18q0 31 -19 50q-21 20 -56 20q-13 0 -24 -2q-8 -2 -17 -6q-19 -8 -29 -8q-25 0 -43 22q-19 21 -19 49q0 44 54 64q20 8 48 12q22 3 45 3q78 0 134 -47q62 -51 62 -134q0 -64 -35 -115q-18 -25 -36 -38q22 -7 44 -29q19 -19 29 -44
q14 -31 14 -71q0 -89 -60 -142q-57 -52 -147 -52q-22 0 -45 3q-30 4 -52 12q-62 22 -62 67q0 28 18 51t42 23q9 0 20 -3l19 -7q27 -11 45 -11q80 0 80 70q0 10 -2 19q-4 13 -11 23q-21 26 -69 26h-5q-30 0 -50 18t-20 47t20 47t50 18h5zM98 371q-10 -12 -8 -23q1 -4 4 -7
q4 -2 8 -1l14 15l4 4l5 4q4 4 3 10q-1 8 -11 8q-9 0 -19 -10zM32 617q-5 -9 -5 -18q0 -3 4 -5q3 -3 6 -3q5 0 8 5l3 5l4 4q6 5 8 8q3 5 2 10q-2 8 -12 8t-18 -14zM35 125l-3 -7q-1 -4 -1 -7q1 -8 10 -8q1 0 13 10q6 5 8 8q3 5 2 10q-2 8 -11 8q-10 0 -18 -14z" />
            <glyph glyph-name="uni0418" unicode="&#x418;" horiz-adv-x="504"
                   d="M180 42q-22 -42 -67 -42q-73 0 -73 65v537q0 66 73 66t73 -66v-248l141 276q20 38 64 38q73 0 73 -66v-537q0 -65 -73 -65t-73 65v247zM363 615l5 6q3 4 7 7l3 2l4 3q5 3 5 7q0 12 -12 12q-11 0 -22 -10q-12 -11 -12 -23q0 -5 2 -8q2 -4 7 -4q7 0 13 8zM80 615l5 6
q3 4 7 7l3 2l4 3q5 3 5 7q0 12 -12 12q-11 0 -22 -10q-12 -11 -12 -23q0 -5 2 -8q2 -4 7 -4q7 0 13 8z" />
            <glyph glyph-name="uni0419" unicode="&#x419;" horiz-adv-x="504"
                   d="M132 786q5 0 9 6l4 6l4 5l4 3l5 3q6 5 6 9q0 10 -11 10q-10 0 -21 -9q-11 -10 -10 -21q2 -12 10 -12zM159 704q-48 32 -48 89q0 44 48 44q32 0 33 -31q2 -40 59 -40t59 39q1 31 33 31q48 0 48 -43q0 -57 -48 -89q-40 -26 -92 -26t-92 26zM180 42q-22 -42 -67 -42
q-73 0 -73 65v537q0 66 73 66t73 -66v-248l141 276q20 38 64 38q73 0 73 -66v-537q0 -65 -73 -65t-73 65v247zM363 615l5 6q3 4 7 7l3 2l4 3q5 3 5 7q0 12 -12 12q-11 0 -22 -10q-12 -11 -12 -23q0 -5 2 -8q2 -4 7 -4q7 0 13 8zM80 615l5 6q3 4 7 7l3 2l4 3q5 3 5 7
q0 12 -12 12q-11 0 -22 -10q-12 -11 -12 -23q0 -5 2 -8q2 -4 7 -4q7 0 13 8z" />
            <glyph glyph-name="uni041A" unicode="&#x41a;" horiz-adv-x="457"
                   d="M40 602q0 66 73 66t73 -66v-142l109 177q19 31 58 31q28 0 54 -20q26 -22 26 -49q0 -12 -8 -26l-125 -203l143 -266q19 -35 -3 -69q-22 -35 -64 -35q-44 0 -62 35l-101 193l-27 -43v-120q0 -65 -73 -65t-73 65v537zM80 615l5 6q3 4 7 7l3 2l4 3q5 3 5 7q0 12 -12 12
q-11 0 -22 -10q-12 -11 -12 -23q0 -5 2 -8q2 -4 7 -4q7 0 13 8zM329 618l5 6q3 3 7 6l3 2l4 3q5 4 5 8q0 11 -12 11q-11 0 -21 -9q-12 -9 -12 -21q0 -5 2 -8q2 -4 7 -4q7 0 12 6z" />
            <glyph glyph-name="uni041B" unicode="&#x41b;" horiz-adv-x="525"
                   d="M237 307q-1 -32 -3 -59q-5 -69 -20 -118q-38 -132 -147 -132q-77 0 -77 76q0 71 45 71q29 0 40 31q16 44 16 174v253q0 65 73 65h248q73 0 73 -65v-537q0 -66 -73 -66t-73 66v462h-102v-221zM104 162q-4 4 -10 4t-10 -6l-4 -7q-2 -4 -6 -7q-3 -3 -7 -6l-3 -2l-3 -1
q-4 -3 -4 -10q0 -12 12 -12q10 0 24 13q14 14 14 26q0 4 -3 8zM131 615l5 6q3 4 7 7l3 2l4 3q5 3 5 7q0 12 -12 12q-11 0 -22 -10q-12 -11 -12 -23q0 -5 2 -8q2 -4 7 -4q7 0 13 8z" />
            <glyph glyph-name="uni041C" unicode="&#x41c;" horiz-adv-x="646"
                   d="M469 629q20 39 64 39q73 0 73 -66v-537q0 -65 -73 -65t-73 65v257l-74 -148q-20 -38 -63 -38q-45 0 -63 38l-74 148v-257q0 -65 -73 -65t-73 65v537q0 66 73 66q44 0 64 -39l146 -282zM80 615l5 6q3 4 7 7l3 2l4 3q5 3 5 7q0 12 -12 12q-11 0 -22 -10q-12 -11 -12 -23
q0 -5 2 -8q2 -4 7 -4q7 0 13 8zM505 615l5 6q3 4 7 7l3 2l4 3q5 3 5 7q0 12 -12 12q-11 0 -22 -10q-12 -11 -12 -23q0 -5 2 -8q2 -4 7 -4q7 0 13 8z" />
            <glyph glyph-name="uni041D" unicode="&#x41d;" horiz-adv-x="484"
                   d="M298 277h-112v-212q0 -65 -73 -65t-73 65v537q0 66 73 66t73 -66v-185h112v185q0 66 73 66t73 -66v-537q0 -65 -73 -65t-73 65v212zM337 615l5 6q3 4 7 7l3 2l4 3q5 3 5 7q0 12 -12 12q-11 0 -22 -10q-12 -11 -12 -23q0 -5 2 -8q2 -4 7 -4q7 0 13 8zM80 615l5 6q3 4 7 7
l3 2l4 3q5 3 5 7q0 12 -12 12q-11 0 -22 -10q-12 -11 -12 -23q0 -5 2 -8q2 -4 7 -4q7 0 13 8z" />
            <glyph glyph-name="uni041E" unicode="&#x41e;" horiz-adv-x="492"
                   d="M447 166q-21 -79 -76 -124q-54 -44 -125 -44t-125 44q-55 45 -76 124q-15 58 -15 168t15 168q21 79 76 125q54 43 125 43t125 -43q55 -46 76 -125q15 -58 15 -168t-15 -168zM95 527l3 4l1 3q19 37 45 58q10 9 21 15l10 6l9 4l6 3l6 3q7 5 7 12q0 5 -2 9q-3 4 -8 4
q-12 0 -33 -11q-21 -12 -34 -24q-19 -18 -33 -39q-19 -26 -19 -42q0 -3 4 -6q5 -3 10 -3q3 0 7 4zM316 123q23 20 23 35q0 10 -12 10q-5 0 -9 -3l-3 -4l-2 -3q-13 -20 -32 -29l-3 -2l-3 -2q-4 -3 -4 -8q0 -13 12 -13t33 19zM181 185q16 -50 65 -50t65 50q12 38 12 149
t-12 149q-16 50 -65 50t-65 -50q-12 -38 -12 -149t12 -149z" />
            <glyph glyph-name="uni041F" unicode="&#x41f;" horiz-adv-x="484"
                   d="M80 615l5 6q3 4 7 7l3 2l4 3q5 3 5 7q0 12 -12 12q-11 0 -22 -10q-12 -11 -12 -23q0 -5 2 -8q2 -4 7 -4q7 0 13 8zM444 66q0 -66 -73 -66t-73 66v462h-112v-462q0 -66 -73 -66t-73 66v537q0 65 73 65h258q73 0 73 -65v-537z" />
            <glyph glyph-name="uni0420" unicode="&#x420;" horiz-adv-x="432"
                   d="M40 602q0 66 73 66h120q78 0 129 -56q52 -57 52 -146q0 -79 -45 -134q-49 -59 -128 -59h-55v-208q0 -65 -73 -65t-73 65v537zM226 410q23 0 38 18q13 17 13 39q0 26 -13 44q-14 20 -41 20h-31q-6 0 -6 -6v-109q0 -6 6 -6h34zM283 395q15 13 15 25q0 4 -3 7q-4 4 -8 4
q-5 0 -10 -7l-2 -4l-4 -4q-4 -4 -10 -8l-4 -2l-3 -2q-5 -4 -5 -9q0 -4 4 -8q3 -4 6 -4q9 0 24 12zM80 615l5 6q3 4 7 7l3 2l4 3q5 3 5 7q0 12 -12 12q-11 0 -22 -10q-12 -11 -12 -23q0 -5 2 -8q2 -4 7 -4q7 0 13 8z" />
            <glyph glyph-name="uni0421" unicode="&#x421;" horiz-adv-x="459"
                   d="M68 109q-38 80 -38 225q0 147 40 228q53 108 180 108q80 0 134 -54q48 -48 48 -100q0 -29 -21 -50q-21 -20 -49 -20q-42 0 -68 50q-20 37 -49 37q-49 0 -64 -60q-10 -38 -10 -139q0 -106 10 -143q16 -57 67 -57q46 0 52 42q8 62 69 62q32 0 52 -19t20 -50q0 -67 -50 -116
q-56 -55 -144 -55q-126 0 -179 111zM336 215q-13 -9 -13 -20q0 -4 3 -8q4 -4 8 -3q1 0 17 12l5 3l5 3q5 3 5 9q0 12 -10 12q-9 0 -20 -8zM95 527l3 4l1 3q19 37 45 59q10 8 22 15l10 6l9 4l6 3l6 3q7 5 7 12q0 12 -10 12q-12 0 -33 -11t-35 -24q-18 -16 -33 -39
q-17 -26 -17 -42q0 -3 3 -6q4 -3 9 -3q3 0 7 4z" />
            <glyph glyph-name="uni0422" unicode="&#x422;" horiz-adv-x="402"
                   d="M273 528v-463q0 -65 -73 -65t-73 65v463h-57q-29 0 -50 20q-20 21 -20 50t20 50q21 20 50 20h262q29 0 50 -20q20 -21 20 -50t-20 -50q-21 -20 -50 -20h-59zM42 615l6 6q3 4 7 7l3 2l4 3q5 3 5 7q0 12 -12 12q-10 0 -22 -10q-13 -12 -13 -23q0 -5 2 -8q2 -4 7 -4
q7 0 13 8z" />
            <glyph glyph-name="uni0423" unicode="&#x423;" horiz-adv-x="440"
                   d="M149 273l-121 297l-2 5l-2 7q-3 8 -3 14q0 29 23 51q22 21 53 21q46 0 63 -43l66 -173l88 187q14 29 54 29q30 0 53 -19q24 -21 24 -52q0 -6 -2 -14q-3 -8 -5 -13l-170 -389q-43 -97 -81 -137q-44 -46 -106 -46q-33 0 -58 19q-28 21 -28 54q0 24 13 44q15 23 39 20
q40 -4 62 46zM49 607q10 -3 20 9q3 5 7 8l3 3l3 2q5 5 5 10q0 11 -11 11q-12 0 -24 -12q-11 -11 -11 -20q0 -8 8 -11zM340 612l4 6l4 5q13 15 13 16q0 14 -11 14q-12 0 -22 -14q-9 -12 -9 -21q0 -5 4 -9q4 -3 9 -3q3 0 8 6z" />
            <glyph glyph-name="uni0424" unicode="&#x424;" horiz-adv-x="599"
                   d="M354 644q103 -17 162 -100q58 -83 58 -211q0 -130 -60 -212q-58 -80 -160 -98v-50q0 -22 -16 -39q-16 -16 -39 -16q-22 0 -39 16q-16 17 -16 39v50q-103 18 -161 100t-58 210q0 131 59 213q58 81 160 98v51q0 23 16 39q17 16 39 16q23 0 39 -16t16 -39v-51zM354 507v-347
q84 40 84 173q0 132 -84 174zM244 160v347q-83 -41 -83 -174t83 -173zM115 523l3 3l2 2q26 32 47 47q22 16 43 21q8 1 13 4q8 3 9 10v4l-2 4q-2 5 -8 5q-11 0 -31 -8q-18 -8 -32 -18q-20 -11 -39 -30q-23 -22 -24 -36q0 -4 3 -8q4 -4 8 -4q3 0 8 4zM416 156q18 18 18 32
q0 4 -3 8t-7 4q-5 0 -8 -3l-2 -3l-2 -3q-9 -16 -30 -29l-3 -2l-3 -3q-3 -3 -2 -8q0 -4 3 -7q4 -4 9 -4q12 0 30 18zM274 730q-12 -10 -12 -20q0 -4 2 -6q2 -3 8 -3q3 0 8 4l5 4l5 4l4 3l5 4q6 4 6 9q0 9 -10 9q-9 0 -21 -8z" />
            <glyph glyph-name="uni0425" unicode="&#x425;" horiz-adv-x="471"
                   d="M235 488l73 141q4 7 9 12q6 8 13 13q18 14 43 14q31 0 52 -22q21 -21 21 -52q0 -19 -7 -32l-108 -209l126 -244q9 -16 9 -37q0 -29 -21 -50q-21 -22 -53 -22q-27 0 -48 19q-7 7 -13 15l-4 6l-2 3l-1 2l-89 173l-88 -173l-1 -2l-2 -3l-4 -6q-6 -8 -13 -15q-21 -19 -48 -19
q-32 0 -53 22q-21 21 -21 50q0 21 9 37l126 244l-108 209q-7 13 -7 32q0 31 21 52q21 22 52 22q25 0 43 -14q7 -5 13 -13q5 -5 9 -12zM345 615l5 6q3 4 7 7l3 2l4 3q5 3 5 7q0 12 -12 12q-11 0 -22 -10q-12 -11 -12 -23q0 -5 2 -8q2 -4 7 -4q7 0 13 8zM71 615l5 6q3 4 7 7
l3 2l4 3q5 3 5 7q0 12 -12 12q-11 0 -22 -10q-12 -11 -12 -23q0 -5 2 -8q2 -4 7 -4q7 0 13 8z" />
            <glyph glyph-name="uni0426" unicode="&#x426;" horiz-adv-x="499"
                   d="M381 -41v41h-268q-73 0 -73 65v537q0 66 73 66t73 -66v-462h112v462q0 66 73 66t73 -66v-462h13q52 0 52 -49v-132q0 -50 -64 -50t-64 50zM80 615l5 6q3 4 7 7l3 2l4 3q5 3 5 7q0 12 -12 12q-11 0 -22 -10q-12 -11 -12 -23q0 -5 2 -8q2 -4 7 -4q7 0 13 8zM337 615l5 6
q3 4 7 7l3 2l4 3q5 3 5 7q0 12 -12 12q-11 0 -22 -10q-12 -11 -12 -23q0 -5 2 -8q2 -4 7 -4q7 0 13 8z" />
            <glyph glyph-name="uni0427" unicode="&#x427;" horiz-adv-x="482"
                   d="M298 206q-24 -8 -57 -8q-86 0 -143 56q-60 57 -60 147v201q0 66 73 66t73 -66v-205q0 -23 17 -41q18 -19 43 -19q33 0 54 11v254q0 66 73 66t73 -66v-537q0 -65 -73 -65t-73 65v141zM338 615l5 6q3 4 7 7l3 2l4 3q5 3 5 7q0 12 -12 12q-11 0 -22 -10q-12 -11 -12 -23
q0 -5 2 -8q2 -4 7 -4q7 0 13 8zM78 615l5 6q3 4 7 7l3 2l4 3q5 3 5 7q0 12 -12 12q-11 0 -22 -10q-12 -11 -12 -23q0 -5 2 -8q2 -4 7 -4q7 0 13 8z" />
            <glyph glyph-name="uni0428" unicode="&#x428;" horiz-adv-x="722"
                   d="M682 65q0 -65 -73 -65h-496q-73 0 -73 65v537q0 66 73 66t73 -66v-462h102v462q0 66 73 66t73 -66v-462h102v462q0 66 73 66t73 -66v-537zM328 615l5 6q3 4 7 7l3 2l4 3q5 3 5 7q0 12 -12 12q-11 0 -22 -10q-12 -11 -12 -23q0 -5 2 -8q2 -4 7 -4q7 0 13 8zM80 615l5 6
q3 4 7 7l3 2l4 3q5 3 5 7q0 12 -12 12q-11 0 -22 -10q-12 -11 -12 -23q0 -5 2 -8q2 -4 7 -4q7 0 13 8zM576 615l5 6q3 4 7 7l3 2l4 3q5 3 5 7q0 12 -12 12q-11 0 -22 -10q-12 -11 -12 -23q0 -5 2 -8q2 -4 7 -4q7 0 13 8z" />
            <glyph glyph-name="uni0429" unicode="&#x429;" horiz-adv-x="737"
                   d="M619 -41v41h-506q-73 0 -73 65v537q0 66 73 66t73 -66v-462h102v462q0 66 73 66t73 -66v-462h102v462q0 66 73 66t73 -66v-462h13q52 0 52 -49v-132q0 -50 -64 -50t-64 50zM328 615l5 6q3 4 7 7l3 2l4 3q5 3 5 7q0 12 -12 12q-11 0 -22 -10q-12 -11 -12 -23q0 -5 2 -8
q2 -4 7 -4q7 0 13 8zM80 615l5 6q3 4 7 7l3 2l4 3q5 3 5 7q0 12 -12 12q-11 0 -22 -10q-12 -11 -12 -23q0 -5 2 -8q2 -4 7 -4q7 0 13 8zM576 615l5 6q3 4 7 7l3 2l4 3q5 3 5 7q0 12 -12 12q-11 0 -22 -10q-12 -11 -12 -23q0 -5 2 -8q2 -4 7 -4q7 0 13 8z" />
            <glyph glyph-name="uni042A" unicode="&#x42a;" horiz-adv-x="541"
                   d="M272 275q-6 0 -6 -4v-128q0 -6 6 -6h46q25 0 40 18q16 17 16 44q0 32 -19 54q-20 22 -49 22h-34zM379 125q20 17 20 29q0 4 -3 7q-4 4 -8 4q-6 0 -14 -11l-4 -5l-4 -5q-6 -5 -13 -9l-4 -2l-3 -2q-5 -4 -5 -9q0 -4 4 -8q3 -4 6 -4q9 0 28 15zM70 527q-29 0 -50 20
q-20 21 -20 50t20 50q21 20 50 20h123q73 0 73 -65v-185q0 -5 6 -5h45q28 0 57 -8q38 -10 67 -31q80 -57 80 -179q0 -84 -57 -139q-58 -55 -147 -55h-124q-73 0 -73 65v462h-50zM43 614l5 6q3 4 7 7l3 2l4 3q5 3 5 7q0 12 -12 12q-11 0 -22 -10q-12 -11 -12 -23q0 -5 2 -8
q2 -4 7 -4q7 0 13 8z" />
            <glyph glyph-name="uni042B" unicode="&#x42b;" horiz-adv-x="681"
                   d="M495 602q0 66 73 66t73 -66v-537q0 -65 -73 -65t-73 65v537zM535 615l5 6q3 4 7 7l3 2l4 3q5 3 5 7q0 12 -12 12q-11 0 -22 -10q-12 -11 -12 -23q0 -5 2 -8q2 -4 7 -4q7 0 13 8zM192 275q-6 0 -6 -4v-128q0 -6 6 -6h46q25 0 40 18q16 17 16 44q0 32 -19 54q-20 22 -49 22
h-34zM299 125q20 17 20 29q0 4 -3 7q-4 4 -8 4q-6 0 -14 -11l-4 -5l-4 -5q-6 -5 -13 -9l-4 -2l-3 -2q-5 -4 -5 -9q0 -4 4 -8q3 -4 6 -4q9 0 28 15zM80 615l5 6q3 4 7 7l3 2l4 3q5 3 5 7q0 12 -12 12q-11 0 -22 -10q-12 -11 -12 -23q0 -5 2 -8q2 -4 7 -4q7 0 13 8zM237 412
q28 0 57 -8q38 -10 67 -31q80 -57 80 -179q0 -84 -57 -139q-58 -55 -147 -55h-124q-73 0 -73 65v537q0 66 73 66t73 -66v-185q0 -5 6 -5h45z" />
            <glyph glyph-name="uni042C" unicode="&#x42c;" horiz-adv-x="461"
                   d="M192 275q-6 0 -6 -4v-128q0 -6 6 -6h46q25 0 40 18q16 17 16 44q0 32 -19 54q-20 22 -49 22h-34zM299 125q20 17 20 29q0 4 -3 7q-4 4 -8 4q-6 0 -14 -11l-4 -5l-4 -5q-6 -5 -13 -9l-4 -2l-3 -2q-5 -4 -5 -9q0 -4 4 -8q3 -4 6 -4q9 0 28 15zM80 615l5 6q3 4 7 7l3 2l4 3
q5 3 5 7q0 12 -12 12q-11 0 -22 -10q-12 -11 -12 -23q0 -5 2 -8q2 -4 7 -4q7 0 13 8zM237 412q28 0 57 -8q38 -10 67 -31q80 -57 80 -179q0 -84 -57 -139q-58 -55 -147 -55h-124q-73 0 -73 65v537q0 66 73 66t73 -66v-185q0 -5 6 -5h45z" />
            <glyph glyph-name="uni042D" unicode="&#x42d;" horiz-adv-x="401"
                   d="M227 406q-13 129 -85 129q-13 0 -24 -2q-8 -2 -17 -5q-19 -8 -29 -8q-25 0 -43 22q-19 21 -19 49q0 36 36 58q37 21 99 21q128 0 184 -108q42 -83 42 -228t-42 -228q-56 -108 -184 -108q-62 0 -99 23q-36 22 -36 58q0 28 19 49q18 22 43 22q10 0 27 -8q8 -4 16 -6
q10 -3 23 -3q75 0 89 133h-85q-29 0 -50 20q-20 21 -20 50t20 50q21 20 50 20h85zM99 376q-10 -12 -8 -23q2 -10 10 -7l14 15l4 4l5 4q4 4 3 10q-1 7 -9 7q-9 0 -19 -10zM30 617q-5 -9 -5 -18q0 -8 7 -8q5 0 8 6l3 5l4 4l5 4l4 4q3 5 2 10q-2 7 -10 7q-10 0 -18 -14zM42 124
q-6 -6 -6 -15q0 -4 2 -6q2 -3 7 -3q1 0 13 10l5 4l4 4q3 5 2 9q-2 7 -11 7q-8 0 -16 -10z" />
            <glyph glyph-name="uni042E" unicode="&#x42e;" horiz-adv-x="727"
                   d="M682 166q-21 -79 -76 -124q-54 -44 -125 -44t-125 44q-55 45 -76 124q-11 39 -14 111h-80v-212q0 -65 -73 -65t-73 65v537q0 66 73 66t73 -66v-185h81q5 56 13 85q21 79 76 125q54 43 125 43t125 -43q55 -46 76 -125q15 -58 15 -168t-15 -168zM416 185q16 -50 65 -50
t65 50q12 38 12 149t-12 149q-16 50 -65 50t-65 -50q-12 -38 -12 -149t12 -149zM330 527l3 4l1 3q19 37 45 58q10 9 21 15l10 6l9 4l6 3l6 3q7 5 7 12q0 5 -2 9q-3 4 -8 4q-12 0 -33 -11q-21 -12 -34 -24q-19 -18 -33 -39q-19 -26 -19 -42q0 -3 4 -6q5 -3 10 -3q3 0 7 4z
M551 123q23 20 23 35q0 10 -12 10q-5 0 -9 -3l-3 -4l-2 -3q-13 -20 -32 -29l-3 -2l-3 -2q-4 -3 -4 -8q0 -13 12 -13t33 19zM80 615l5 6q3 4 7 7l3 2l4 3q5 3 5 7q0 12 -12 12q-11 0 -22 -10q-12 -11 -12 -23q0 -5 2 -8q2 -4 7 -4q7 0 13 8z" />
            <glyph glyph-name="uni042F" unicode="&#x42f;" horiz-adv-x="454"
                   d="M81 612q54 56 125 56h135q73 0 73 -66v-537q0 -65 -73 -65t-73 65v200l-120 -230q-18 -35 -62 -35q-42 0 -64 35q-22 34 -3 69l102 189q-41 25 -65 62q-31 48 -31 113q0 85 56 144zM268 525q0 6 -6 6h-43q-24 0 -40 -19q-17 -20 -17 -49q0 -28 15 -45q16 -19 42 -19h43
q6 0 6 6v120zM77 535q19 38 35 53q11 11 25 19q10 6 22 12l6 2l6 3q7 4 7 10t-2 9q-3 5 -8 5q-12 0 -33 -11q-21 -12 -34 -24q-31 -30 -46 -65q-4 -9 -3 -15q0 -8 9 -9q12 0 16 11z" />
            <glyph glyph-name="uni0430" unicode="&#x430;" horiz-adv-x="395"
                   d="M363 67q0 -28 -20 -47q-19 -20 -47 -20q-31 0 -50 22q-44 -23 -84 -23q-58 0 -100 40q-47 44 -47 115q0 124 112 164l103 37v7l-1 7q0 10 -3 18q-8 20 -30 20q-14 0 -37 -14t-39 -14q-28 0 -46 18t-18 44q0 39 31 61q45 32 113 32q66 0 112 -46q51 -51 51 -136v-285z
M229 227l-62 -22q-29 -10 -29 -41q0 -17 12 -30q12 -15 32 -15q19 0 33 16q14 15 14 34v58zM71 229q20 35 57 50l6 3l7 3q7 5 7 11q0 11 -11 11q-22 0 -57 -31q-37 -33 -37 -53q0 -5 4 -9q3 -3 6 -3q8 0 18 18zM212 100q3 -2 7 -2q9 0 19 9q9 8 9 17q0 5 -3 8t-6 3t-14 -11
l-6 -5l-6 -5q-4 -4 -4 -8t4 -6zM114 500q-9 0 -18 -7q-10 -7 -10 -16q0 -5 4 -7q3 -2 7 -2q5 0 10 5q3 3 6 5l6 4q5 3 5 9q0 9 -10 9z" />
            <glyph glyph-name="uni0431" unicode="&#x431;" horiz-adv-x="410"
                   d="M249 666q7 5 14 13q11 16 23 16h68q15 0 20 -10q2 -3 3 -9v-10q0 -53 -28 -88q-29 -37 -81 -45q-81 -12 -87 -41q13 2 24 2q58 0 104 -34q45 -34 63 -91q15 -46 15 -123t-15 -123q-18 -57 -63 -91q-46 -34 -104 -34t-104 34q-45 34 -63 91q-15 46 -15 123q0 358 199 408
q17 4 27 12zM166 154q11 -28 39 -28t39 28q12 27 12 92t-12 92q-11 28 -39 28t-39 -28q-12 -27 -12 -92t12 -92zM264 118q12 15 12 25q0 11 -11 11q-6 0 -9 -7l-2 -3l-2 -4q-3 -5 -7 -9q-3 -3 -7 -6l-5 -3l-3 -3q-3 -3 -3 -8q0 -10 11 -10q12 0 26 17zM262 658l-3 -3
q-5 -5 -5 -11q0 -5 3 -7q2 -2 5 -2q11 0 18 7l4 4l4 5q4 6 4 12q0 10 -10 10q-4 0 -9 -4l-3 -4l-4 -4z" />
            <glyph glyph-name="uni0432" unicode="&#x432;" horiz-adv-x="411"
                   d="M93 0q-58 0 -58 52v428q0 52 58 52h135q56 0 99 -40q44 -43 44 -105q0 -67 -45 -105q18 -10 35 -31q15 -18 24 -39q11 -27 11 -57q0 -67 -45 -111q-46 -44 -117 -44h-141zM178 217q-5 0 -5 -4v-97q0 -3 2 -4q1 -1 3 -1h37q19 0 32 14q12 14 12 34q0 23 -16 41
q-16 17 -38 17h-27zM173 336q0 -3 2 -4q1 -1 3 -1h24q18 0 29 13q10 12 10 27q0 50 -43 50h-20q-5 0 -5 -5v-80zM258 90q6 3 12 8l1 1l2 2l4 6q5 7 5 13q0 11 -9 11q-5 0 -11 -6l-4 -6l-5 -6q-4 -4 -12 -8q-6 -3 -6 -9q0 -8 14 -8q4 0 9 2zM69 486l4 3l3 4l4 4l5 3q5 4 4 10
q-2 9 -11 9q-10 0 -20 -10q-9 -9 -9 -18q0 -10 12 -10q4 0 8 5zM258 343q-5 3 -11 0q-2 -1 -6 -5l-4 -4l-3 -3l-5 -3l-4 -4q-5 -4 -5 -10q0 -8 12 -8q8 0 20 10q10 10 10 17q0 6 -4 10z" />
            <glyph glyph-name="uni0433" unicode="&#x433;" horiz-adv-x="330"
                   d="M264 532q27 0 47 -19q19 -20 19 -47t-19 -46q-20 -20 -47 -20h-91v-331q0 -28 -20 -49q-20 -20 -49 -20q-28 0 -49 20q-20 21 -20 49v411q0 52 58 52h171zM69 486l4 3l3 4l5 4l4 3q4 4 4 10q-2 9 -11 9q-10 0 -20 -10q-9 -9 -9 -18q0 -10 12 -10q4 0 8 5z" />
            <glyph glyph-name="uni0434" unicode="&#x434;" horiz-adv-x="455"
                   d="M62 202v261q0 29 20 49q21 20 49 20h220q29 0 49 -20t20 -49v-331q49 -2 49 -49v-121q0 -50 -61 -50t-61 50v38h-239v-38q0 -50 -61 -50t-61 50v121q0 49 43 49q33 0 33 70zM200 222q0 -50 -9 -90h91v268h-82v-178zM85 479q3 -4 8 -4q7 0 13 9q2 3 6 5l6 4q6 5 6 11
q0 4 -4 8q-3 4 -7 4q-11 0 -22 -12q-4 -4 -7 -9q-2 -5 -2 -7q0 -5 3 -9zM85 152q-4 4 -10 3q-5 0 -8 -6l-1 -4l-1 -3q-2 -4 -6 -8q-3 -3 -7 -6l-2 -2l-3 -2q-4 -3 -3 -10q0 -13 12 -11q10 1 22 15t11 26q-1 5 -4 8z" />
            <glyph glyph-name="uni0435" unicode="&#x435;" horiz-adv-x="383"
                   d="M158 180q0 -54 40 -54q20 0 64 50q14 15 35 15q32 0 52 -20q19 -18 19 -45q0 -45 -44 -84q-49 -44 -117 -44q-83 0 -134 62q-48 57 -48 206q0 135 39 200q40 68 129 68q75 0 124 -51q45 -48 45 -114q0 -96 -86 -135zM156 311l64 33q11 6 11 21q0 16 -9 28q-10 13 -27 13
q-34 0 -37 -48q-2 -28 -2 -47zM70 413q3 0 28 34q12 16 23 26q14 14 27 19q16 5 16 14q0 10 -10 10q-23 0 -58 -32q-36 -34 -37 -62q0 -9 11 -9zM249 323q10 7 11 17q0 11 -9 11q-4 0 -17 -11q-15 -11 -15 -16q0 -9 11 -9q10 0 19 8zM289 153q11 10 11 15q0 9 -12 9
q-7 0 -16 -6q-9 -7 -9 -15q0 -12 12 -12q3 0 14 9z" />
            <glyph glyph-name="uni0436" unicode="&#x436;" horiz-adv-x="592"
                   d="M227 377v86q0 29 20 49q21 20 49 20q29 0 49 -20t20 -49v-86l92 127q20 28 51 28q26 0 47 -20q19 -20 19 -44q0 -22 -14 -42l-92 -126l114 -197q9 -16 9 -34q0 -27 -19 -48q-21 -22 -51 -22q-42 0 -60 35l-76 151l-20 -29v-87q0 -28 -20 -49q-20 -20 -49 -20
q-28 0 -49 20q-20 21 -20 49v87l-21 29l-75 -151q-17 -35 -60 -35q-31 0 -51 22q-19 21 -19 48q0 18 9 34l108 204l-86 119q-14 18 -14 42t19 44q20 20 46 20q32 0 52 -28zM250 479q3 -4 8 -4q1 0 6 3t11 8q14 11 14 18q0 4 -4 8q-3 4 -7 4q-11 0 -22 -12q-4 -4 -7 -9
q-2 -5 -2 -7q0 -5 3 -9zM462 486l-1 -2q0 -10 12 -10q2 0 7 4l10 8q14 12 14 18q-1 4 -4 8q-4 3 -8 3q-10 0 -20 -11q-4 -5 -7 -10q-2 -4 -3 -7v-1zM34 486l-1 -2q0 -10 12 -10q2 0 7 4l10 8q14 12 14 18q-1 4 -4 8q-4 3 -8 3q-10 0 -20 -11q-4 -5 -7 -10q-2 -4 -3 -7v-1z
" />
            <glyph glyph-name="uni0437" unicode="&#x437;" horiz-adv-x="328"
                   d="M113 323q32 2 47 20q6 6 9 15q2 6 2 13q0 48 -60 48q-17 0 -32 -7l-6 -3l-6 -2q-6 -2 -12 -2q-19 0 -34 21t-15 44q0 35 45 52q34 12 83 12q65 0 109 -32q52 -39 52 -112q0 -52 -28 -92q-14 -20 -28 -30q17 -6 35 -23q15 -16 23 -36q11 -25 11 -56q0 -74 -56 -117
q-50 -38 -125 -38q-17 0 -36 2q-23 4 -42 10q-49 17 -49 53q0 24 14 45q15 22 34 22q10 0 31 -8q11 -4 17 -5q10 -3 19 -3q64 0 64 48q0 7 -2 14q-3 9 -9 17q-17 19 -55 19h-4q-24 0 -40 15t-16 41q0 25 16 41q16 14 40 14h4zM91 306q-8 0 -15 -7q-5 -5 -7 -13q-1 -5 1 -9
q2 -6 7 -6t16 11q8 8 8 15q0 9 -10 9zM24 492q-4 -6 -4 -13q0 -9 7 -9t11 4l3 3l3 3q9 7 6 15q-1 3 -5 5q-3 2 -6 2q-8 0 -15 -10z" />
            <glyph glyph-name="uni0438" unicode="&#x438;" horiz-adv-x="443"
                   d="M408 69q0 -28 -20 -49q-20 -20 -49 -20q-28 0 -49 20q-20 21 -20 49v176l-104 -206q-19 -39 -62 -39q-28 0 -49 20q-20 21 -20 49v394q0 29 20 49q21 20 49 20q29 0 49 -20t20 -49v-176l104 206q20 39 62 39q29 0 49 -20t20 -49v-394zM58 479q3 -4 8 -4q7 0 13 9q2 3 6 5
l6 4q6 5 6 11q0 4 -4 8q-3 4 -7 4q-11 0 -22 -12q-4 -4 -7 -9q-2 -5 -2 -7q0 -5 3 -9zM293 479q3 -4 8 -4q7 0 13 9q2 3 6 5l6 4q6 5 6 11q0 4 -4 8q-3 4 -7 4q-11 0 -22 -12q-4 -4 -7 -9q-2 -5 -2 -7q0 -5 3 -9z" />
            <glyph glyph-name="uni0439" unicode="&#x439;" horiz-adv-x="443"
                   d="M408 69q0 -28 -20 -49q-20 -20 -49 -20q-28 0 -49 20q-20 21 -20 49v176l-104 -206q-19 -39 -62 -39q-28 0 -49 20q-20 21 -20 49v394q0 29 20 49q21 20 49 20q29 0 49 -20t20 -49v-176l104 206q20 39 62 39q29 0 49 -20t20 -49v-394zM58 479q3 -4 8 -4q7 0 13 9q2 3 6 5
l6 4q6 5 6 11q0 4 -4 8q-3 4 -7 4q-11 0 -22 -12q-4 -4 -7 -9q-2 -5 -2 -7q0 -5 3 -9zM293 479q3 -4 8 -4q7 0 13 9q2 3 6 5l6 4q6 5 6 11q0 4 -4 8q-3 4 -7 4q-11 0 -22 -12q-4 -4 -7 -9q-2 -5 -2 -7q0 -5 3 -9zM128 576q-48 32 -48 89q0 44 48 44q32 0 33 -31
q2 -40 59 -40t59 39q1 31 33 31q48 0 48 -43q0 -57 -48 -89q-40 -26 -92 -26t-92 26zM101 658q5 0 9 6l4 6l4 5l4 3l5 3q6 5 6 9q0 10 -11 10q-10 0 -21 -9q-11 -10 -10 -21q2 -12 10 -12z" />
            <glyph glyph-name="uni043A" unicode="&#x43a;" horiz-adv-x="410"
                   d="M173 370l102 134q17 23 43 27q25 4 48 -13t26 -43t-14 -49l-93 -123l115 -200q14 -25 6 -52q-7 -28 -33 -43q-25 -13 -53 -6q-27 8 -41 32l-84 150l-22 -29v-86q0 -28 -20 -49q-20 -20 -49 -20q-28 0 -49 20q-20 21 -20 49v394q0 29 20 49q21 20 49 20q29 0 49 -20
t20 -49v-93zM58 479q3 -4 8 -4q7 0 13 9q2 3 6 5l6 4q6 5 6 11q0 4 -4 8q-3 4 -7 4q-11 0 -22 -12q-4 -4 -7 -9q-2 -5 -2 -7q0 -5 3 -9zM282 478q4 -4 9 -4q7 2 13 10q2 3 6 5l6 4q6 5 6 11q-1 4 -4 8q-4 3 -8 3q-11 0 -19 -10q-9 -11 -11 -18q-1 -4 2 -9z" />
            <glyph glyph-name="uni043B" unicode="&#x43b;" horiz-adv-x="447"
                   d="M412 69q0 -28 -20 -49q-20 -20 -49 -20q-28 0 -49 20q-20 21 -20 49v331h-82v-178q0 -101 -36 -161q-36 -61 -100 -61q-29 0 -48 20q-18 19 -18 44q0 21 4 32q6 17 21 20q20 5 31 29q8 20 8 46v272q0 29 20 49q21 20 49 20h220q29 0 49 -20t20 -49v-394zM77 479
q3 -4 8 -4q1 0 6 3t11 8q14 11 14 18q0 4 -4 8q-3 4 -7 4q-11 0 -22 -12q-4 -4 -7 -9q-2 -5 -2 -7q0 -5 3 -9zM73 138q-4 4 -10 4q-3 0 -18 -17q-15 -18 -15 -21q0 -13 10 -13q11 0 23 14q13 14 13 26q0 4 -3 7z" />
            <glyph glyph-name="uni043C" unicode="&#x43c;" horiz-adv-x="557"
                   d="M522 69q0 -28 -20 -49q-20 -20 -49 -20q-28 0 -49 20q-20 21 -20 49v169l-55 -109q-15 -31 -51 -31q-34 0 -50 31l-55 109v-169q0 -28 -20 -49q-20 -20 -49 -20q-28 0 -49 20q-20 21 -20 49v394q0 29 20 49q21 20 49 20q41 0 63 -42l111 -213l112 213q22 42 63 42
q29 0 49 -20t20 -49v-394zM58 479q3 -4 8 -4q7 0 13 9q2 3 6 5l6 4q6 5 6 11q0 4 -4 8q-3 4 -7 4q-11 0 -22 -12q-4 -4 -7 -9q-2 -5 -2 -7q0 -5 3 -9zM407 479q3 -4 8 -4q7 0 13 9q2 3 6 5l6 4q6 5 6 11q0 4 -4 8q-3 4 -7 4q-11 0 -22 -12q-4 -4 -7 -9q-2 -5 -2 -7
q0 -5 3 -9z" />
            <glyph glyph-name="uni043D" unicode="&#x43d;" horiz-adv-x="438"
                   d="M403 69q0 -28 -20 -49q-20 -20 -49 -20q-28 0 -49 20q-20 21 -20 49v141h-92v-141q0 -28 -20 -49q-20 -20 -49 -20q-28 0 -49 20q-20 21 -20 49v394q0 29 20 49q21 20 49 20q29 0 49 -20t20 -49v-121h92v121q0 29 20 49q21 20 49 20q29 0 49 -20t20 -49v-394zM288 479
q3 -4 8 -4q1 0 6 3t11 8q14 11 14 18q0 4 -4 8q-3 4 -7 4q-11 0 -22 -12q-4 -4 -7 -9q-2 -5 -2 -7q0 -5 3 -9zM58 479q3 -4 8 -4q1 0 6 3t11 8q14 11 14 18q0 4 -4 8q-3 4 -7 4q-11 0 -22 -12q-4 -4 -7 -9q-2 -5 -2 -7q0 -5 3 -9z" />
            <glyph glyph-name="uni043E" unicode="&#x43e;" horiz-adv-x="414"
                   d="M165 160q11 -34 42 -34t42 34q9 29 9 106t-9 106q-11 34 -42 34t-42 -34q-9 -29 -9 -106t9 -106zM264 116q14 16 14 27t-11 11q-38 -36 -38 -43q0 -10 11 -10q10 0 24 15zM375 123q-18 -56 -64 -91q-46 -34 -104 -34t-104 34q-46 35 -64 91q-14 43 -14 143t14 143
q18 56 64 91q46 34 104 34t104 -34q46 -35 64 -91q14 -43 14 -143t-14 -143zM69 408q5 0 20 23l7 9l7 10q8 11 15 17q6 6 17 11l10 5l10 4q23 10 23 18q0 10 -10 10q-27 0 -67 -33q-42 -35 -43 -65q0 -9 11 -9z" />
            <glyph glyph-name="uni043F" unicode="&#x43f;" horiz-adv-x="438"
                   d="M403 69q0 -28 -20 -49q-20 -20 -49 -20q-28 0 -49 20q-20 21 -20 49v331h-92v-331q0 -28 -20 -49q-20 -20 -49 -20q-28 0 -49 20q-20 21 -20 49v394q0 29 20 49q21 20 49 20h230q29 0 49 -20t20 -49v-394zM58 479q3 -4 8 -4q1 0 6 3t11 8q14 11 14 18q0 4 -4 8q-3 4 -7 4
q-11 0 -22 -12q-4 -4 -7 -9q-2 -5 -2 -7q0 -5 3 -9z" />
            <glyph glyph-name="uni0440" unicode="&#x440;"
                   d="M385 113q-17 -53 -59 -84q-41 -31 -96 -31q-27 0 -57 11v-92q0 -28 -20 -49q-20 -20 -49 -20q-28 0 -49 20q-20 21 -20 49v449q0 59 42 108q52 60 141 60q60 0 104 -29q45 -31 63 -86q16 -49 16 -153t-16 -153zM173 165q0 -16 13 -27q13 -12 32 -12q31 0 42 34
q9 29 9 106t-9 106q-11 34 -42 34q-19 0 -32 -12q-13 -11 -13 -27v-202zM275 114q14 16 14 26q2 11 -11 13q-6 1 -9 -7l-2 -3l-2 -5q-3 -5 -7 -9q-3 -3 -8 -6l-5 -3l-4 -3q-4 -3 -3 -10q2 -8 10 -8q12 -2 27 15zM73 410q8 0 13 12q13 25 34 44q15 14 41 24q16 5 16 14
q0 10 -10 10q-25 0 -60 -29q-44 -38 -45 -66q0 -9 11 -9z" />
            <glyph glyph-name="uni0441" unicode="&#x441;" horiz-adv-x="384"
                   d="M42 123q-10 29 -14 73q-3 30 -3 70q0 37 3 69q4 42 14 74q16 54 60 89q46 36 106 36q65 0 111 -40q41 -36 41 -73q0 -25 -18 -45q-19 -21 -48 -21q-31 0 -55 31q-13 18 -34 18q-26 0 -36 -29q-11 -29 -11 -105q0 -142 52 -142q21 0 38 28q20 34 56 34q30 0 50 -20
q18 -18 18 -42q0 -45 -45 -86q-50 -44 -115 -44q-127 0 -170 125zM292 153q11 10 11 15q0 9 -12 9q-7 0 -16 -6q-9 -7 -9 -15q0 -12 12 -12q3 0 14 9zM75 414q8 0 13 12q10 20 36 43q8 7 21 14l11 5l12 5q16 5 16 14q0 10 -10 10q-28 0 -63 -29q-18 -15 -31 -32
q-15 -20 -16 -33q0 -9 11 -9z" />
            <glyph glyph-name="uni0442" unicode="&#x442;" horiz-adv-x="370"
                   d="M304 532q27 0 47 -19q19 -20 19 -47t-19 -46q-20 -20 -47 -20h-50v-331q0 -28 -20 -49q-20 -20 -49 -20q-28 0 -49 20q-20 21 -20 49v331h-50q-27 0 -46 20q-20 19 -20 46t20 47q19 19 46 19h238zM22 479q3 -4 8 -4q7 0 13 9q2 3 6 5l6 4q6 5 6 11q0 4 -4 8q-3 4 -7 4
q-11 0 -22 -12q-4 -4 -7 -9q-2 -5 -2 -7q0 -5 3 -9z" />
            <glyph glyph-name="uni0443" unicode="&#x443;" horiz-adv-x="413"
                   d="M127 157l-116 283l-2 5l-2 6q-2 8 -2 14q0 28 21 48q22 20 51 20q45 0 60 -40l63 -165l83 178q12 27 52 27q29 0 50 -18q23 -20 23 -49q0 -6 -2 -14q-2 -7 -5 -12l-162 -370q-41 -93 -77 -130q-41 -44 -101 -44q-31 0 -55 18q-26 20 -26 51q0 21 11 40q13 22 33 22h10
q36 0 55 43zM35 475q7 0 20 14q5 5 9 10q3 5 3 7q0 10 -10 10q-11 0 -22 -11t-11 -19q0 -11 11 -11zM316 489q12 15 12 17q0 5 -2 9q-3 4 -8 4q-11 0 -21 -13q-9 -12 -9 -20q0 -11 13 -11q3 0 15 14z" />
            <glyph glyph-name="uni0444" unicode="&#x444;" horiz-adv-x="496"
                   d="M203 15q-86 14 -134 80q-47 65 -47 170q0 102 47 168q48 68 134 82v74q0 19 13 32t32 13t32 -13t13 -32v-74q86 -14 134 -82q47 -66 47 -168q0 -105 -48 -170q-47 -66 -133 -80v-72q0 -19 -13 -32t-32 -13t-32 13t-13 32v72zM293 393v-255q55 30 55 127q0 98 -55 128z
M203 138v255q-55 -29 -55 -128q0 -98 55 -127zM81 390q8 0 13 11q11 23 35 44q7 7 19 13l11 5l11 5q15 5 15 14q0 10 -10 10q-26 0 -59 -28q-17 -15 -30 -32q-15 -20 -16 -33q0 -9 11 -9zM309 120q4 -4 9 -4q12 0 26 16q12 12 12 22q0 11 -11 11q-6 1 -10 -5l-1 -4l-3 -3
q-3 -5 -6 -8q-2 -2 -8 -6q-6 -5 -7 -6q-3 -3 -4 -6q0 -4 3 -7zM223 613q-6 -8 -6 -13q0 -7 8 -7q2 0 4 3l2 2q2 2 5 4l4 2l5 3q6 2 6 7q0 9 -10 9t-18 -10z" />
            <glyph glyph-name="uni0445" unicode="&#x445;" horiz-adv-x="401"
                   d="M199 170l-69 -140q-14 -30 -57 -30q-29 0 -48 20q-20 21 -20 52q0 4 1 10q2 7 4 11l102 183l-91 157q-9 17 -9 31q0 27 21 48t50 21q37 0 55 -33l61 -111l60 112q18 32 57 32q28 0 48 -20q21 -21 21 -53q0 -13 -8 -27l-89 -157l102 -183q6 -12 6 -26q0 -28 -20 -47
q-21 -20 -50 -20q-39 0 -56 32zM52 482l3 4l3 5l4 3l5 3q6 3 5 9q-2 12 -13 10q-8 -2 -18 -12t-9 -18q2 -13 12 -10q4 1 8 6zM287 484l4 4l3 4l4 4l5 3q5 3 4 9q-2 12 -13 10q-7 -1 -18 -11q-10 -11 -9 -19q2 -13 12 -10q4 1 8 6zM30 107q-7 -7 -9 -18q-1 -4 1 -7q1 -5 6 -5
q4 0 9 4q3 3 6 7q6 12 6 15q0 10 -8 10q-5 0 -11 -6z" />
            <glyph glyph-name="uni0446" unicode="&#x446;" horiz-adv-x="438"
                   d="M330 -38v38h-226q-28 0 -49 20q-20 21 -20 49v394q0 29 20 49q21 20 49 20q29 0 49 -20t20 -49v-331h92v331q0 29 20 49q21 20 49 20q29 0 49 -20t20 -49v-331q49 -2 49 -49v-121q0 -50 -61 -50t-61 50zM58 479q3 -4 8 -4q1 0 6 3t11 8q14 11 14 18q0 4 -4 8q-3 4 -7 4
q-11 0 -22 -12q-4 -4 -7 -9q-2 -5 -2 -7q0 -5 3 -9zM288 479q3 -4 8 -4q1 0 6 3t11 8q14 11 14 18q0 4 -4 8q-3 4 -7 4q-11 0 -22 -12q-4 -4 -7 -9q-2 -5 -2 -7q0 -5 3 -9z" />
            <glyph glyph-name="uni0447" unicode="&#x447;" horiz-adv-x="428"
                   d="M255 162q-29 -18 -65 -18q-66 0 -111 50q-46 51 -46 126v143q0 29 20 49q21 20 49 20q29 0 49 -20t20 -49v-147q0 -17 12 -30q13 -12 30 -12q21 0 42 14v175q0 29 20 49q21 20 49 20q29 0 49 -20t20 -49v-394q0 -28 -20 -49q-20 -20 -49 -20q-28 0 -49 20q-20 21 -20 49
v93zM56 479q3 -4 8 -4q7 0 13 9q2 3 6 5l6 4q6 5 6 11q0 4 -4 8q-3 4 -7 4q-11 0 -22 -12q-4 -4 -7 -9q-2 -5 -2 -7q0 -5 3 -9zM278 479q3 -4 8 -4q7 0 13 9q2 3 6 5l6 4q6 5 6 11q0 4 -4 8q-3 4 -7 4q-11 0 -22 -12q-4 -4 -7 -9q-2 -5 -2 -7q0 -5 3 -9z" />
            <glyph glyph-name="uni0448" unicode="&#x448;" horiz-adv-x="648"
                   d="M613 69q0 -28 -20 -49q-20 -20 -49 -20h-440q-28 0 -49 20q-20 21 -20 49v394q0 29 20 49q21 20 49 20q29 0 49 -20t20 -49v-331h82v331q0 29 20 49q21 20 49 20q29 0 49 -20t20 -49v-331h82v331q0 29 20 49q21 20 49 20q29 0 49 -20t20 -49v-394zM278 479q3 -4 8 -4
q1 0 6 3t11 8q14 11 14 18q0 4 -4 8q-3 4 -7 4q-11 0 -22 -12q-4 -4 -7 -9q-2 -5 -2 -7q0 -5 3 -9zM58 479q3 -4 8 -4q1 0 6 3t11 8q14 11 14 18q0 4 -4 8q-3 4 -7 4q-11 0 -22 -12q-4 -4 -7 -9q-2 -5 -2 -7q0 -5 3 -9zM498 479q3 -4 8 -4q1 0 6 3t11 8q14 11 14 18
q0 4 -4 8q-3 4 -7 4q-11 0 -22 -12q-4 -4 -7 -9q-2 -5 -2 -7q0 -5 3 -9z" />
            <glyph glyph-name="uni0449" unicode="&#x449;" horiz-adv-x="648"
                   d="M540 -38v38h-436q-28 0 -49 20q-20 21 -20 49v394q0 29 20 49q21 20 49 20q29 0 49 -20t20 -49v-331h82v331q0 29 20 49q21 20 49 20q29 0 49 -20t20 -49v-331h82v331q0 29 20 49q21 20 49 20q29 0 49 -20t20 -49v-331q49 -2 49 -49v-121q0 -50 -61 -50t-61 50zM498 479
q3 -4 8 -4q7 0 13 9q2 3 6 5l6 4q6 5 6 11q0 4 -4 8q-3 4 -7 4q-11 0 -22 -12q-4 -4 -7 -9q-2 -5 -2 -7q0 -5 3 -9zM58 479q3 -4 8 -4q7 0 13 9q2 3 6 5l6 4q6 5 6 11q0 4 -4 8q-3 4 -7 4q-11 0 -22 -12q-4 -4 -7 -9q-2 -5 -2 -7q0 -5 3 -9zM278 479q3 -4 8 -4q7 0 13 9
q2 3 6 5l6 4q6 5 6 11q0 4 -4 8q-3 4 -7 4q-11 0 -22 -12q-4 -4 -7 -9q-2 -5 -2 -7q0 -5 3 -9z" />
            <glyph glyph-name="uni044A" unicode="&#x44a;" horiz-adv-x="456"
                   d="M149 532q29 0 49 -20t20 -49v-130q0 -3 2 -4q1 -1 3 -1h43l9 -1q12 0 24 -2q34 -6 61 -20q81 -43 81 -150q0 -67 -45 -111q-46 -44 -117 -44h-141q-58 0 -58 52v348h-24q-27 0 -46 20q-20 19 -20 46t20 47q19 19 46 19h93zM223 217q-5 0 -5 -4v-97q0 -3 2 -4q1 -1 3 -1
h37q19 0 32 14q12 14 12 34q0 23 -16 41q-16 17 -38 17h-27zM303 90q6 3 12 8l1 1l2 2l4 6q5 7 5 13q0 11 -9 11q-5 0 -11 -6l-4 -6l-5 -6q-4 -4 -12 -8q-6 -3 -6 -9q0 -8 14 -8q4 0 9 2zM12 479q3 -4 8 -4q7 0 13 9q2 3 6 5l6 4q6 5 6 11q0 4 -4 8q-3 4 -7 4q-11 0 -22 -12
q-4 -4 -7 -9q-2 -5 -2 -7q0 -5 3 -9z" />
            <glyph glyph-name="uni044B" unicode="&#x44b;" horiz-adv-x="609"
                   d="M459 479q3 -4 8 -4q7 0 13 9q2 3 6 5l6 4q6 5 6 11q0 4 -4 8q-3 4 -7 4q-11 0 -22 -12q-4 -4 -7 -9q-2 -5 -2 -7q0 -5 3 -9zM574 69q0 -28 -20 -49q-20 -20 -49 -20q-28 0 -49 20q-20 21 -20 49v394q0 29 20 49q21 20 49 20q29 0 49 -20t20 -49v-394zM173 333q0 -3 2 -4
q1 -1 3 -1h43l9 -1q12 0 24 -2q34 -6 61 -20q81 -43 81 -150q0 -67 -45 -111q-46 -44 -117 -44h-141q-58 0 -58 52v411q0 29 20 49q21 20 49 20q29 0 49 -20t20 -49v-130zM178 217q-5 0 -5 -4v-97q0 -3 2 -4q1 -1 3 -1h37q19 0 32 14q12 14 12 34q0 23 -16 41q-16 17 -38 17
h-27zM258 90q6 3 12 8l1 1l2 2l4 6q5 7 5 13q0 11 -9 11q-5 0 -11 -6l-4 -6l-5 -6q-4 -4 -12 -8q-6 -3 -6 -9q0 -8 14 -8q4 0 9 2zM58 479q3 -4 8 -4q7 0 13 9q2 3 6 5l6 4q6 5 6 11q0 4 -4 8q-3 4 -7 4q-11 0 -22 -12q-4 -4 -7 -9q-2 -5 -2 -7q0 -5 3 -9z" />
            <glyph glyph-name="uni044C" unicode="&#x44c;" horiz-adv-x="411"
                   d="M173 333q0 -3 2 -4q1 -1 3 -1h43l9 -1q12 0 24 -2q34 -6 61 -20q81 -43 81 -150q0 -67 -45 -111q-46 -44 -117 -44h-141q-58 0 -58 52v411q0 29 20 49q21 20 49 20q29 0 49 -20t20 -49v-130zM178 217q-5 0 -5 -4v-97q0 -3 2 -4q1 -1 3 -1h37q19 0 32 14q12 14 12 34
q0 23 -16 41q-16 17 -38 17h-27zM258 90q6 3 12 8l1 1l2 2l4 6q5 7 5 13q0 11 -9 11q-5 0 -11 -6l-4 -6l-5 -6q-4 -4 -12 -8q-6 -3 -6 -9q0 -8 14 -8q4 0 9 2zM58 479q3 -4 8 -4q7 0 13 9q2 3 6 5l6 4q6 5 6 11q0 4 -4 8q-3 4 -7 4q-11 0 -22 -12q-4 -4 -7 -9q-2 -5 -2 -7
q0 -5 3 -9z" />
            <glyph glyph-name="uni044D" unicode="&#x44d;" horiz-adv-x="341"
                   d="M182 328q-10 80 -67 80q-17 0 -32 -6l-6 -2l-5 -2q-6 -2 -13 -2q-19 0 -34 21q-15 20 -15 44q0 30 29 51q31 22 79 22q109 0 159 -86q39 -68 39 -182t-39 -182q-50 -86 -159 -86q-48 0 -79 23q-29 22 -29 53q0 24 15 44q15 19 34 19q9 0 22 -6q14 -7 31 -7q59 0 70 83
h-67q-23 0 -40 18q-16 18 -16 43t16 42q17 18 40 18h67zM100 311q-8 0 -15 -7q-5 -5 -7 -13q-1 -5 1 -9q2 -6 7 -6t16 11q8 8 8 15q0 9 -10 9zM32 490q-4 -6 -4 -13q0 -9 7 -9t11 4l3 3l3 3q9 7 6 15q-1 3 -5 5q-3 2 -6 2q-8 0 -15 -10z" />
            <glyph glyph-name="uni044E" unicode="&#x44e;" horiz-adv-x="628"
                   d="M589 123q-18 -56 -64 -91q-46 -34 -104 -34t-104 34q-46 35 -64 91q-11 34 -13 87h-67v-141q0 -28 -20 -49q-20 -20 -49 -20q-28 0 -49 20q-20 21 -20 49v394q0 29 20 49q21 20 49 20q29 0 49 -20t20 -49v-121h68q3 42 12 67q18 56 64 91q46 34 104 34t104 -34
q46 -35 64 -91q14 -43 14 -143t-14 -143zM379 160q11 -34 42 -34t42 34q9 29 9 106t-9 106q-11 34 -42 34t-42 -34q-9 -29 -9 -106t9 -106zM283 408q8 0 13 12q14 28 36 47q8 7 21 14l11 5l12 5q16 5 16 14q0 10 -10 10q-28 0 -63 -29q-18 -15 -31 -34q-15 -22 -16 -35
q0 -9 11 -9zM480 118q12 15 12 25q0 11 -11 11q-6 0 -9 -7l-2 -3l-2 -4q-3 -5 -7 -9q-3 -3 -7 -6l-5 -3l-3 -3q-3 -3 -3 -8q0 -10 11 -10q12 0 26 17zM58 479q3 -4 8 -4q7 0 13 9q2 3 6 5l6 4q6 5 6 11q0 4 -4 8q-3 4 -7 4q-11 0 -22 -12q-4 -4 -7 -9q-2 -5 -2 -7q0 -5 3 -9
z" />
            <glyph glyph-name="uni044F" unicode="&#x44f;" horiz-adv-x="404"
                   d="M311 532q58 0 58 -52v-411q0 -28 -20 -49q-20 -20 -49 -20q-28 0 -49 20q-20 21 -20 49v137l-88 -170q-19 -36 -61 -36q-28 0 -47 18q-20 19 -20 48q0 15 9 33l70 136q-18 10 -36 32q-36 44 -36 106q0 67 45 114q42 45 99 45h145zM226 320q4 0 5 4v92q0 5 -5 5h-34
q-19 0 -32 -15q-14 -15 -14 -37q0 -21 13 -35q12 -14 33 -14h34zM56 413q7 0 12 12q16 32 32 46q12 11 42 23q16 5 16 13q0 10 -10 10q-27 0 -61 -28q-24 -21 -37 -49q-5 -10 -5 -18q0 -9 11 -9z" />
            <glyph glyph-name="uni0451" unicode="&#x451;" horiz-adv-x="383"
                   d="M158 180l1 -3v-3q3 -48 39 -48q20 0 64 50q14 15 35 15q32 0 52 -20q19 -18 19 -45q0 -45 -44 -84q-49 -44 -117 -44q-81 0 -134 62q-48 58 -48 206q0 85 12 136q14 62 56 97q41 35 100 35q75 0 124 -51q45 -48 45 -114q0 -96 -86 -135zM156 311l64 33q11 6 11 21
q0 16 -9 28q-10 13 -27 13q-34 0 -37 -48q-2 -28 -2 -47zM70 413q8 0 13 12q27 51 65 67q16 5 16 14q0 10 -10 10t-27 -9q-19 -10 -32 -24q-35 -35 -36 -61q0 -9 11 -9zM249 323q10 7 11 17q0 11 -9 11q-3 0 -17 -12l-6 -5l-6 -4q-3 -3 -3 -6q0 -9 11 -9q10 0 19 8zM289 153
q11 10 11 15q0 9 -12 9q-7 0 -16 -6q-9 -7 -9 -15q0 -12 12 -12q3 0 14 9zM70 652q19 18 44 18q26 0 44 -18t18 -44q0 -25 -18 -44q-18 -18 -44 -18q-25 0 -44 18q-18 19 -18 44q0 26 18 44zM228 652q19 18 44 18q26 0 44 -18t18 -44q0 -25 -18 -44q-18 -18 -44 -18
q-25 0 -44 18q-18 19 -18 44q0 26 18 44zM75 618q4 -4 9 -2q2 1 6 6l4 4l4 4l4 3l4 3q5 5 5 9q0 10 -11 10q-7 0 -17 -9q-11 -10 -12 -18q-1 -6 4 -10zM233 618q4 -4 9 -2q2 1 6 6l4 4l4 4l4 3l4 3q5 5 5 9q0 10 -11 10q-7 0 -17 -9q-11 -10 -12 -18q-1 -6 4 -10z" />
            <glyph glyph-name="uni0454" unicode="&#x454;" horiz-adv-x="341"
                   d="M158 328h68q23 0 40 -18q16 -17 16 -42t-16 -43q-17 -18 -40 -18h-68q11 -83 71 -83q17 0 31 7q13 6 22 6q19 0 34 -19q15 -20 15 -44q0 -31 -29 -53q-31 -23 -79 -23q-109 0 -159 86q-39 68 -39 182t39 182q50 86 159 86q48 0 79 -22q29 -21 29 -51q0 -24 -15 -44
q-15 -21 -34 -21q-9 0 -24 6t-32 6q-57 0 -68 -80zM95 427q13 26 32 42q18 15 37 22l5 2l5 3q5 3 5 8q0 8 -9 9q-3 0 -8 -1l-7 -2q-21 -6 -41 -23q-12 -11 -22 -23q-13 -16 -18 -28q-3 -6 -2 -12q1 -7 8 -7q10 0 15 10zM285 123q-3 3 -7 3q-5 0 -13 -5q-10 -4 -10 -11
q0 -12 8 -12l14 5q11 4 10 14q0 3 -2 6z" />
            <glyph glyph-name="uni0455" unicode="&#x455;" horiz-adv-x="358"
                   d="M48 41q-48 42 -48 91q0 22 20 41q22 20 53 20q26 0 47 -32q24 -35 48 -35q16 0 30 12q14 13 14 30q0 23 -12 35q-12 11 -51 26l-23 9l-23 10q-26 12 -43 26q-43 36 -43 102q0 62 45 109q49 49 120 49q54 0 98 -28q42 -28 42 -60q0 -31 -19 -52q-18 -20 -43 -20t-46 17
l-7 5l-8 5q-10 5 -21 5q-14 0 -24 -11q-9 -10 -9 -24q0 -16 15 -25q10 -6 47 -18q133 -45 133 -153q0 -78 -47 -127q-49 -50 -132 -50q-64 0 -113 43zM54 154q12 8 12 15q0 10 -10 10q-7 0 -18 -6q-13 -8 -13 -15q0 -10 11 -10q7 0 18 6zM221 115q13 11 13 19q0 4 -3 8t-7 4
q-5 0 -9 -5l-3 -4l-4 -5l-7 -6l-5 -3q-6 -4 -6 -7q0 -4 4 -7q4 -4 8 -4q7 0 19 10zM48 441q-1 -5 0 -9q1 -10 10 -10q11 0 16 16q3 9 10 17q5 7 13 13t19 12l20 9l5 2l4 3q5 3 5 9q0 4 -3 7q-3 4 -8 4q-21 0 -54 -26q-21 -16 -34 -40q-2 -3 -3 -7z" />
            <glyph glyph-name="uni0456" unicode="&#x456;" horiz-adv-x="208"
                   d="M58 479q3 -4 8 -4q7 0 13 9q2 3 6 5l6 4q6 5 6 11q0 4 -4 8q-3 4 -7 4q-11 0 -22 -12q-4 -4 -7 -9q-2 -5 -2 -7q0 -5 3 -9zM173 69q0 -28 -20 -49q-20 -20 -49 -20q-28 0 -49 20q-20 21 -20 49v394q0 29 20 49q21 20 49 20q29 0 49 -20t20 -49v-394zM55 658q21 20 49 20
q29 0 49 -20t20 -49q0 -28 -20 -49q-20 -20 -49 -20q-28 0 -49 20q-20 21 -20 49q0 29 20 49zM58 625q3 -4 8 -4q7 0 13 9q2 3 6 5l6 4q6 5 6 11q0 4 -4 8q-3 4 -7 4q-11 0 -22 -12q-4 -4 -7 -9q-2 -5 -2 -7q0 -5 3 -9z" />
            <glyph glyph-name="uni0458" unicode="&#x458;" horiz-adv-x="208"
                   d="M173 35q0 -63 -35 -118q-40 -62 -101 -62q-29 0 -48 20q-18 19 -18 44q0 21 4 32q6 17 21 20q39 8 39 62v430q0 29 20 49q21 20 49 20q29 0 49 -20t20 -49v-428zM55 658q21 20 49 20q29 0 49 -20t20 -49q0 -28 -20 -49q-20 -20 -49 -20q-28 0 -49 20q-20 21 -20 49
q0 29 20 49zM58 479q3 -4 8 -4q7 0 13 9q2 3 6 5l6 4q6 5 6 11q0 4 -4 8q-3 4 -7 4q-11 0 -22 -12q-4 -4 -7 -9q-2 -5 -2 -7q0 -5 3 -9zM58 625q3 -4 8 -4q7 0 13 9q2 3 6 5l6 4q6 5 6 11q0 4 -4 8q-3 4 -7 4q-11 0 -22 -12q-4 -4 -7 -9q-2 -5 -2 -7q0 -5 3 -9z" />
            <glyph glyph-name="uni0492" unicode="&#x492;" horiz-adv-x="400"
                   d="M62 277q-29 3 -47 22q-20 20 -20 48q0 29 19 49q18 19 48 21v186q0 65 73 65h195q29 0 50 -20q20 -21 20 -50t-20 -50q-21 -20 -50 -20h-122v-111h97q29 0 50 -20q20 -21 20 -50t-20 -50q-21 -20 -50 -20h-97v-211q0 -65 -73 -65t-73 65v211zM102 615l5 6q3 4 7 7l3 2
l4 3q5 3 5 7q0 12 -12 12q-11 0 -22 -10q-12 -11 -12 -23q0 -5 2 -8q2 -4 7 -4q7 0 13 8zM19 356q4 -2 9 -1q2 1 13 13l5 4l5 4q6 6 5 13q-2 10 -13 8q-7 -1 -17 -12q-12 -11 -12 -19q0 -7 5 -10z" />
            <glyph glyph-name="uni0493" unicode="&#x493;" horiz-adv-x="330"
                   d="M35 480q0 52 58 52h171q27 0 47 -19q19 -20 19 -47t-19 -46q-20 -20 -47 -20h-91v-68h63q20 0 35 -14q14 -15 14 -35t-14 -35q-15 -14 -35 -14h-63v-165q0 -28 -20 -49q-20 -20 -49 -20q-28 0 -49 20q-20 21 -20 49v165h-11q-20 0 -35 14q-14 15 -14 35t14 35
q15 14 35 14h11v148zM-9 283q3 -4 8 -4q4 0 17 11t13 17q0 4 -4 8q-3 4 -7 4q-11 0 -21 -11q-4 -5 -7 -9q-2 -5 -2 -7q0 -5 3 -9zM78 493q11 11 11 17q-2 9 -11 9t-19 -9t-10 -19t12 -10q5 0 17 12z" />
            <glyph glyph-name="uni049A" unicode="&#x49a;" horiz-adv-x="499"
                   d="M40 602q0 66 73 66t73 -66v-142l109 177q19 31 58 31q28 0 54 -20q26 -22 26 -49q0 -12 -8 -26l-125 -203l123 -230h34q52 0 52 -49v-132q0 -50 -64 -50t-64 50v41h-5q-44 0 -62 35l-101 193l-27 -43v-120q0 -65 -73 -65t-73 65v537zM80 615l5 6q3 4 7 7l3 2l4 3q5 3 5 7
q0 12 -12 12q-11 0 -22 -10q-12 -11 -12 -23q0 -5 2 -8q2 -4 7 -4q7 0 13 8zM329 618l5 6q3 3 7 6l3 2l4 3q5 4 5 8q0 11 -12 11q-11 0 -21 -9q-12 -9 -12 -21q0 -5 2 -8q2 -4 7 -4q7 0 12 6z" />
            <glyph glyph-name="uni049B" unicode="&#x49b;" horiz-adv-x="438"
                   d="M330 0q-36 5 -51 34l-84 150l-22 -29v-86q0 -28 -20 -49q-20 -20 -49 -20q-28 0 -49 20q-20 21 -20 49v394q0 29 20 49q21 20 49 20q29 0 49 -20t20 -49v-93l102 134q22 28 51 28q27 0 47 -20t20 -45q0 -21 -15 -41l-93 -123l98 -171h25q44 -3 44 -49v-121q0 -50 -61 -50
t-61 50v38zM58 479q3 -4 8 -4q1 0 6 3t11 8q14 11 14 18q0 4 -4 8q-3 4 -7 4q-11 0 -22 -12q-4 -4 -7 -9q-2 -5 -2 -7q0 -5 3 -9zM280 486l-1 -2q0 -10 12 -10q2 0 7 4l10 8q14 12 14 18q-1 4 -4 8q-4 3 -8 3q-10 0 -20 -11q-4 -5 -7 -10q-2 -4 -3 -7v-1z" />
            <glyph glyph-name="uni04A2" unicode="&#x4a2;" horiz-adv-x="499"
                   d="M371 0q-73 0 -73 65v212h-112v-212q0 -65 -73 -65t-73 65v537q0 66 73 66t73 -66v-185h112v185q0 66 73 66t73 -66v-462h13q52 0 52 -49v-132q0 -50 -64 -50t-64 50v41h-10zM337 615l5 6q3 4 7 7l3 2l4 3q5 3 5 7q0 12 -12 12q-11 0 -22 -10q-12 -11 -12 -23q0 -5 2 -8
q2 -4 7 -4q7 0 13 8zM80 615l5 6q3 4 7 7l3 2l4 3q5 3 5 7q0 12 -12 12q-11 0 -22 -10q-12 -11 -12 -23q0 -5 2 -8q2 -4 7 -4q7 0 13 8z" />
            <glyph glyph-name="uni04A3" unicode="&#x4a3;" horiz-adv-x="438"
                   d="M330 0q-27 2 -46 21q-19 20 -19 48v141h-92v-141q0 -28 -20 -49q-20 -20 -49 -20q-28 0 -49 20q-20 21 -20 49v394q0 29 20 49q21 20 49 20q29 0 49 -20t20 -49v-121h92v121q0 29 20 49q21 20 49 20q29 0 49 -20t20 -49v-331q49 -2 49 -49v-121q0 -50 -61 -50t-61 50v38z
M58 479q3 -4 8 -4q1 0 6 3t11 8q14 11 14 18q0 4 -4 8q-3 4 -7 4q-11 0 -22 -12q-4 -4 -7 -9q-2 -5 -2 -7q0 -5 3 -9zM288 479q3 -4 8 -4q1 0 6 3t11 8q14 11 14 18q0 4 -4 8q-3 4 -7 4q-11 0 -22 -12q-4 -4 -7 -9q-2 -5 -2 -7q0 -5 3 -9z" />
            <glyph glyph-name="uni04AE" unicode="&#x4ae;"
                   d="M140 244l-136 317l-3 7l-3 8q-3 11 -3 18q0 32 21 53t53 21q52 0 66 -40l78 -211l78 211q14 40 66 40q32 0 53 -21t21 -53q0 -7 -3 -18l-3 -8l-3 -7l-136 -317v-179q0 -65 -73 -65t-73 65v179zM38 614l5 6q3 4 7 7l3 2l4 3q5 3 5 7q0 12 -12 12q-11 0 -22 -10
q-12 -11 -12 -23q0 -5 2 -8q2 -4 7 -4q7 0 13 8zM325 614l4 6q3 4 7 7l3 2l4 3q5 3 5 7q0 12 -12 12q-10 0 -21 -10q-11 -11 -11 -23q0 -5 2 -8q2 -4 7 -4q7 0 12 8z" />
            <glyph glyph-name="uni04AF" unicode="&#x4af;" horiz-adv-x="413"
                   d="M274 150v-228q0 -28 -20 -49q-20 -20 -49 -20q-28 0 -49 20q-20 21 -20 49v212l-125 306l-2 5l-2 6q-2 8 -2 14q0 28 21 48q22 20 51 20q45 0 60 -40l63 -165l83 178q12 27 52 27q29 0 50 -18q23 -20 23 -49q0 -6 -2 -14q-2 -7 -5 -12zM35 475q7 0 20 14q5 5 9 10
q3 5 3 7q0 10 -10 10q-11 0 -22 -11t-11 -19q0 -11 11 -11zM316 489q12 15 12 17q0 5 -2 9q-3 4 -8 4q-11 0 -21 -13q-9 -12 -9 -20q0 -11 13 -11q3 0 15 14z" />
            <glyph glyph-name="uni04B0" unicode="&#x4b0;"
                   d="M19 222q19 19 45 19h76v3l-136 317l-3 7l-3 8q-3 11 -3 18q0 32 21 53t53 21q52 0 66 -40l78 -211l78 211q14 40 66 40q32 0 53 -21t21 -53q0 -7 -3 -18l-3 -8l-3 -7l-136 -317v-3h71q26 0 45 -19t19 -45t-19 -45t-45 -19h-71v-48q0 -65 -73 -65t-73 65v48h-76
q-26 0 -45 19t-19 45t19 45zM38 614l5 6q3 4 7 7l3 2l4 3q5 3 5 7q0 12 -12 12q-11 0 -22 -10q-12 -11 -12 -23q0 -5 2 -8q2 -4 7 -4q7 0 13 8zM325 614l4 6q3 4 7 7l3 2l4 3q5 3 5 7q0 12 -12 12q-10 0 -21 -10q-11 -11 -11 -23q0 -5 2 -8q2 -4 7 -4q7 0 12 8zM24 186
q4 -2 9 -1q2 1 13 13l5 4l5 4q6 6 5 13q-2 10 -13 8q-7 -1 -17 -12q-12 -11 -12 -19q0 -7 5 -10z" />
            <glyph glyph-name="uni04B1" unicode="&#x4b1;" horiz-adv-x="413"
                   d="M274 150v-47h50q20 0 35 -14q14 -15 14 -35t-14 -35q-15 -14 -35 -14h-50v-83q0 -28 -20 -49q-20 -20 -49 -20q-28 0 -49 20q-20 21 -20 49v83h-59q-20 0 -35 14q-14 15 -14 35t14 35q15 14 35 14h59v31l-125 306l-2 5l-2 6q-2 8 -2 14q0 28 21 48q22 20 51 20
q45 0 60 -40l63 -165l83 178q12 27 52 27q29 0 50 -18q23 -20 23 -49q0 -6 -2 -14q-2 -7 -5 -12zM35 475q7 0 20 14q5 5 9 10q3 5 3 7q0 10 -10 10q-11 0 -22 -11t-11 -19q0 -11 11 -11zM316 489q12 15 12 17q0 5 -2 9q-3 4 -8 4q-11 0 -21 -13q-9 -12 -9 -20q0 -11 13 -11
q3 0 15 14zM44 54q3 -4 8 -4q4 0 17 11t13 17q0 4 -4 8q-3 4 -7 4q-11 0 -21 -11q-4 -5 -7 -9q-2 -5 -2 -7q0 -5 3 -9z" />
            <glyph glyph-name="uni04BA" unicode="&#x4ba;" horiz-adv-x="482"
                   d="M184 462q24 8 57 8q86 0 144 -56q59 -57 59 -147v-201q0 -66 -73 -66t-73 66v205q0 23 -17 41q-18 19 -43 19q-33 0 -54 -11v-254q0 -66 -73 -66t-73 66v537q0 65 73 65t73 -65v-141zM80 615l5 6q3 4 7 7l3 2l4 3q5 3 5 7q0 12 -12 12q-11 0 -22 -10q-12 -11 -12 -23
q0 -5 2 -8q2 -4 7 -4q7 0 13 8z" />
            <glyph glyph-name="uni04BB" unicode="&#x4bb;" horiz-adv-x="428"
                   d="M173 516q29 18 65 18q66 0 112 -50q45 -51 45 -126v-289q0 -28 -20 -49q-20 -20 -49 -20q-28 0 -49 20q-20 21 -20 49v293q0 17 -12 30q-13 12 -30 12t-30 -12q-12 -13 -12 -30v-293q0 -28 -20 -49q-20 -20 -49 -20q-28 0 -49 20q-20 21 -20 49v540q0 29 20 49
q21 20 49 20q29 0 49 -20t20 -49v-93zM58 625q3 -4 8 -4q7 0 13 9q2 3 6 5l6 4q6 5 6 11q0 4 -4 8q-3 4 -7 4q-11 0 -22 -12q-4 -4 -7 -9q-2 -5 -2 -7q0 -5 3 -9z" />
            <glyph glyph-name="uni04D8" unicode="&#x4d8;" horiz-adv-x="490"
                   d="M321 406q-13 129 -85 129q-21 0 -41 -7l-7 -3l-6 -3q-8 -2 -16 -2q-25 0 -43 22q-19 21 -19 49q0 36 36 58q37 21 99 21q128 0 184 -108q42 -83 42 -228q0 -146 -44 -228q-58 -108 -194 -108q-202 0 -202 286q0 49 28 84q31 38 81 38h187zM162 266q2 -70 17 -99
q16 -34 53 -34q75 0 89 133h-159zM70 365q-10 -10 -10 -21q0 -4 2 -7q2 -4 5 -4l2 1h1l11 10q7 6 10 10q5 6 5 10q0 10 -9 10q-8 0 -17 -9zM126 619q-7 -11 -7 -20q0 -8 7 -8q4 0 15 13t11 17q0 10 -10 10q-9 0 -16 -12z" />
            <glyph glyph-name="uni04D9" unicode="&#x4d9;" horiz-adv-x="416"
                   d="M190 408q-10 0 -19 -2q-6 -1 -13 -4q-15 -6 -24 -6q-19 0 -34 21q-15 20 -15 44q0 30 29 51q31 22 79 22q109 0 159 -86q39 -68 39 -182q0 -113 -38 -181q-48 -87 -154 -87q-88 0 -136 54q-48 55 -48 159q0 55 54 91q46 31 95 31q40 0 90 -5q-10 80 -64 80zM203 223h-17
l-10 -2q-13 -2 -21 -6q-9 -5 -9 -14q0 -38 15 -59q12 -19 32 -19q26 0 42 23q15 20 15 45q0 12 -5 18q-10 14 -42 14zM83 287h-2l-4 -2q-7 -3 -13 -7q-18 -12 -18 -31q0 -8 8 -8q6 0 22 16q17 16 17 23q0 9 -10 9zM110 493q-7 -7 -7 -16t7 -9q9 0 17 9q7 7 7 13q0 5 -4 8
q-4 2 -8 2q-6 0 -12 -7z" />
            <glyph glyph-name="uni04E8" unicode="&#x4e8;" horiz-adv-x="492"
                   d="M447 166q-21 -79 -76 -124q-54 -44 -125 -44t-125 44q-55 45 -76 124q-15 58 -15 168t15 168q21 79 76 125q54 43 125 43t125 -43q55 -46 76 -125q15 -58 15 -168t-15 -168zM305 170q15 31 17 107h-153q2 -76 18 -107q17 -35 59 -35t59 35zM190 504q-16 -26 -20 -87h151
q-4 61 -19 87q-18 29 -56 29q-39 0 -56 -29zM95 527l3 4l1 3q19 37 45 58q10 9 21 15l10 6l9 4l6 3l6 3q7 5 7 12q0 5 -2 9q-3 4 -8 4q-12 0 -33 -11q-21 -12 -34 -24q-19 -18 -33 -39q-19 -26 -19 -42q0 -3 4 -6q5 -3 10 -3q3 0 7 4zM316 123q23 20 23 35q0 10 -12 10
q-5 0 -9 -3l-3 -4l-2 -3q-13 -20 -32 -29l-3 -2l-3 -2q-4 -3 -4 -8q0 -13 12 -13t33 19z" />
            <glyph glyph-name="uni04E9" unicode="&#x4e9;" horiz-adv-x="414"
                   d="M375 123q-18 -57 -63 -91t-105 -34t-105 34t-63 91q-14 43 -14 143t14 143q18 57 63 91t105 34t105 -34t63 -91q14 -43 14 -143t-14 -143zM244 147q11 20 13 69h-100q2 -49 13 -69q11 -21 37 -21t37 21zM158 336h98q-7 70 -49 70q-43 0 -49 -70zM69 408q4 0 20 24l7 9
l7 10q9 11 15 16t17 10l10 5l10 4q23 11 23 19q0 10 -10 10q-27 0 -66 -33q-42 -34 -44 -65q0 -9 11 -9zM265 116q13 16 13 27t-11 11q-4 0 -13 -11l-4 -6l-5 -6q-6 -7 -13 -12q-3 -3 -3 -8q0 -10 11 -10t25 15z" />
            <glyph glyph-name="uni060C" unicode="&#x60c;" horiz-adv-x="221"
                   d="M62 95q15 51 66 51q29 0 48 -20q20 -19 20 -48q0 -8 -2 -18l-33 -109q-14 -51 -66 -51q-31 0 -53 26q-23 26 -14 56zM82 86q5 -3 9 -1q2 1 9 9l5 6l6 6q7 6 6 13q-2 10 -13 8q-6 -1 -16 -12q-11 -11 -11 -19q0 -7 5 -10z" />
            <glyph glyph-name="uni061B" unicode="&#x61b;" horiz-adv-x="241"
                   d="M59 85q4 -2 9 -1q2 1 13 13l5 4l5 4q6 6 5 13q-2 10 -13 8q-7 -1 -17 -12q-12 -11 -12 -19q0 -7 5 -10zM57 125q21 21 51 21t52 -21q21 -22 21 -52t-21 -51q-22 -22 -52 -22t-51 22q-22 21 -22 51t22 52zM72 430q15 51 66 51q29 0 48 -20q20 -19 20 -48q0 -8 -2 -18
l-33 -109q-14 -51 -66 -51q-31 0 -53 26q-23 26 -14 56zM92 421q5 -3 9 -1q2 1 9 9l5 6l6 6q7 6 6 13q-2 10 -13 8q-6 -1 -16 -12q-11 -11 -11 -19q0 -7 5 -10z" />
            <glyph glyph-name="uni0640" unicode="&#x640;" horiz-adv-x="396"
                   d="M-9 128h414v-128h-414v128z" />
            <glyph glyph-name="endash" unicode="&#x2013;" horiz-adv-x="490"
                   d="M39 373q19 19 45 19h322q26 0 45 -19t19 -45t-19 -45t-45 -19h-322q-26 0 -45 19t-19 45t19 45zM44 337q4 -2 9 -1q2 1 13 13l5 4l5 4q6 6 5 13q-2 10 -13 8q-7 -1 -17 -12q-12 -11 -12 -19q0 -7 5 -10z" />
            <glyph glyph-name="emdash" unicode="&#x2014;" horiz-adv-x="610"
                   d="M39 373q19 19 45 19h442q26 0 45 -19t19 -45t-19 -45t-45 -19h-442q-26 0 -45 19t-19 45t19 45zM44 337q4 -2 9 -1q2 1 13 13l5 4l5 4q6 6 5 13q-2 10 -13 8q-7 -1 -17 -12q-12 -11 -12 -19q0 -7 5 -10z" />
            <glyph glyph-name="uni2015" unicode="&#x2015;" horiz-adv-x="610"
                   d="M39 373q19 19 45 19h442q26 0 45 -19t19 -45t-19 -45t-45 -19h-442q-26 0 -45 19t-19 45t19 45zM44 337q4 -2 9 -1q2 1 13 13l5 4l5 4q6 6 5 13q-2 10 -13 8q-7 -1 -17 -12q-12 -11 -12 -19q0 -7 5 -10z" />
            <glyph glyph-name="quoteleft" unicode="&#x2018;" horiz-adv-x="201"
                   d="M52 649q15 51 66 51q29 0 48 -20q20 -19 20 -48q0 -8 -2 -18l-33 -109q-14 -51 -66 -51q-31 0 -53 26q-23 26 -14 56zM72 640q5 -3 9 -1q2 1 8 9l5 6l6 6q7 6 6 13q-2 10 -13 8q-6 -1 -16 -12t-10 -19q0 -7 5 -10z" />
            <glyph glyph-name="quoteright" unicode="&#x2019;" horiz-adv-x="201"
                   d="M52 649q15 51 66 51q29 0 48 -20q20 -19 20 -48q0 -8 -2 -18l-33 -109q-14 -51 -66 -51q-31 0 -53 26q-23 26 -14 56zM72 640q5 -3 9 -1q2 1 8 9l5 6l6 6q7 6 6 13q-2 10 -13 8q-6 -1 -16 -12t-10 -19q0 -7 5 -10z" />
            <glyph glyph-name="quotesinglbase" unicode="&#x201a;" horiz-adv-x="201"
                   d="M42 95q15 51 66 51q29 0 48 -20q20 -19 20 -48q0 -8 -2 -18l-33 -109q-14 -51 -66 -51q-31 0 -53 26q-23 26 -14 56zM62 86q5 -3 9 -1q2 1 8 9l5 6l6 6q7 6 6 13q-2 10 -13 8q-6 -1 -16 -12t-10 -19q0 -7 5 -10z" />
            <glyph glyph-name="quotedblleft" unicode="&#x201c;" horiz-adv-x="381"
                   d="M232 649q15 51 66 51q29 0 48 -20q20 -19 20 -48q0 -8 -2 -18l-33 -109q-14 -51 -66 -51q-31 0 -53 26q-23 26 -14 56zM252 640q5 -3 9 -1q2 1 8 9l5 6l6 6q7 6 6 13q-2 10 -13 8q-6 -1 -16 -12t-10 -19q0 -7 5 -10zM52 649q15 51 66 51q29 0 48 -20q20 -19 20 -48
q0 -8 -2 -18l-33 -109q-14 -51 -66 -51q-31 0 -53 26q-23 26 -14 56zM72 640q5 -3 9 -1q2 1 8 9l5 6l6 6q7 6 6 13q-2 10 -13 8q-6 -1 -16 -12t-10 -19q0 -7 5 -10z" />
            <glyph glyph-name="quotedblright" unicode="&#x201d;" horiz-adv-x="381"
                   d="M232 649q15 51 66 51q29 0 48 -20q20 -19 20 -48q0 -8 -2 -18l-33 -109q-14 -51 -66 -51q-31 0 -53 26q-23 26 -14 56zM252 640q5 -3 9 -1q2 1 8 9l5 6l6 6q7 6 6 13q-2 10 -13 8q-6 -1 -16 -12t-10 -19q0 -7 5 -10zM52 649q15 51 66 51q29 0 48 -20q20 -19 20 -48
q0 -8 -2 -18l-33 -109q-14 -51 -66 -51q-31 0 -53 26q-23 26 -14 56zM72 640q5 -3 9 -1q2 1 8 9l5 6l6 6q7 6 6 13q-2 10 -13 8q-6 -1 -16 -12t-10 -19q0 -7 5 -10z" />
            <glyph glyph-name="quotedblbase" unicode="&#x201e;" horiz-adv-x="381"
                   d="M222 95q15 51 66 51q29 0 48 -20q20 -19 20 -48q0 -8 -2 -18l-33 -109q-14 -51 -66 -51q-31 0 -53 26q-23 26 -14 56zM242 86q5 -3 9 -1q2 1 8 9l5 6l6 6q7 6 6 13q-2 10 -13 8q-6 -1 -16 -12t-10 -19q0 -7 5 -10zM42 95q15 51 66 51q29 0 48 -20q20 -19 20 -48
q0 -8 -2 -18l-33 -109q-14 -51 -66 -51q-31 0 -53 26q-23 26 -14 56zM62 86q5 -3 9 -1q2 1 8 9l5 6l6 6q7 6 6 13q-2 10 -13 8q-6 -1 -16 -12t-10 -19q0 -7 5 -10z" />
            <glyph glyph-name="dagger" unicode="&#x2020;" horiz-adv-x="420"
                   d="M255 651q19 -19 19 -45v-102h62q26 0 45 -19t19 -45t-19 -45t-45 -19h-62v-392q0 -26 -19 -45t-45 -19t-45 19t-19 45v392h-62q-26 0 -45 19t-19 45t19 45t45 19h62v102q0 26 19 45t45 19t45 -19zM174 641q-11 -11 -12 -18q-2 -11 8 -13q7 -1 13 5l4 6l4 5q12 11 13 13
q1 5 -1 9q-3 5 -10 5q-8 0 -19 -12zM44 449q4 -2 9 -1q2 1 13 13q1 2 5 4l6 3q6 5 5 12q-2 10 -13 8q-7 -1 -18 -11q-12 -10 -12 -18q0 -7 5 -10z" />
            <glyph glyph-name="daggerdbl" unicode="&#x2021;" horiz-adv-x="420"
                   d="M39 317q19 19 45 19h62v40h-62q-26 0 -45 19t-19 45t19 45t45 19h62v102q0 26 19 45t45 19t45 -19t19 -45v-102h62q26 0 45 -19t19 -45t-19 -45t-45 -19h-62v-40h62q26 0 45 -19t19 -45t-19 -45t-45 -19h-62v-224q0 -26 -19 -45t-45 -19t-45 19t-19 45v224h-62
q-26 0 -45 19t-19 45t19 45zM174 641q-11 -11 -12 -18q-2 -11 8 -13q7 -1 13 5l4 6l4 5q12 11 13 13q1 5 -1 9q-3 5 -10 5q-8 0 -19 -12zM44 449q4 -2 9 -1q2 1 13 13q1 2 5 4l6 3q6 5 5 12q-2 10 -13 8q-7 -1 -18 -11q-12 -10 -12 -18q0 -7 5 -10zM44 281q4 -2 9 -1
q2 1 13 13q1 2 5 4l6 3q6 5 5 12q-2 10 -13 8q-7 -1 -18 -11q-12 -10 -12 -18q0 -7 5 -10z" />
            <glyph glyph-name="bullet" unicode="&#x2022;" horiz-adv-x="342"
                   d="M79 381q38 38 92 38t93 -38q38 -39 38 -93t-38 -92q-39 -39 -93 -39t-92 39q-39 38 -39 92t39 93z" />
            <glyph glyph-name="ellipsis" unicode="&#x2026;" horiz-adv-x="588"
                   d="M49 85q4 -2 9 -1q2 1 13 13l5 4l5 4q6 6 5 13q-2 10 -13 8q-7 -1 -17 -12q-12 -11 -12 -19q0 -7 5 -10zM47 125q21 21 51 21t52 -21q21 -22 21 -52t-21 -51q-22 -22 -52 -22t-51 22q-22 21 -22 51t22 52zM245 85q4 -2 9 -1q2 1 13 13l5 4l5 4q6 6 5 13q-2 10 -13 8
q-7 -1 -17 -12q-12 -11 -12 -19q0 -7 5 -10zM243 125q21 21 51 21t52 -21q21 -22 21 -52t-21 -51q-22 -22 -52 -22t-51 22q-22 21 -22 51t22 52zM441 85q4 -2 9 -1q2 1 13 13l5 4l5 4q6 6 5 13q-2 10 -13 8q-7 -1 -17 -12q-12 -11 -12 -19q0 -7 5 -10zM439 125q21 21 51 21
t52 -21q21 -22 21 -52t-21 -51q-22 -22 -52 -22t-51 22q-22 21 -22 51t22 52z" />
            <glyph glyph-name="perthousand" unicode="&#x2030;" horiz-adv-x="928"
                   d="M416 640q8 18 28 25q19 7 37 -1q19 -9 26 -28q6 -19 -2 -37l-265 -571q-8 -18 -28 -25q-19 -7 -37 1q-19 9 -26 28t2 38zM446 617l3 5l6 6l4 3l4 3q4 4 4 8q0 11 -10 13q-9 2 -20 -9q-12 -10 -12 -20q0 -15 11 -15q6 0 10 6zM76 319q-31 26 -43 70q-8 32 -8 93q0 62 8 92
q12 44 43 71q30 25 69 25t69 -25q31 -27 43 -71q8 -30 8 -92q0 -61 -8 -93q-12 -44 -43 -70q-30 -25 -69 -25t-69 25zM116 554q-6 -19 -6 -72t6 -72q7 -24 29 -24t30 24q5 19 5 72t-5 72q-8 23 -30 23t-29 -23zM440 23q-31 26 -43 70q-8 32 -8 93q0 62 8 92q12 44 43 71
q30 25 69 25t69 -25q31 -27 43 -71q8 -30 8 -92q0 -61 -8 -93q-12 -44 -43 -70q-30 -25 -69 -25t-69 25zM480 258q-6 -19 -6 -72t6 -72q7 -24 29 -24t30 24q5 19 5 72t-5 72q-8 23 -30 23t-29 -23zM714 23q-31 26 -43 70q-8 32 -8 93q0 62 8 92q12 44 43 71q30 25 69 25
t69 -25q31 -27 43 -71q8 -30 8 -92q0 -61 -8 -93q-12 -44 -43 -70q-30 -25 -69 -25t-69 25zM754 258q-6 -19 -6 -72t6 -72q7 -24 29 -24t30 24q5 19 5 72t-5 72q-8 23 -30 23t-29 -23z" />
            <glyph glyph-name="guilsinglleft" unicode="&#x2039;" horiz-adv-x="189"
                   d="M80 365q5 0 9 4l4 4l5 5l4 3l5 3q5 3 5 7q0 11 -9 11q-8 0 -20 -10q-12 -11 -12 -18q0 -9 9 -9zM171 72q3 -9 3 -17q0 -22 -19 -39q-19 -16 -43 -16q-16 0 -31 10q-15 11 -20 25l-52 153l-1 4l-1 5q-2 6 -2 9t2 9l1 5l1 4l52 153q5 14 20 25q15 10 31 10q24 0 43 -16
q19 -17 19 -39q0 -8 -3 -17l-45 -134z" />
            <glyph glyph-name="guilsinglright" unicode="&#x203a;" horiz-adv-x="189"
                   d="M63 206l-45 134q-3 9 -3 17q0 22 19 39q19 16 43 16q16 0 32 -10q14 -11 19 -25l52 -153l1 -4l1 -5q2 -6 2 -9t-2 -9l-1 -5l-1 -4l-52 -153q-5 -14 -19 -25q-16 -10 -32 -10q-24 0 -43 16q-19 17 -19 39q0 8 3 17zM41 365q7 0 20 11l4 3l5 3q5 3 5 7q0 11 -9 11
q-8 0 -21 -9q-13 -10 -13 -17q0 -9 9 -9z" />
            <glyph glyph-name="fraction" unicode="&#x2044;" horiz-adv-x="364"
                   d="M270 640q8 18 28 25q19 7 37 -1q19 -9 26 -28q6 -19 -2 -37l-265 -571q-8 -18 -28 -25q-19 -7 -37 1q-19 9 -26 28t2 38zM300 617l3 5l6 6l4 3l4 3q4 4 4 8q0 11 -10 13q-9 2 -20 -9q-12 -10 -12 -20q0 -15 11 -15q6 0 10 6z" />
            <glyph glyph-name="uni2070" unicode="&#x2070;" horiz-adv-x="270"
                   d="M66 319q-31 26 -43 70q-8 32 -8 93q0 62 8 92q12 44 43 71q30 25 69 25t69 -25q31 -27 43 -71q8 -30 8 -92q0 -61 -8 -93q-12 -44 -43 -70q-30 -25 -69 -25t-69 25zM106 554q-6 -19 -6 -72t6 -72q7 -24 29 -24t30 24q5 19 5 72t-5 72q-8 23 -30 23t-29 -23z" />
            <glyph glyph-name="uni2074" unicode="&#x2074;" horiz-adv-x="258"
                   d="M216 449q17 0 30 -12q12 -13 12 -30t-12 -30q-13 -12 -30 -12v-22q0 -20 -13 -34t-30 -14q-18 0 -30 14q-13 14 -13 34v22h-87q-19 0 -31 15q-12 14 -12 34q0 6 1 12q2 7 6 14l127 206q15 22 38 22q19 0 32 -15q12 -14 12 -33v-171zM130 449v62l-38 -62h38z" />
            <glyph glyph-name="uni2075" unicode="&#x2075;" horiz-adv-x="236"
                   d="M67 668h98q18 0 31 -13q12 -14 12 -33q0 -20 -12 -34q-13 -14 -31 -14h-55l-1 -30h7q43 0 74 -31q36 -35 36 -93q0 -53 -35 -90q-34 -36 -79 -36q-48 0 -81 32q-31 29 -31 66q0 19 14 32t33 13q27 0 35 -26l3 -8q2 -4 5 -7q7 -8 22 -8q11 0 20 9q9 10 9 22q0 38 -39 38
q-5 0 -23 -2q-18 -3 -22 -3q-45 0 -41 58l8 116q5 42 43 42z" />
            <glyph glyph-name="uni2076" unicode="&#x2076;" horiz-adv-x="248"
                   d="M41 330q-31 36 -31 92q0 68 30 131q20 42 54 79q36 38 57 38q20 0 32 -15q11 -14 11 -34q0 -19 -29 -46q-10 -9 -16 -15q-9 -9 -15 -17q45 -2 74 -35q30 -35 30 -90q0 -51 -34 -88q-34 -36 -80 -36q-51 0 -83 36zM156 419q0 37 -32 37t-32 -37q0 -36 32 -36t32 36z" />
            <glyph glyph-name="uni2077" unicode="&#x2077;" horiz-adv-x="209"
                   d="M106 574h-68q-18 0 -30 14q-13 14 -13 34q0 19 13 33q12 13 30 13h132q24 0 36 -22q12 -20 4 -45l-85 -268q-6 -21 -20 -30q-11 -8 -25 -8q-23 0 -36 19q-14 19 -6 44z" />
            <glyph glyph-name="uni2078" unicode="&#x2078;" horiz-adv-x="232"
                   d="M38 327q-33 33 -33 80t35 80q-28 33 -28 74q0 46 30 77q30 32 74 32t74 -32q30 -31 30 -77q0 -41 -28 -74q35 -33 35 -80t-33 -80q-32 -33 -78 -33t-78 33zM87 415q0 -33 29 -33t29 33q0 32 -29 32t-29 -32zM90 555q0 -29 26 -29t26 29t-26 29t-26 -29z" />
            <glyph glyph-name="uni2079" unicode="&#x2079;" horiz-adv-x="246"
                   d="M42 633q32 37 80 37q53 0 85 -44q29 -41 29 -99q0 -96 -68 -183q-40 -50 -69 -50q-19 0 -30 13q-12 13 -12 33q0 13 9 27q6 8 20 21t29 35h-6q-43 0 -71 35t-28 88q0 51 32 87zM154 545q0 37 -32 37t-32 -37q0 -36 32 -36t32 36z" />
            <glyph glyph-name="uni2080" unicode="&#x2080;" horiz-adv-x="270"
                   d="M66 24q-31 26 -43 70q-8 32 -8 93q0 62 8 92q12 44 43 71q30 25 69 25t69 -25q31 -27 43 -71q8 -30 8 -92q0 -61 -8 -93q-12 -44 -43 -70q-30 -25 -69 -25t-69 25zM106 259q-6 -19 -6 -72t6 -72q7 -24 29 -24t30 24q5 19 5 72t-5 72q-8 23 -30 23t-29 -23z" />
            <glyph glyph-name="uni2081" unicode="&#x2081;" horiz-adv-x="157"
                   d="M132 48q0 -20 -13 -34t-31 -14t-31 14q-14 14 -14 34v195h-3l-4 -1q-5 -1 -7 -1q-17 0 -30 13q-14 14 -14 35q0 28 20 40l60 37q4 2 11 5q7 2 11 2q20 0 33 -15q12 -14 12 -33v-277z" />
            <glyph glyph-name="uni2082" unicode="&#x2082;" horiz-adv-x="233"
                   d="M123 93h57q18 0 30 -13q13 -14 13 -34q0 -19 -13 -33q-13 -13 -30 -13h-137q-18 0 -30 13q-13 14 -13 33q0 16 9 28l113 180q6 10 6 17q0 13 -17 13q-11 0 -20 -14l-7 -10q-4 -5 -8 -8q-11 -9 -24 -9q-16 0 -29 14q-14 14 -14 34q0 25 26 52q30 32 74 32q47 0 78 -32
q29 -30 29 -73q0 -29 -19 -61z" />
            <glyph glyph-name="uni2083" unicode="&#x2083;" horiz-adv-x="233"
                   d="M102 235l10 4l9 6q10 6 10 15q0 22 -19 22q-8 0 -14 -4q-4 -3 -7 -9q-15 -26 -38 -26q-16 0 -29 13q-14 14 -14 33q0 28 27 55q31 31 73 31q46 0 77 -32q28 -30 28 -72q0 -40 -29 -77q6 -6 11 -12q7 -9 12 -18q14 -25 14 -55q0 -43 -31 -76q-32 -34 -80 -34q-52 0 -85 36
q-27 30 -27 62q0 19 12 33q12 12 29 14q27 3 34 -18q11 -35 33 -35q12 0 20 6q10 7 10 20q0 19 -31 31q-30 16 -30 46q0 31 25 41z" />
            <glyph glyph-name="uni2084" unicode="&#x2084;" horiz-adv-x="258"
                   d="M216 154q17 0 30 -12q12 -13 12 -30t-12 -30q-13 -12 -30 -12v-22q0 -20 -13 -34t-30 -14q-18 0 -30 14q-13 14 -13 34v22h-87q-19 0 -31 15q-12 14 -12 34q0 6 1 12q2 7 6 14l127 206q15 22 38 22q19 0 32 -15q12 -14 12 -33v-171zM130 154v62l-38 -62h38z" />
            <glyph glyph-name="uni2085" unicode="&#x2085;" horiz-adv-x="236"
                   d="M67 373h98q18 0 31 -13q12 -14 12 -33q0 -20 -12 -34q-13 -14 -31 -14h-55l-1 -30h7q43 0 74 -31q36 -35 36 -93q0 -53 -35 -90q-34 -36 -79 -36q-48 0 -81 32q-31 29 -31 66q0 19 14 32t33 13q27 0 35 -26l3 -8q2 -4 5 -7q7 -8 22 -8q11 0 20 9q9 10 9 22q0 38 -39 38
q-5 0 -23 -2q-18 -3 -22 -3q-45 0 -41 58l8 116q5 42 43 42z" />
            <glyph glyph-name="uni2086" unicode="&#x2086;" horiz-adv-x="248"
                   d="M41 35q-31 36 -31 92q0 68 30 131q20 42 54 79q36 38 57 38q20 0 32 -15q11 -14 11 -34q0 -19 -29 -46q-10 -9 -16 -15q-9 -9 -15 -17q45 -2 74 -35q30 -35 30 -90q0 -51 -34 -88q-34 -36 -80 -36q-51 0 -83 36zM156 124q0 37 -32 37t-32 -37q0 -36 32 -36t32 36z" />
            <glyph glyph-name="uni2087" unicode="&#x2087;" horiz-adv-x="209"
                   d="M106 279h-68q-18 0 -30 14q-13 14 -13 34q0 19 13 33q12 13 30 13h132q24 0 36 -22q12 -20 4 -45l-85 -268q-6 -21 -20 -30q-11 -8 -25 -8q-23 0 -36 19q-14 19 -6 44z" />
            <glyph glyph-name="uni2088" unicode="&#x2088;" horiz-adv-x="232"
                   d="M38 32q-33 33 -33 80t35 80q-28 33 -28 74q0 46 30 77q30 32 74 32t74 -32q30 -31 30 -77q0 -41 -28 -74q35 -33 35 -80t-33 -80q-32 -33 -78 -33t-78 33zM87 120q0 -33 29 -33t29 33q0 32 -29 32t-29 -32zM90 260q0 -29 26 -29t26 29t-26 29t-26 -29z" />
            <glyph glyph-name="uni2089" unicode="&#x2089;" horiz-adv-x="246"
                   d="M42 338q32 37 80 37q53 0 85 -44q29 -41 29 -99q0 -96 -68 -183q-40 -50 -69 -50q-19 0 -30 13q-12 13 -12 33q0 13 9 27q6 8 20 21t29 35h-6q-43 0 -71 35t-28 88q0 51 32 87zM154 250q0 37 -32 37t-32 -37q0 -36 32 -36t32 36z" />
            <glyph glyph-name="Euro" unicode="&#x20ac;" horiz-adv-x="459"
                   d="M12 390q21 22 52 22h5q8 105 38 154q28 47 77 76q49 28 100 28q77 0 117 -40q27 -28 27 -57q0 -28 -23 -48q-22 -20 -50 -20q-25 0 -47 20q-10 9 -29 9q-62 0 -71 -122h90q31 0 52 -22q22 -21 22 -52t-22 -52q-21 -22 -52 -22h-92q0 -63 22 -98q20 -32 54 -32q33 0 55 28
q26 31 55 31q12 0 24 -5q4 -2 8 -5l6 -4q24 -21 24 -58q0 -39 -32 -71q-55 -52 -141 -52q-65 0 -118 38t-76 102q-15 39 -20 126q-33 0 -55 22q-22 21 -22 52t22 52zM120 523q4 0 9 4q3 4 5 9q31 59 95 86q5 2 8 4q4 4 4 7v3l-1 3q-2 5 -6 5q-26 0 -65 -32q-59 -48 -59 -81
q0 -8 10 -8zM14 351q4 -2 9 -1q2 1 13 13l5 4l5 4q6 6 5 13q-2 10 -13 8q-7 -1 -17 -12q-12 -11 -12 -19q0 -7 5 -10zM386 158q0 15 -16 15q-5 0 -13 -9q-9 -9 -9 -15q0 -4 3 -7t6 -3q13 0 29 19z" />
            <glyph glyph-name="uni2116" unicode="&#x2116;" horiz-adv-x="840"
                   d="M186 312v-247q0 -65 -73 -65t-73 65v537q0 66 73 66q24 0 41 -12q14 -10 23 -26l141 -276v248q0 66 73 66t73 -66v-537q0 -65 -73 -65q-45 0 -67 42zM80 615l5 6q3 4 7 7l3 2l4 3q5 3 5 7q0 12 -12 12q-11 0 -22 -10q-12 -11 -12 -23q0 -5 2 -8q2 -4 7 -4q7 0 13 8z
M358 615l5 6q3 4 7 7l3 2l4 3q5 3 5 7q0 12 -12 12q-11 0 -22 -10q-12 -11 -12 -23q0 -5 2 -8q2 -4 7 -4q7 0 13 8zM636 286q8 -27 34 -27q25 0 33 27q7 23 7 85t-7 85q-8 27 -33 27q-26 0 -34 -27q-7 -22 -7 -85t7 -85zM719 251q9 12 9 19q0 9 -8 9q-2 0 -16 -18l-5 -5
l-5 -3q-5 -5 -5 -8q0 -8 9 -8q11 0 21 14zM804 256q-14 -45 -51 -72q-37 -28 -83 -28q-47 0 -84 28q-37 27 -51 72q-11 37 -11 115q0 79 11 114q14 45 51 73q37 27 84 27q46 0 83 -27q37 -28 51 -73q11 -32 11 -114t-11 -115zM561 482q6 0 11 10q10 20 28 38q7 5 17 11
q7 3 19 8q12 3 12 11t-8 8q-20 0 -50 -23q-14 -12 -25 -27q-12 -17 -13 -28q0 -8 9 -8zM555 102q17 18 43 18h143q26 0 43 -18t17 -42t-17 -42t-43 -18h-143q-26 0 -43 18t-17 42t17 42zM558 65q4 -2 9 -1q2 1 13 13l5 4l5 4q6 6 5 13q-2 10 -13 8q-7 -1 -17 -12
q-12 -11 -12 -19q0 -7 5 -10z" />
            <glyph glyph-name="uni2117" unicode="&#x2117;" horiz-adv-x="748"
                   d="M170 130q84 -85 204 -85t205 85q84 84 84 204t-84 205q-85 84 -205 84t-204 -84q-85 -85 -85 -205t85 -204zM134 574q100 99 240 99t240 -99q99 -100 99 -240t-99 -240q-100 -99 -240 -99t-240 99q-99 100 -99 240t99 240zM278 487q0 39 43 39h72q47 0 77 -33
q31 -34 31 -87q0 -47 -27 -80q-29 -36 -76 -36h-33v-124q0 -39 -44 -39q-43 0 -43 39v321zM389 372q14 0 23 11q8 10 8 24q0 15 -8 25q-9 12 -25 12h-18q-4 0 -4 -2v-68q0 -2 4 -2h20z" />
            <glyph glyph-name="uni2120" unicode="&#x2120;" horiz-adv-x="507"
                   d="M418 651q8 17 27 17q32 0 32 -28v-231q0 -28 -32 -28q-31 0 -31 28v110l-32 -63q-8 -17 -27 -17q-20 0 -27 17l-32 63v-110q0 -28 -31 -28q-32 0 -32 28v231q0 28 32 28q19 0 27 -17l63 -121zM159 407q-25 -27 -64 -27q-36 0 -62 27q-23 23 -23 45q0 11 8 20q9 10 22 10
q20 0 29 -21q12 -23 28 -23q10 0 19 8t9 20q0 20 -14 30q-8 6 -32 14q-61 22 -61 83q0 30 24 53t56 23q10 0 19 -2q11 -3 20 -8q32 -16 32 -40q0 -30 -29 -30q-13 0 -23 10q-5 6 -8 8q-5 4 -10 4q-9 0 -16 -8q-6 -7 -6 -14q0 -15 16 -23q6 -3 15 -6l8 -2l7 -3q60 -23 60 -84
q0 -38 -24 -64z" />
            <glyph glyph-name="trademark" unicode="&#x2122;" horiz-adv-x="493"
                   d="M404 651q8 17 27 17q32 0 32 -28v-231q0 -28 -32 -28q-31 0 -31 28v110l-32 -63q-8 -17 -27 -17q-20 0 -27 17l-32 63v-110q0 -28 -31 -28q-32 0 -32 28v231q0 28 32 28q19 0 27 -17l63 -121zM127 608v-199q0 -28 -31 -28t-31 28v199h-25q-30 0 -30 30t30 30h113
q30 0 30 -30t-30 -30h-26z" />
            <glyph glyph-name="estimated" unicode="&#x212e;" horiz-adv-x="771"
                   d="M159 325v-199q93 -107 227 -107q135 0 235 108h44q-49 -61 -122 -95q-75 -36 -158 -36q-148 0 -251 99q-104 98 -104 239t104 240q104 100 251 100t251 -101q105 -102 105 -248h-582zM609 540q-92 112 -224 112q-130 0 -226 -112v-196h450v196z" />
            <glyph glyph-name="minus" unicode="&#x2212;" horiz-adv-x="390"
                   d="M39 363q19 19 45 19h222q26 0 45 -19t19 -45t-19 -45t-45 -19h-222q-26 0 -45 19t-19 45t19 45zM44 327q4 -2 9 -1q2 1 13 13l5 4l5 4q6 6 5 13q-2 10 -13 8q-7 -1 -17 -12q-12 -11 -12 -19q0 -7 5 -10z" />
            <glyph glyph-name="uni2215" unicode="&#x2215;" horiz-adv-x="364"
                   d="M270 640q8 18 28 25q19 7 37 -1q19 -9 26 -28q6 -19 -2 -37l-265 -571q-8 -18 -28 -25q-19 -7 -37 1q-19 9 -26 28t2 38zM300 617l3 5l6 6l4 3l4 3q4 4 4 8q0 11 -10 13q-9 2 -20 -9q-12 -10 -12 -20q0 -15 11 -15q6 0 10 6z" />
            <glyph glyph-name="uni2219" unicode="&#x2219;" horiz-adv-x="226"
                   d="M64 344q4 -2 9 -1q2 1 13 13l5 4l5 4q6 6 5 13q-2 10 -13 8q-7 -1 -17 -12q-12 -11 -12 -19q0 -7 5 -10zM62 384q21 21 51 21t52 -21q21 -22 21 -52t-21 -51q-22 -22 -52 -22t-51 22q-22 21 -22 51t22 52z" />
            <glyph glyph-name="lessequal" unicode="&#x2264;" horiz-adv-x="409"
                   d="M57 402l226 130q23 13 48 6q26 -7 39 -29q13 -23 6 -49t-29 -39l-134 -77l134 -77q22 -13 29 -39t-6 -49q-13 -22 -39 -29q-25 -7 -48 6l-226 130q-37 20 -37 58q0 37 37 58zM40 109q19 19 45 19h240q26 0 45 -19t19 -45t-19 -45t-45 -19h-240q-26 0 -45 19t-19 45t19 45
zM45 354q4 -2 9 -1q2 1 13 13q1 2 5 4l6 3q6 5 5 12q-2 10 -13 8q-7 -1 -18 -11q-12 -10 -12 -18q0 -7 5 -10zM45 73q4 -2 9 -1q2 1 13 13q1 2 5 4l6 3q6 5 5 12q-2 10 -13 8q-7 -1 -18 -11q-12 -10 -12 -18q0 -7 5 -10z" />
            <glyph glyph-name="greaterequal" unicode="&#x2265;" horiz-adv-x="409"
                   d="M352 286l-226 -130q-23 -13 -48 -6q-26 7 -39 29q-13 23 -6 49t29 39l134 77l-134 77q-22 13 -29 39t6 49q13 22 39 29q25 7 48 -6l226 -130q37 -21 37 -58q0 -38 -37 -58zM39 109q19 19 45 19h240q26 0 45 -19t19 -45t-19 -45t-45 -19h-240q-26 0 -45 19t-19 45t19 45z
M44 73q4 -2 9 -1q2 1 13 13q1 2 5 4l6 3q6 5 5 12q-2 10 -13 8q-7 -1 -18 -11q-12 -10 -12 -18q0 -7 5 -10zM54 485q4 -2 9 -1q2 1 13 13q1 2 5 4l6 3q6 5 5 12q-2 10 -13 8q-7 -1 -18 -11q-12 -10 -12 -18q0 -7 5 -10z" />
            <glyph glyph-name="uniF102" unicode="&#xf102;" horiz-adv-x="623"
                   d="M188 -138q-23 0 -43 18q-17 14 -26 36q-9 20 -14 58q-3 15 -4 29q-1 13 -1 20v19q1 12 2 22q4 27 17 52q12 24 17 48q2 8 3 19l3 19q7 48 42 99q-24 20 -24 54q0 28 15 56q14 27 32 38q-10 6 -30 6q-16 0 -39 -4q-7 -1 -16 -3l-6 -1l-5 -1q0 25 25 57q25 31 52 38
q-7 6 -11 11q-7 8 -12 18q-12 26 -13 69q13 -13 23 -18q-1 3 -3 13l-4 15q-4 20 -4 29q0 5 1 7q3 -9 17 -20q10 -8 21 -13q-1 3 -3 11l-2 8l-2 8q-5 22 -5 34q0 7 1 10q7 -13 26 -28q20 -16 30 -17l-1 3v4l-2 10q-2 14 -2 25q0 41 23 52q0 -13 9 -32q11 -21 24 -28
q3 14 26 32q9 7 20 14q9 6 18 10q0 -3 -1 -9l-2 -11q-3 -15 -3 -23q0 -9 4 -13q7 4 19 21q11 17 11 23q5 -3 9 -13q3 -7 4 -19l1 -9l1 -8q0 -8 1 -8q8 0 21 6q12 6 14 10q0 -6 -3 -25t-3 -20q12 4 27 10q18 7 21 10q0 -5 -4 -20q-4 -18 -11 -33q-19 -46 -45 -50
q41 -21 75 -73q42 -65 45 -143q2 -42 17 -101l6 -22l3 -10l2 -8q5 -19 6 -26q11 -62 45 -105q-13 -6 -29 -6t-28 7q-2 -2 -5 -9l-3 -6q-1 -3 -1 -4q0 -7 9 -26q8 -18 19 -33q-12 -2 -17 -2q-30 0 -55 23q5 -9 17 -24q12 -16 19 -23q-16 -6 -29 -6q-9 0 -18 2l-8 3l-7 2
q1 -6 9 -16q-3 -1 -8 -1q-8 0 -16 3l-5 3q-2 1 -3 2q1 -7 8 -17l5 -7q3 -4 4 -5q-10 -2 -15 -2q-20 0 -41 11q-18 9 -25 19q6 -21 36 -70q-6 -1 -16 -1q-28 0 -52 16q-10 6 -18 15q-7 7 -14 15q0 -15 10 -44q7 -24 16 -42q-15 1 -32 10q-14 7 -23 16q5 -10 13 -20
q9 -12 17 -20q-14 -7 -30 -7q-24 0 -42 18q0 -2 11 -25q-3 -1 -11 -1q-14 0 -27 4q-16 6 -26 16q-11 -5 -24 -5zM161 184v-5q0 -14 -16 -53q-8 -21 -12 -34q-7 -20 -9 -37q-2 -12 -2 -36q0 -55 18 -94q19 -44 53 -44h4q-23 17 -37 77q-13 53 -13 110q0 44 9 63q10 17 10 37
q0 14 -6 21zM524 118q-7 38 -11 110l-2 28l-2 27q-2 29 -4 47q-5 45 -17 50q3 -10 3 -40q0 -18 -1 -70l-2 -40v-41q0 -103 16 -126q1 4 4 10t3 5q22 -34 42 -39q-19 22 -29 79zM400 510q9 -29 9 -72q1 3 5 8l3 5l2 3q11 -16 11 -64q0 -43 -11 -66q-1 7 -6 30q-7 26 -13 44
q0 -24 -12 -52q-13 -29 -29 -37l-5 41q17 9 24 32q5 17 5 41v13q-1 8 -1 10q0 -8 -9 -30q-10 -23 -14 -24q0 4 -1 14l-1 16v9q-5 -13 -20 -36q-16 -24 -26 -33q0 3 2 9q1 7 4 15q-7 -7 -41 -37q-10 -9 -26 -24l-6 -5l-6 -5q-5 -4 -8 -7l-4 14q-22 -14 -32 -44q-8 -24 -8 -57
q0 -25 4 -47q-18 -22 -18 -78q0 -32 6 -66q5 -31 10 -40l-14 4l1 -2v-2q3 -10 5 -17l6 -18q8 -22 16 -39q22 -44 49 -51q-24 37 -41 92q-15 49 -15 77q0 7 2 11q26 -43 30 -45q4 -37 27 -80q26 -46 51 -50q-21 23 -48 102q-32 93 -32 168q0 52 17 87q-1 -10 -1 -36
q0 -80 17 -149q22 -89 69 -134q-12 26 -22 86q-9 58 -9 106q0 17 1 25q1 -23 17 -51q5 -10 12 -19q6 -8 10 -12q-2 -10 -2 -14q0 -29 24 -59q22 -26 43 -32q-66 115 -66 234q0 54 18 91q1 -10 3 -37l2 -24l2 -25q5 -63 15 -75v14q0 28 10 39q3 -12 7 -48l4 -27l5 -28
q15 -65 49 -76q-40 61 -40 162q0 110 39 203l-1 -11l-1 -11q0 -8 4 -13l-3 -12l-2 -14q-3 -16 -3 -28q0 -11 3 -20q10 -20 10 -49q0 -23 -7 -38q-9 -18 -9 -51q0 -68 29 -91q-4 16 -4 31v7q12 -29 51 -34q-51 55 -51 134q0 18 3 47l2 21q1 11 1 19q0 14 -2 20q-2 8 -2 16
q0 7 1 16l1 9l1 10q2 27 2 46q0 90 -48 165q-22 34 -35 44q-12 9 -32 10q30 -16 43 -54zM213 344q-4 7 -4 16q0 14 13 41q12 27 12 35q-17 -6 -33 -33t-16 -52q0 -10 3 -18zM242 362q-1 2 -1 6q0 8 5 23l5 10q2 7 3 9q-8 -4 -17 -19t-9 -27q0 -4 2 -8zM246 561l15 10l16 10
q44 25 87 25q-11 8 -27 8q-28 0 -68 -29q-13 -9 -29 -22l-6 -5l-5 -4q-5 -5 -8 -7q8 3 25 14zM324 420h5q10 10 20 32q10 23 10 40q0 4 -2 12q-2 -22 -13 -43q-9 -20 -19 -26l-3 -2l-4 -2l-9 -5q-10 -8 -10 -15q14 9 25 9zM207 463q19 -3 27 -3q7 1 7 5t-12 7t-26 3
q-16 0 -27 -6q11 -3 31 -6zM246 501v-2q0 -6 7 -13q4 -4 8 -4t4 4t-4 9q-5 5 -14 8zM197 484q10 0 22 -1l9 -1h6q-15 22 -24 27l1 4q1 3 3 7q4 10 7 15q-26 -2 -51 -21q-27 -20 -31 -42q20 12 58 12zM327 506q23 4 23 30q0 13 -10 19q2 -4 2 -9q0 -9 -4 -17q-5 -10 -14 -15z
M295 518l3 -1q4 -2 7 -2q10 2 16 10q4 7 4 15q0 4 -2 8l-1 1l-2 1q-3 2 -4 2t-1 -1v-2l1 -2v-6q0 -9 -9 -16q-7 -7 -13 -7h1zM295 532l2 3l2 4l1 2v2q0 4 -5 6q-3 2 -8 2q-9 0 -9 -10q3 -11 11 -13q4 0 6 4zM318 468q0 7 -11 7q-4 0 -7 -2q-5 -3 -5 -6q0 -5 5 -8q3 -2 8 -2
q10 0 10 11zM288 436q3 3 3 6t-3 6q-4 2 -7 2q-9 0 -9 -8t9 -8q3 0 7 2zM549 219q-14 53 -23 124q2 12 2 20q0 51 -31 112q-35 68 -85 87q16 -21 28 -39q16 -24 19 -34l7 2q18 -18 32 -53q12 -27 20 -61q0 -28 1 -57q1 -38 5 -72q8 -90 26 -145l9 23l9 -5l10 -5q11 -6 18 -6
q-28 36 -47 109z" />
            <glyph glyph-name="glyph155" horiz-adv-x="320"
                   d="M68 572q-48 32 -48 89q0 44 48 44q32 0 33 -31q2 -40 59 -40t59 39q1 31 33 31q48 0 48 -43q0 -57 -48 -89q-40 -26 -92 -26t-92 26zM41 654q5 0 9 6l4 6l4 5l4 3l5 3q6 5 6 9q0 10 -11 10q-10 0 -21 -9q-11 -10 -10 -21q2 -12 10 -12z" />
            <glyph glyph-name="glyph156" horiz-adv-x="183"
                   d="M73 -45q14 21 40 21q16 0 28 -9q22 -14 22 -40q0 -14 -9 -28l-44 -63q-13 -21 -41 -21q-16 0 -27 8q-21 15 -21 41q0 16 8 27z" />
            <glyph glyph-name="glyph271" horiz-adv-x="0"
                   d="M88 658q21 20 49 20q29 0 49 -20t20 -49q0 -28 -20 -49q-20 -20 -49 -20q-28 0 -49 20q-20 21 -20 49q0 29 20 49zM91 625q3 -4 8 -4q7 0 13 9q2 3 6 5l6 4q6 5 6 11q0 4 -4 8q-3 4 -7 4q-11 0 -22 -12q-4 -4 -7 -9q-2 -5 -2 -7q0 -5 3 -9z" />
            </font>
</defs>
</svg>
