<?xml version="1.0" standalone="no"?>
<!DOCTYPE svg PUBLIC "-//W3C//DTD SVG 20010904//EN"
 "http://www.w3.org/TR/2001/REC-SVG-20010904/DTD/svg10.dtd">
<svg version="1.0" xmlns="http://www.w3.org/2000/svg"
 width="260.000000pt" height="260.000000pt" viewBox="0 0 260.000000 260.000000"
 preserveAspectRatio="xMidYMid meet">
<metadata>
Created by potrace 1.11, written by Peter Selinger 2001-2013
</metadata>
<g transform="translate(0.000000,260.000000) scale(0.100000,-0.100000)"
fill="#000000" stroke="none">
<path d="M1136 2569 c-546 -75 -977 -481 -1093 -1029 -24 -118 -24 -372 0
-490 111 -522 495 -906 1017 -1017 118 -24 372 -24 490 0 462 98 829 421 974
857 47 142 61 233 61 405 0 116 -5 184 -18 245 -56 264 -168 472 -357 660
-187 188 -398 302 -655 355 -96 20 -323 28 -419 14z m399 -376 c226 -64 415
-200 541 -390 103 -153 144 -286 151 -485 l6 -138 35 0 35 0 -7 -51 c-24 -182
-136 -397 -282 -543 -487 -488 -1301 -352 -1612 269 -36 73 -79 205 -88 274
l-7 51 35 0 35 0 6 138 c7 199 48 332 151 485 129 194 338 342 553 391 37 9
77 18 88 20 50 12 292 -3 360 -21z"/>
<path d="M1017 1832 c-15 -17 -17 -69 -17 -539 0 -604 -10 -553 108 -553 122
0 112 -48 112 555 0 604 10 555 -113 555 -59 0 -77 -4 -90 -18z"/>
<path d="M1440 1830 c-19 -19 -20 -33 -20 -535 0 -604 -10 -555 113 -555 59 0
77 4 90 18 15 17 17 69 17 539 0 604 10 553 -108 553 -59 0 -76 -4 -92 -20z"/>
</g>
</svg>
