<svg xmlns="http://www.w3.org/2000/svg" viewBox="0 0 171.01 736.86"><defs><style>.cls-1{fill:#4c0901;}</style></defs><g id="Слой_2" data-name="Слой 2"><g id="Layer_1" data-name="Layer 1"><path class="cls-1" d="M77.47,726.23c-.14-2.39-.27-4.37-.39-6.35a372,372,0,0,1-.37-43.41,87.44,87.44,0,0,1,2.87-17.73c.58-2.16.92-4.38,1.39-6.57.5-2.35,1.62-3.49,3.14-3.19s2.42,1.87,1.93,4c-1.43,6.3-1.06,12.74-1.33,19.12q-.94,22.78.28,45.58c.19,3.67.49,7.34.67,11a17.75,17.75,0,0,1-.13,4.06c-.65,3.59-3.57,5.08-6.82,3.4-3-1.54-5.87-3.27-8.73-5a128.63,128.63,0,0,1-26.06-21.43c-11.68-12.29-23.56-24.4-34.45-37.41-2.51-3-5.34-5.73-8.06-8.55-1.55-1.59-1.86-3.26-.75-4.7a3.52,3.52,0,0,1,4.75-.76,20.64,20.64,0,0,1,4.09,3.29c4.82,5.14,9.44,10.45,14.29,15.54q16.65,17.43,33.49,34.7a89.65,89.65,0,0,0,7,5.88,12.91,12.91,0,0,0,1.16.75,13.8,13.8,0,0,0-.58-1.76c-6.39-12.06-10.95-24.87-15.22-37.78A560.59,560.59,0,0,1,33.9,620.8a414,414,0,0,1-7.54-49.54c-2.17-23.8-1.93-47.62-.6-71.44q1.5-27,3.46-53.88A821.06,821.06,0,0,1,42,349.9c4.51-23.56,9.06-47.13,14.29-70.53,5.07-22.62,10.83-45.08,16.69-67.51,3.19-12.21,7.11-24.23,10.87-36.28,5-16.13,11.39-31.76,17.87-47.34,3.44-8.27,6.73-16.6,10.33-24.8,4.78-10.91,10.13-21.56,15.9-32q11.74-21.2,23.53-42.36c2-3.56,4.27-6.95,6.31-10.49,3-5.19,5.89-10.44,8.85-15.66A8.71,8.71,0,0,1,168.22.58a2.68,2.68,0,0,1,2.13-.53c.35.08.76,1.24.63,1.8a18.1,18.1,0,0,1-1.49,4.51c-2.87,5.45-5.85,10.83-8.81,16.23-6.84,12.49-13.72,25-20.52,37.46-5.08,9.34-10.31,18.62-15,28.15-4.28,8.66-8.19,17.53-11.85,26.48q-9.81,24-19.06,48.19c-3.09,8.14-5.64,16.49-8.13,24.84-3.44,11.49-6.83,23-9.81,34.6-6.47,25.16-12.82,50.36-17.93,75.85-5.15,25.72-9.9,51.52-14,77.44-2.8,17.87-4.85,35.82-6.38,53.84q-3.78,44.73-5,89.6A416.54,416.54,0,0,0,36,583.94a466.82,466.82,0,0,0,10.25,53.21c5.08,20.43,11.38,40.49,18.25,60.38,2.9,8.38,6.07,16.68,9,25A5.43,5.43,0,0,0,77.47,726.23Z"/></g></g></svg>