<svg xmlns="http://www.w3.org/2000/svg" viewBox="0 0 301.39 260.4"><defs><style>.cls-1{fill:#fff;}.cls-2{fill:#d3e6f2;}.cls-3{fill:#b6d0e5;}</style></defs><g id="Слой_2" data-name="Слой 2"><g id="Isolation_Mode" data-name="Isolation Mode"><path class="cls-1" d="M301.39,9.23,253.72,249.56s-6.66,16.67-25,8.67l-110-84.34-40-19.33L11.39,131.89S1.06,128.23.06,120.23s11.66-12.34,11.66-12.34l267.67-105S301.39-6.77,301.39,9.23Z"/><path class="cls-2" d="M110.27,246.86s-3.21-.3-7.21-13-24.34-79.33-24.34-79.33L240.39,51.89s9.33-5.66,9,0c0,0,1.67,1-3.33,5.67s-127,114.33-127,114.33"/><path class="cls-3" d="M160.9,206.23,117.39,245.9s-3.4,2.58-7.12,1l8.33-73.68"/></g></g></svg>