<svg width="492" height="492" viewBox="0 0 492 492" fill="none" xmlns="http://www.w3.org/2000/svg">
<g clip-path="url(#clip0_2_10)">
<path d="M245.896 97.1281L429.96 281.184C435.016 286.252 441.776 289.04 448.984 289.04C456.196 289.04 462.952 286.252 468.016 281.184L484.136 265.056C489.208 259.996 492 253.232 492 246.024C492 238.816 489.208 232.06 484.136 226.996L264.992 7.84811C259.912 2.76411 253.124 -0.0198928 245.908 0.000107165C238.66 -0.0198928 231.88 2.76011 226.796 7.84811L7.86401 226.792C2.79201 231.856 0 238.612 0 245.824C0 253.032 2.79201 259.788 7.86401 264.856L23.984 280.98C34.476 291.472 51.556 291.472 62.044 280.98L245.896 97.1281Z" fill="#4C0901"/>
<path d="M245.896 299.608L429.96 483.664C435.016 488.732 441.776 491.52 448.984 491.52C456.196 491.52 462.952 488.732 468.016 483.664L484.136 467.536C489.208 462.476 492 455.712 492 448.504C492 441.296 489.208 434.54 484.136 429.476L264.992 210.328C259.912 205.244 253.124 202.46 245.908 202.48C238.66 202.46 231.88 205.24 226.796 210.328L7.86401 429.272C2.79201 434.336 0 441.092 0 448.304C0 455.512 2.79201 462.268 7.86401 467.336L23.984 483.46C34.476 493.952 51.556 493.952 62.044 483.46L245.896 299.608Z" fill="#4C0901"/>
</g>
<defs>
<clipPath id="clip0_2_10">
<rect width="492" height="492" fill="white" transform="translate(492) rotate(90)"/>
</clipPath>
</defs>
</svg>
